<?xml version="1.0" encoding="UTF-8" standalone="no"?>
<svg
   version="1.1"
   x="0px"
   y="0px"
   viewBox="0 0 1664 64"
   style="enable-background:new 0 0 1664 64;"
   xml:space="preserve"
   id="svg816"
   sodipodi:docname="juicy.svg"
   inkscape:export-filename="C:\Users\N8\Documents\numfall_android\pieceSets\juicy\sprites\juicyTransparent.png"
   inkscape:export-xdpi="300"
   inkscape:export-ydpi="300"
   inkscape:version="1.1 (c68e22c387, 2021-05-23)"
   xmlns:inkscape="http://www.inkscape.org/namespaces/inkscape"
   xmlns:sodipodi="http://sodipodi.sourceforge.net/DTD/sodipodi-0.dtd"
   xmlns="http://www.w3.org/2000/svg"
   xmlns:svg="http://www.w3.org/2000/svg"
   xmlns:rdf="http://www.w3.org/1999/02/22-rdf-syntax-ns#"
   xmlns:cc="http://creativecommons.org/ns#"
   xmlns:dc="http://purl.org/dc/elements/1.1/"><metadata
   id="metadata822"><rdf:RDF><cc:Work
       rdf:about=""><dc:format>image/svg+xml</dc:format><dc:type
         rdf:resource="http://purl.org/dc/dcmitype/StillImage" /></cc:Work></rdf:RDF></metadata><defs
   id="defs820"><inkscape:path-effect
   effect="powerclip"
   id="path-effect2332"
   is_visible="true"
   lpeversion="1"
   inverse="true"
   flatten="false"
   hide_clip="false"
   message="Use fill-rule evenodd on &lt;b&gt;fill and stroke&lt;/b&gt; dialog if no flatten result after convert clip to paths." /><inkscape:path-effect
   effect="powerclip"
   id="path-effect2324"
   is_visible="true"
   lpeversion="1"
   inverse="true"
   flatten="false"
   hide_clip="false"
   message="Use fill-rule evenodd on &lt;b&gt;fill and stroke&lt;/b&gt; dialog if no flatten result after convert clip to paths." /><inkscape:path-effect
   effect="powerclip"
   id="path-effect2316"
   is_visible="true"
   lpeversion="1"
   inverse="true"
   flatten="false"
   hide_clip="false"
   message="Use fill-rule evenodd on &lt;b&gt;fill and stroke&lt;/b&gt; dialog if no flatten result after convert clip to paths." /><inkscape:path-effect
   effect="powerclip"
   id="path-effect2308"
   is_visible="true"
   lpeversion="1"
   inverse="true"
   flatten="false"
   hide_clip="false"
   message="Use fill-rule evenodd on &lt;b&gt;fill and stroke&lt;/b&gt; dialog if no flatten result after convert clip to paths." /><inkscape:path-effect
   effect="powerclip"
   id="path-effect2300"
   is_visible="true"
   lpeversion="1"
   inverse="true"
   flatten="false"
   hide_clip="false"
   message="Use fill-rule evenodd on &lt;b&gt;fill and stroke&lt;/b&gt; dialog if no flatten result after convert clip to paths." /><inkscape:path-effect
   effect="powerclip"
   id="path-effect2292"
   is_visible="true"
   lpeversion="1"
   inverse="true"
   flatten="false"
   hide_clip="false"
   message="Use fill-rule evenodd on &lt;b&gt;fill and stroke&lt;/b&gt; dialog if no flatten result after convert clip to paths." /><inkscape:path-effect
   effect="powerclip"
   id="path-effect2284"
   is_visible="true"
   lpeversion="1"
   inverse="true"
   flatten="false"
   hide_clip="false"
   message="Use fill-rule evenodd on &lt;b&gt;fill and stroke&lt;/b&gt; dialog if no flatten result after convert clip to paths." /><inkscape:path-effect
   effect="powerclip"
   id="path-effect2276"
   is_visible="true"
   lpeversion="1"
   inverse="true"
   flatten="false"
   hide_clip="false"
   message="Use fill-rule evenodd on &lt;b&gt;fill and stroke&lt;/b&gt; dialog if no flatten result after convert clip to paths." /><inkscape:path-effect
   effect="powerclip"
   id="path-effect2268"
   is_visible="true"
   lpeversion="1"
   inverse="true"
   flatten="false"
   hide_clip="false"
   message="Use fill-rule evenodd on &lt;b&gt;fill and stroke&lt;/b&gt; dialog if no flatten result after convert clip to paths." /><inkscape:path-effect
   effect="powerclip"
   id="path-effect2260"
   is_visible="true"
   lpeversion="1"
   inverse="true"
   flatten="false"
   hide_clip="false"
   message="Use fill-rule evenodd on &lt;b&gt;fill and stroke&lt;/b&gt; dialog if no flatten result after convert clip to paths." /><inkscape:path-effect
   effect="powerclip"
   id="path-effect2252"
   is_visible="true"
   lpeversion="1"
   inverse="true"
   flatten="false"
   hide_clip="false"
   message="Use fill-rule evenodd on &lt;b&gt;fill and stroke&lt;/b&gt; dialog if no flatten result after convert clip to paths." /><inkscape:path-effect
   effect="powerclip"
   id="path-effect2244"
   is_visible="true"
   lpeversion="1"
   inverse="true"
   flatten="false"
   hide_clip="false"
   message="Use fill-rule evenodd on &lt;b&gt;fill and stroke&lt;/b&gt; dialog if no flatten result after convert clip to paths." /><inkscape:path-effect
   effect="powerclip"
   id="path-effect2236"
   is_visible="true"
   lpeversion="1"
   inverse="true"
   flatten="false"
   hide_clip="false"
   message="Use fill-rule evenodd on &lt;b&gt;fill and stroke&lt;/b&gt; dialog if no flatten result after convert clip to paths." /><inkscape:path-effect
   effect="powerclip"
   id="path-effect2228"
   is_visible="true"
   lpeversion="1"
   inverse="true"
   flatten="false"
   hide_clip="false"
   message="Use fill-rule evenodd on &lt;b&gt;fill and stroke&lt;/b&gt; dialog if no flatten result after convert clip to paths." /><inkscape:path-effect
   effect="powerclip"
   id="path-effect2220"
   is_visible="true"
   lpeversion="1"
   inverse="true"
   flatten="false"
   hide_clip="false"
   message="Use fill-rule evenodd on &lt;b&gt;fill and stroke&lt;/b&gt; dialog if no flatten result after convert clip to paths." /><inkscape:path-effect
   effect="powerclip"
   id="path-effect2212"
   is_visible="true"
   lpeversion="1"
   inverse="true"
   flatten="false"
   hide_clip="false"
   message="Use fill-rule evenodd on &lt;b&gt;fill and stroke&lt;/b&gt; dialog if no flatten result after convert clip to paths." /><inkscape:path-effect
   effect="powerclip"
   id="path-effect2204"
   is_visible="true"
   lpeversion="1"
   inverse="true"
   flatten="false"
   hide_clip="false"
   message="Use fill-rule evenodd on &lt;b&gt;fill and stroke&lt;/b&gt; dialog if no flatten result after convert clip to paths." /><inkscape:path-effect
   effect="powerclip"
   id="path-effect2196"
   is_visible="true"
   lpeversion="1"
   inverse="true"
   flatten="false"
   hide_clip="false"
   message="Use fill-rule evenodd on &lt;b&gt;fill and stroke&lt;/b&gt; dialog if no flatten result after convert clip to paths." /><inkscape:path-effect
   effect="powerclip"
   id="path-effect2188"
   is_visible="true"
   lpeversion="1"
   inverse="true"
   flatten="false"
   hide_clip="false"
   message="Use fill-rule evenodd on &lt;b&gt;fill and stroke&lt;/b&gt; dialog if no flatten result after convert clip to paths." /><inkscape:path-effect
   effect="powerclip"
   id="path-effect2180"
   is_visible="true"
   lpeversion="1"
   inverse="true"
   flatten="false"
   hide_clip="false"
   message="Use fill-rule evenodd on &lt;b&gt;fill and stroke&lt;/b&gt; dialog if no flatten result after convert clip to paths." /><inkscape:path-effect
   effect="powerclip"
   id="path-effect2172"
   is_visible="true"
   lpeversion="1"
   inverse="true"
   flatten="false"
   hide_clip="false"
   message="Use fill-rule evenodd on &lt;b&gt;fill and stroke&lt;/b&gt; dialog if no flatten result after convert clip to paths." /><inkscape:path-effect
   effect="powerclip"
   id="path-effect2164"
   is_visible="true"
   lpeversion="1"
   inverse="true"
   flatten="false"
   hide_clip="false"
   message="Use fill-rule evenodd on &lt;b&gt;fill and stroke&lt;/b&gt; dialog if no flatten result after convert clip to paths." /><inkscape:path-effect
   effect="powerclip"
   id="path-effect2156"
   is_visible="true"
   lpeversion="1"
   inverse="true"
   flatten="false"
   hide_clip="false"
   message="Use fill-rule evenodd on &lt;b&gt;fill and stroke&lt;/b&gt; dialog if no flatten result after convert clip to paths." /><inkscape:path-effect
   effect="powerclip"
   id="path-effect2148"
   is_visible="true"
   lpeversion="1"
   inverse="true"
   flatten="false"
   hide_clip="false"
   message="Use fill-rule evenodd on &lt;b&gt;fill and stroke&lt;/b&gt; dialog if no flatten result after convert clip to paths." /><inkscape:path-effect
   effect="powerclip"
   id="path-effect2140"
   is_visible="true"
   lpeversion="1"
   inverse="true"
   flatten="false"
   hide_clip="false"
   message="Use fill-rule evenodd on &lt;b&gt;fill and stroke&lt;/b&gt; dialog if no flatten result after convert clip to paths." />
	

		
		
		
		
		
		
		
		
		
		
		
		
		
		
		
		
		
		
		
		
		
		
		
		
		
		
		
		
		
		
		
		
		
		
		
		
		
		
		
		
		
		
		
		
		
		
		
		
		
		
		
		
		
		
		
		
		
		
		
		
		
		
		
		
		
		
		
		
		
		
		
		
		
		
		
		
		
		
		
		
		
		
		
		
		
		
		
		
		
		
		
		
		
		
		
		
		
		
		
		
		
		
		
		
		
		
		
		
		
		
		
		
		
		
		
		
		
		
		
		
		
		
		
		
		
		
		
		
		
		
		
		
		
		
		
		
		
		
		
		
		
		
		
		
		
		
		
		
		
		
		
		
		
		
		
		
		
		
		
		
		
		
		
		
		
		
		
		
		
		
		
		
		
		
		
		
		
		
		
		
		
		
		
		
		
		
		
		
		
		
		
		
		
		
		
		
		
		
		
		
		
		
		
		
		
		
		
		
		
		
		
		
		
		
		
		
		
		
		
		
		
		
		
		
		
		
		
		
		
		
		
		
		
		
		
		
		
		
		
		
		
		
		
		
		
		
		
		
		
		
		
		
		
		
		
		
		
		
		
		
		
		
		
		
		
		
		
		
		
		
		
		
		
		
		
		
		
		
		
		
		
		
		
		
		
		
		
		
		
		
		
		
		
		
		
		
		
		
		
		
		
		
		
		
		
		
		
		
		
		
		
		
		
		
		
		
		
		
		
		
		
		
		
		
		
		
		
		
		
		
		
		
		
		
		
		
		
		
		
		
		
		
		
		
		
		
		
		
		
		
		
		
	
			
			
		
			
			
		
			
			
		
			
			
		
			
			
		
			
			
		
			
			
		
			
			
		
			
			
		
			
			
		
			
			
		
			
			
		
			
			
		
			
			
		
			
			
		
			
			
		
			
			
		
			
			
		
			
			
		
			
			
		
			
			
		
			
			
		
			
			
		
			
			
		
			
			
		
			
			
		<filter
   inkscape:label="Fluorescence"
   inkscape:menu="Color"
   inkscape:menu-tooltip="Oversaturate colors which can be fluorescent in real world"
   style="color-interpolation-filters:sRGB;"
   id="filter2740"
   x="-0.016125035"
   y="-0.016125035"
   width="1.0322501"
   height="1.0322501"><feColorMatrix
     type="hueRotate"
     values="0"
     id="feColorMatrix2734" /><feColorMatrix
     type="saturate"
     values="1"
     id="feColorMatrix2736" /><feColorMatrix
     type="matrix"
     values="2 -1 0 0 0 0 2 -1 0 0 -1 0 2 0 0 0 0 0 1 0 "
     id="feColorMatrix2738" /></filter><filter
   inkscape:label="Fluorescence"
   inkscape:menu="Color"
   inkscape:menu-tooltip="Oversaturate colors which can be fluorescent in real world"
   style="color-interpolation-filters:sRGB;"
   id="filter2748"
   x="-0.016129032"
   y="-0.016129032"
   width="1.0322581"
   height="1.0322581"><feColorMatrix
     type="hueRotate"
     values="0"
     id="feColorMatrix2742" /><feColorMatrix
     type="saturate"
     values="1"
     id="feColorMatrix2744" /><feColorMatrix
     type="matrix"
     values="2 -1 0 0 0 0 2 -1 0 0 -1 0 2 0 0 0 0 0 1 0 "
     id="feColorMatrix2746" /></filter><filter
   inkscape:label="Fluorescence"
   inkscape:menu="Color"
   inkscape:menu-tooltip="Oversaturate colors which can be fluorescent in real world"
   style="color-interpolation-filters:sRGB;"
   id="filter2756"
   x="-0.0080645161"
   y="-0.0080645161"
   width="1.016129"
   height="1.016129"><feColorMatrix
     type="hueRotate"
     values="0"
     id="feColorMatrix2750" /><feColorMatrix
     type="saturate"
     values="1"
     id="feColorMatrix2752" /><feColorMatrix
     type="matrix"
     values="2 -1 0 0 0 0 2 -1 0 0 -1 0 2 0 0 0 0 0 1 0 "
     id="feColorMatrix2754" /></filter><filter
   inkscape:label="Fluorescence"
   inkscape:menu="Color"
   inkscape:menu-tooltip="Oversaturate colors which can be fluorescent in real world"
   style="color-interpolation-filters:sRGB;"
   id="filter2764"
   x="-0.016129032"
   y="-0.016129032"
   width="1.0322581"
   height="1.0322581"><feColorMatrix
     type="hueRotate"
     values="0"
     id="feColorMatrix2758" /><feColorMatrix
     type="saturate"
     values="1"
     id="feColorMatrix2760" /><feColorMatrix
     type="matrix"
     values="2 -1 0 0 0 0 2 -1 0 0 -1 0 2 0 0 0 0 0 1 0 "
     id="feColorMatrix2762" /></filter><filter
   inkscape:label="Fluorescence"
   inkscape:menu="Color"
   inkscape:menu-tooltip="Oversaturate colors which can be fluorescent in real world"
   style="color-interpolation-filters:sRGB;"
   id="filter2772"
   x="-0.016129032"
   y="-0.016129032"
   width="1.0322581"
   height="1.0322581"><feColorMatrix
     type="hueRotate"
     values="0"
     id="feColorMatrix2766" /><feColorMatrix
     type="saturate"
     values="1"
     id="feColorMatrix2768" /><feColorMatrix
     type="matrix"
     values="2 -1 0 0 0 0 2 -1 0 0 -1 0 2 0 0 0 0 0 1 0 "
     id="feColorMatrix2770" /></filter><filter
   inkscape:label="Fluorescence"
   inkscape:menu="Color"
   inkscape:menu-tooltip="Oversaturate colors which can be fluorescent in real world"
   style="color-interpolation-filters:sRGB;"
   id="filter2780"
   x="-0.016129032"
   y="-0.016129032"
   width="1.0322581"
   height="1.0322581"><feColorMatrix
     type="hueRotate"
     values="0"
     id="feColorMatrix2774" /><feColorMatrix
     type="saturate"
     values="1"
     id="feColorMatrix2776" /><feColorMatrix
     type="matrix"
     values="2 -1 0 0 0 0 2 -1 0 0 -1 0 2 0 0 0 0 0 1 0 "
     id="feColorMatrix2778" /></filter><filter
   inkscape:label="Fluorescence"
   inkscape:menu="Color"
   inkscape:menu-tooltip="Oversaturate colors which can be fluorescent in real world"
   style="color-interpolation-filters:sRGB;"
   id="filter2788"
   x="-0.016129032"
   y="-0.016129032"
   width="1.0322581"
   height="1.0322581"><feColorMatrix
     type="hueRotate"
     values="0"
     id="feColorMatrix2782" /><feColorMatrix
     type="saturate"
     values="1"
     id="feColorMatrix2784" /><feColorMatrix
     type="matrix"
     values="2 -1 0 0 0 0 2 -1 0 0 -1 0 2 0 0 0 0 0 1 0 "
     id="feColorMatrix2786" /></filter><filter
   inkscape:label="Fluorescence"
   inkscape:menu="Color"
   inkscape:menu-tooltip="Oversaturate colors which can be fluorescent in real world"
   style="color-interpolation-filters:sRGB;"
   id="filter2796"
   x="-0.016129032"
   y="-0.016129032"
   width="1.0322581"
   height="1.0322581"><feColorMatrix
     type="hueRotate"
     values="0"
     id="feColorMatrix2790" /><feColorMatrix
     type="saturate"
     values="1"
     id="feColorMatrix2792" /><feColorMatrix
     type="matrix"
     values="2 -1 0 0 0 0 2 -1 0 0 -1 0 2 0 0 0 0 0 1 0 "
     id="feColorMatrix2794" /></filter><filter
   inkscape:label="Fluorescence"
   inkscape:menu="Color"
   inkscape:menu-tooltip="Oversaturate colors which can be fluorescent in real world"
   style="color-interpolation-filters:sRGB;"
   id="filter2804"
   x="-0.016129032"
   y="-0.016129032"
   width="1.0322581"
   height="1.0322581"><feColorMatrix
     type="hueRotate"
     values="0"
     id="feColorMatrix2798" /><feColorMatrix
     type="saturate"
     values="1"
     id="feColorMatrix2800" /><feColorMatrix
     type="matrix"
     values="2 -1 0 0 0 0 2 -1 0 0 -1 0 2 0 0 0 0 0 1 0 "
     id="feColorMatrix2802" /></filter><filter
   inkscape:label="Fluorescence"
   inkscape:menu="Color"
   inkscape:menu-tooltip="Oversaturate colors which can be fluorescent in real world"
   style="color-interpolation-filters:sRGB;"
   id="filter2812"
   x="-0.016129032"
   y="-0.016129032"
   width="1.0322581"
   height="1.0322581"><feColorMatrix
     type="hueRotate"
     values="0"
     id="feColorMatrix2806" /><feColorMatrix
     type="saturate"
     values="1"
     id="feColorMatrix2808" /><feColorMatrix
     type="matrix"
     values="2 -1 0 0 0 0 2 -1 0 0 -1 0 2 0 0 0 0 0 1 0 "
     id="feColorMatrix2810" /></filter><filter
   inkscape:label="Fluorescence"
   inkscape:menu="Color"
   inkscape:menu-tooltip="Oversaturate colors which can be fluorescent in real world"
   style="color-interpolation-filters:sRGB;"
   id="filter2820"
   x="-0.016129032"
   y="-0.016129032"
   width="1.0322581"
   height="1.0322581"><feColorMatrix
     type="hueRotate"
     values="0"
     id="feColorMatrix2814" /><feColorMatrix
     type="saturate"
     values="1"
     id="feColorMatrix2816" /><feColorMatrix
     type="matrix"
     values="2 -1 0 0 0 0 2 -1 0 0 -1 0 2 0 0 0 0 0 1 0 "
     id="feColorMatrix2818" /></filter><filter
   inkscape:label="Fluorescence"
   inkscape:menu="Color"
   inkscape:menu-tooltip="Oversaturate colors which can be fluorescent in real world"
   style="color-interpolation-filters:sRGB;"
   id="filter2828"
   x="-0.016129032"
   y="-0.016129032"
   width="1.0322581"
   height="1.0322581"><feColorMatrix
     type="hueRotate"
     values="0"
     id="feColorMatrix2822" /><feColorMatrix
     type="saturate"
     values="1"
     id="feColorMatrix2824" /><feColorMatrix
     type="matrix"
     values="2 -1 0 0 0 0 2 -1 0 0 -1 0 2 0 0 0 0 0 1 0 "
     id="feColorMatrix2826" /></filter><filter
   inkscape:label="Fluorescence"
   inkscape:menu="Color"
   inkscape:menu-tooltip="Oversaturate colors which can be fluorescent in real world"
   style="color-interpolation-filters:sRGB;"
   id="filter2836"
   x="-0.016129032"
   y="-0.016129032"
   width="1.0322581"
   height="1.0322581"><feColorMatrix
     type="hueRotate"
     values="0"
     id="feColorMatrix2830" /><feColorMatrix
     type="saturate"
     values="1"
     id="feColorMatrix2832" /><feColorMatrix
     type="matrix"
     values="2 -1 0 0 0 0 2 -1 0 0 -1 0 2 0 0 0 0 0 1 0 "
     id="feColorMatrix2834" /></filter><filter
   inkscape:label="Fluorescence"
   inkscape:menu="Color"
   inkscape:menu-tooltip="Oversaturate colors which can be fluorescent in real world"
   style="color-interpolation-filters:sRGB;"
   id="filter2844"
   x="-0.016129032"
   y="-0.016129032"
   width="1.0322581"
   height="1.0322581"><feColorMatrix
     type="hueRotate"
     values="0"
     id="feColorMatrix2838" /><feColorMatrix
     type="saturate"
     values="1"
     id="feColorMatrix2840" /><feColorMatrix
     type="matrix"
     values="2 -1 0 0 0 0 2 -1 0 0 -1 0 2 0 0 0 0 0 1 0 "
     id="feColorMatrix2842" /></filter><filter
   inkscape:label="Fluorescence"
   inkscape:menu="Color"
   inkscape:menu-tooltip="Oversaturate colors which can be fluorescent in real world"
   style="color-interpolation-filters:sRGB;"
   id="filter2852"
   x="-0.016129032"
   y="-0.016129032"
   width="1.0322581"
   height="1.0322581"><feColorMatrix
     type="hueRotate"
     values="0"
     id="feColorMatrix2846" /><feColorMatrix
     type="saturate"
     values="1"
     id="feColorMatrix2848" /><feColorMatrix
     type="matrix"
     values="2 -1 0 0 0 0 2 -1 0 0 -1 0 2 0 0 0 0 0 1 0 "
     id="feColorMatrix2850" /></filter><filter
   inkscape:label="Fluorescence"
   inkscape:menu="Color"
   inkscape:menu-tooltip="Oversaturate colors which can be fluorescent in real world"
   style="color-interpolation-filters:sRGB;"
   id="filter2860"
   x="-0.016129032"
   y="-0.016129032"
   width="1.0322581"
   height="1.0322581"><feColorMatrix
     type="hueRotate"
     values="0"
     id="feColorMatrix2854" /><feColorMatrix
     type="saturate"
     values="1"
     id="feColorMatrix2856" /><feColorMatrix
     type="matrix"
     values="2 -1 0 0 0 0 2 -1 0 0 -1 0 2 0 0 0 0 0 1 0 "
     id="feColorMatrix2858" /></filter><filter
   inkscape:label="Fluorescence"
   inkscape:menu="Color"
   inkscape:menu-tooltip="Oversaturate colors which can be fluorescent in real world"
   style="color-interpolation-filters:sRGB;"
   id="filter2868"
   x="-0.016129032"
   y="-0.016129032"
   width="1.0322581"
   height="1.0322581"><feColorMatrix
     type="hueRotate"
     values="0"
     id="feColorMatrix2862" /><feColorMatrix
     type="saturate"
     values="1"
     id="feColorMatrix2864" /><feColorMatrix
     type="matrix"
     values="2 -1 0 0 0 0 2 -1 0 0 -1 0 2 0 0 0 0 0 1 0 "
     id="feColorMatrix2866" /></filter><filter
   inkscape:label="Fluorescence"
   inkscape:menu="Color"
   inkscape:menu-tooltip="Oversaturate colors which can be fluorescent in real world"
   style="color-interpolation-filters:sRGB;"
   id="filter2876"
   x="-0.016129032"
   y="-0.016129032"
   width="1.0322581"
   height="1.0322581"><feColorMatrix
     type="hueRotate"
     values="0"
     id="feColorMatrix2870" /><feColorMatrix
     type="saturate"
     values="1"
     id="feColorMatrix2872" /><feColorMatrix
     type="matrix"
     values="2 -1 0 0 0 0 2 -1 0 0 -1 0 2 0 0 0 0 0 1 0 "
     id="feColorMatrix2874" /></filter><filter
   inkscape:label="Fluorescence"
   inkscape:menu="Color"
   inkscape:menu-tooltip="Oversaturate colors which can be fluorescent in real world"
   style="color-interpolation-filters:sRGB;"
   id="filter2884"
   x="-0.016129032"
   y="-0.016129032"
   width="1.0322581"
   height="1.0322581"><feColorMatrix
     type="hueRotate"
     values="0"
     id="feColorMatrix2878" /><feColorMatrix
     type="saturate"
     values="1"
     id="feColorMatrix2880" /><feColorMatrix
     type="matrix"
     values="2 -1 0 0 0 0 2 -1 0 0 -1 0 2 0 0 0 0 0 1 0 "
     id="feColorMatrix2882" /></filter><filter
   inkscape:label="Fluorescence"
   inkscape:menu="Color"
   inkscape:menu-tooltip="Oversaturate colors which can be fluorescent in real world"
   style="color-interpolation-filters:sRGB;"
   id="filter2892"
   x="-0.016129032"
   y="-0.016129032"
   width="1.0322581"
   height="1.0322581"><feColorMatrix
     type="hueRotate"
     values="0"
     id="feColorMatrix2886" /><feColorMatrix
     type="saturate"
     values="1"
     id="feColorMatrix2888" /><feColorMatrix
     type="matrix"
     values="2 -1 0 0 0 0 2 -1 0 0 -1 0 2 0 0 0 0 0 1 0 "
     id="feColorMatrix2890" /></filter><filter
   inkscape:label="Fluorescence"
   inkscape:menu="Color"
   inkscape:menu-tooltip="Oversaturate colors which can be fluorescent in real world"
   style="color-interpolation-filters:sRGB;"
   id="filter2900"
   x="-0.016129032"
   y="-0.016129032"
   width="1.0322581"
   height="1.0322581"><feColorMatrix
     type="hueRotate"
     values="0"
     id="feColorMatrix2894" /><feColorMatrix
     type="saturate"
     values="1"
     id="feColorMatrix2896" /><feColorMatrix
     type="matrix"
     values="2 -1 0 0 0 0 2 -1 0 0 -1 0 2 0 0 0 0 0 1 0 "
     id="feColorMatrix2898" /></filter><filter
   inkscape:label="Fluorescence"
   inkscape:menu="Color"
   inkscape:menu-tooltip="Oversaturate colors which can be fluorescent in real world"
   style="color-interpolation-filters:sRGB;"
   id="filter2908"
   x="-0.016129032"
   y="-0.016129032"
   width="1.0322581"
   height="1.0322581"><feColorMatrix
     type="hueRotate"
     values="0"
     id="feColorMatrix2902" /><feColorMatrix
     type="saturate"
     values="1"
     id="feColorMatrix2904" /><feColorMatrix
     type="matrix"
     values="2 -1 0 0 0 0 2 -1 0 0 -1 0 2 0 0 0 0 0 1 0 "
     id="feColorMatrix2906" /></filter><filter
   inkscape:label="Fluorescence"
   inkscape:menu="Color"
   inkscape:menu-tooltip="Oversaturate colors which can be fluorescent in real world"
   style="color-interpolation-filters:sRGB;"
   id="filter2916"
   x="-0.016129032"
   y="-0.016129032"
   width="1.0322581"
   height="1.0322581"><feColorMatrix
     type="hueRotate"
     values="0"
     id="feColorMatrix2910" /><feColorMatrix
     type="saturate"
     values="1"
     id="feColorMatrix2912" /><feColorMatrix
     type="matrix"
     values="2 -1 0 0 0 0 2 -1 0 0 -1 0 2 0 0 0 0 0 1 0 "
     id="feColorMatrix2914" /></filter><filter
   inkscape:label="Fluorescence"
   inkscape:menu="Color"
   inkscape:menu-tooltip="Oversaturate colors which can be fluorescent in real world"
   style="color-interpolation-filters:sRGB;"
   id="filter2924"
   x="-0.016129032"
   y="-0.016129032"
   width="1.0322581"
   height="1.0322581"><feColorMatrix
     type="hueRotate"
     values="0"
     id="feColorMatrix2918" /><feColorMatrix
     type="saturate"
     values="1"
     id="feColorMatrix2920" /><feColorMatrix
     type="matrix"
     values="2 -1 0 0 0 0 2 -1 0 0 -1 0 2 0 0 0 0 0 1 0 "
     id="feColorMatrix2922" /></filter><filter
   inkscape:label="Fluorescence"
   inkscape:menu="Color"
   inkscape:menu-tooltip="Oversaturate colors which can be fluorescent in real world"
   style="color-interpolation-filters:sRGB;"
   id="filter2932"
   x="-0.016129032"
   y="-0.016129032"
   width="1.0322581"
   height="1.0322581"><feColorMatrix
     type="hueRotate"
     values="0"
     id="feColorMatrix2926" /><feColorMatrix
     type="saturate"
     values="1"
     id="feColorMatrix2928" /><feColorMatrix
     type="matrix"
     values="2 -1 0 0 0 0 2 -1 0 0 -1 0 2 0 0 0 0 0 1 0 "
     id="feColorMatrix2930" /></filter><filter
   inkscape:label="Fluorescence"
   inkscape:menu="Color"
   inkscape:menu-tooltip="Oversaturate colors which can be fluorescent in real world"
   style="color-interpolation-filters:sRGB;"
   id="filter2940"
   x="-0.016129032"
   y="-0.016129032"
   width="1.0322581"
   height="1.0322581"><feColorMatrix
     type="hueRotate"
     values="0"
     id="feColorMatrix2934" /><feColorMatrix
     type="saturate"
     values="1"
     id="feColorMatrix2936" /><feColorMatrix
     type="matrix"
     values="2 -1 0 0 0 0 2 -1 0 0 -1 0 2 0 0 0 0 0 1 0 "
     id="feColorMatrix2938" /></filter><clipPath
   clipPathUnits="userSpaceOnUse"
   id="clipPath2136"><circle
     id="circle2138"
     r="24"
     cy="32"
     cx="1632"
     style="display:none;fill:#ffffff"
     d="m 1656,32 a 24,24 0 0 1 -24,24 24,24 0 0 1 -24,-24 24,24 0 0 1 24,-24 24,24 0 0 1 24,24 z" /><path
     id="lpe_path-effect2140"
     style="fill:#ffffff"
     class="powerclip"
     d="m 1595,-5 h 74 v 74.000006 h -74 z m 61,37 a 24,24 0 0 0 -24,-24 24,24 0 0 0 -24,24 24,24 0 0 0 24,24 24,24 0 0 0 24,-24 z" /></clipPath><clipPath
   clipPathUnits="userSpaceOnUse"
   id="clipPath2144"><path
     id="path2146"
     style="display:none;fill:#ffffff"
     d="m 1582,52 a 4,4 0 0 1 -4,4 4,4 0 0 1 -4,-4 4,4 0 0 1 4,-4 4,4 0 0 1 4,4 z m 0,-10 a 4,4 0 0 1 -4,4 4,4 0 0 1 -4,-4 4,4 0 0 1 4,-4 4,4 0 0 1 4,4 z m -30,-30 a 4,4 0 0 1 -4,4 4,4 0 0 1 -4,-4 4,4 0 0 1 4,-4 4,4 0 0 1 4,4 z m 0,10 a 4,4 0 0 1 -4,4 4,4 0 0 1 -4,-4 4,4 0 0 1 4,-4 4,4 0 0 1 4,4 z m 10,0 a 4,4 0 0 1 -4,4 4,4 0 0 1 -4,-4 4,4 0 0 1 4,-4 4,4 0 0 1 4,4 z m 0,30 a 4,4 0 0 1 -4,4 4,4 0 0 1 -4,-4 4,4 0 0 1 4,-4 4,4 0 0 1 4,4 z m 0,-10 a 4,4 0 0 1 -4,4 4,4 0 0 1 -4,-4 4,4 0 0 1 4,-4 4,4 0 0 1 4,4 z m 20,-30 a 4,4 0 0 1 -4,4 4,4 0 0 1 -4,-4 4,4 0 0 1 4,-4 4,4 0 0 1 4,4 z m 0,10 a 4,4 0 0 1 -4,4 4,4 0 0 1 -4,-4 4,4 0 0 1 4,-4 4,4 0 0 1 4,4 z m -30,20 a 4,4 0 0 1 -4,4 4,4 0 0 1 -4,-4 4,4 0 0 1 4,-4 4,4 0 0 1 4,4 z m 0,-10 a 4,4 0 0 1 -4,4 4,4 0 0 1 -4,-4 4,4 0 0 1 4,-4 4,4 0 0 1 4,4 z m 40,20 a 4,4 0 0 1 -4,4 4,4 0 0 1 -4,-4 4,4 0 0 1 4,-4 4,4 0 0 1 4,4 z m 0,-10 a 4,4 0 0 1 -4,4 4,4 0 0 1 -4,-4 4,4 0 0 1 4,-4 4,4 0 0 1 4,4 z m 0,-20 a 4,4 0 0 1 -4,4 4,4 0 0 1 -4,-4 4,4 0 0 1 4,-4 4,4 0 0 1 4,4 z m 0,10 a 4,4 0 0 1 -4,4 4,4 0 0 1 -4,-4 4,4 0 0 1 4,-4 4,4 0 0 1 4,4 z m -40,20 a 4,4 0 0 1 -4,4 4,4 0 0 1 -4,-4 4,4 0 0 1 4,-4 4,4 0 0 1 4,4 z m 10,-20 a 4,4 0 0 1 -4,4 4,4 0 0 1 -4,-4 4,4 0 0 1 4,-4 4,4 0 0 1 4,4 z m 20,0 a 4,4 0 0 1 -4,4 4,4 0 0 1 -4,-4 4,4 0 0 1 4,-4 4,4 0 0 1 4,4 z m -10,20 a 4,4 0 0 1 -4,4 4,4 0 0 1 -4,-4 4,4 0 0 1 4,-4 4,4 0 0 1 4,4 z m 0,-10 a 4,4 0 0 1 -4,4 4,4 0 0 1 -4,-4 4,4 0 0 1 4,-4 4,4 0 0 1 4,4 z m -10,-30 a 4,4 0 0 1 -4,4 4,4 0 0 1 -4,-4 4,4 0 0 1 4,-4 4,4 0 0 1 4,4 z m 10,0 a 4,4 0 0 1 -4,4 4,4 0 0 1 -4,-4 4,4 0 0 1 4,-4 4,4 0 0 1 4,4 z m 20,0 a 4,4 0 0 1 -4,4 4,4 0 0 1 -4,-4 4,4 0 0 1 4,-4 4,4 0 0 1 4,4 z m -20,20 a 4,4 0 0 1 -4,4 4,4 0 0 1 -4,-4 4,4 0 0 1 4,-4 4,4 0 0 1 4,4 z m 0,-10 a 4,4 0 0 1 -4,4 4,4 0 0 1 -4,-4 4,4 0 0 1 4,-4 4,4 0 0 1 4,4 z" /><path
     id="lpe_path-effect2148"
     style="fill:#ffffff"
     class="powerclip"
     d="m 1531,-5 h 74 v 74.000006 h -74 z m 51,57 a 4,4 0 0 0 -4,-4 4,4 0 0 0 -4,4 4,4 0 0 0 4,4 4,4 0 0 0 4,-4 z m 0,-10 a 4,4 0 0 0 -4,-4 4,4 0 0 0 -4,4 4,4 0 0 0 4,4 4,4 0 0 0 4,-4 z m -30,-30 a 4,4 0 0 0 -4,-4 4,4 0 0 0 -4,4 4,4 0 0 0 4,4 4,4 0 0 0 4,-4 z m 0,10 a 4,4 0 0 0 -4,-4 4,4 0 0 0 -4,4 4,4 0 0 0 4,4 4,4 0 0 0 4,-4 z m 10,0 a 4,4 0 0 0 -4,-4 4,4 0 0 0 -4,4 4,4 0 0 0 4,4 4,4 0 0 0 4,-4 z m 0,30 a 4,4 0 0 0 -4,-4 4,4 0 0 0 -4,4 4,4 0 0 0 4,4 4,4 0 0 0 4,-4 z m 0,-10 a 4,4 0 0 0 -4,-4 4,4 0 0 0 -4,4 4,4 0 0 0 4,4 4,4 0 0 0 4,-4 z m 20,-30 a 4,4 0 0 0 -4,-4 4,4 0 0 0 -4,4 4,4 0 0 0 4,4 4,4 0 0 0 4,-4 z m 0,10 a 4,4 0 0 0 -4,-4 4,4 0 0 0 -4,4 4,4 0 0 0 4,4 4,4 0 0 0 4,-4 z m -30,20 a 4,4 0 0 0 -4,-4 4,4 0 0 0 -4,4 4,4 0 0 0 4,4 4,4 0 0 0 4,-4 z m 0,-10 a 4,4 0 0 0 -4,-4 4,4 0 0 0 -4,4 4,4 0 0 0 4,4 4,4 0 0 0 4,-4 z m 40,20 a 4,4 0 0 0 -4,-4 4,4 0 0 0 -4,4 4,4 0 0 0 4,4 4,4 0 0 0 4,-4 z m 0,-10 a 4,4 0 0 0 -4,-4 4,4 0 0 0 -4,4 4,4 0 0 0 4,4 4,4 0 0 0 4,-4 z m 0,-20 a 4,4 0 0 0 -4,-4 4,4 0 0 0 -4,4 4,4 0 0 0 4,4 4,4 0 0 0 4,-4 z m 0,10 a 4,4 0 0 0 -4,-4 4,4 0 0 0 -4,4 4,4 0 0 0 4,4 4,4 0 0 0 4,-4 z m -40,20 a 4,4 0 0 0 -4,-4 4,4 0 0 0 -4,4 4,4 0 0 0 4,4 4,4 0 0 0 4,-4 z m 10,-20 a 4,4 0 0 0 -4,-4 4,4 0 0 0 -4,4 4,4 0 0 0 4,4 4,4 0 0 0 4,-4 z m 20,0 a 4,4 0 0 0 -4,-4 4,4 0 0 0 -4,4 4,4 0 0 0 4,4 4,4 0 0 0 4,-4 z m -10,20 a 4,4 0 0 0 -4,-4 4,4 0 0 0 -4,4 4,4 0 0 0 4,4 4,4 0 0 0 4,-4 z m 0,-10 a 4,4 0 0 0 -4,-4 4,4 0 0 0 -4,4 4,4 0 0 0 4,4 4,4 0 0 0 4,-4 z m -10,-30 a 4,4 0 0 0 -4,-4 4,4 0 0 0 -4,4 4,4 0 0 0 4,4 4,4 0 0 0 4,-4 z m 10,0 a 4,4 0 0 0 -4,-4 4,4 0 0 0 -4,4 4,4 0 0 0 4,4 4,4 0 0 0 4,-4 z m 20,0 a 4,4 0 0 0 -4,-4 4,4 0 0 0 -4,4 4,4 0 0 0 4,4 4,4 0 0 0 4,-4 z m -20,20 a 4,4 0 0 0 -4,-4 4,4 0 0 0 -4,4 4,4 0 0 0 4,4 4,4 0 0 0 4,-4 z m 0,-10 a 4,4 0 0 0 -4,-4 4,4 0 0 0 -4,4 4,4 0 0 0 4,4 4,4 0 0 0 4,-4 z" /></clipPath><clipPath
   clipPathUnits="userSpaceOnUse"
   id="clipPath2152"><path
     id="path2154"
     style="display:none;fill:#ffffff"
     d="m 1518,52 a 4,4 0 0 1 -4,4 4,4 0 0 1 -4,-4 4,4 0 0 1 4,-4 4,4 0 0 1 4,4 z m 0,-10 a 4,4 0 0 1 -4,4 4,4 0 0 1 -4,-4 4,4 0 0 1 4,-4 4,4 0 0 1 4,4 z m -30,-30 a 4,4 0 0 1 -4,4 4,4 0 0 1 -4,-4 4,4 0 0 1 4,-4 4,4 0 0 1 4,4 z m 0,10 a 4,4 0 0 1 -4,4 4,4 0 0 1 -4,-4 4,4 0 0 1 4,-4 4,4 0 0 1 4,4 z m 10,0 a 4,4 0 0 1 -4,4 4,4 0 0 1 -4,-4 4,4 0 0 1 4,-4 4,4 0 0 1 4,4 z m 0,30 a 4,4 0 0 1 -4,4 4,4 0 0 1 -4,-4 4,4 0 0 1 4,-4 4,4 0 0 1 4,4 z m 0,-10 a 4,4 0 0 1 -4,4 4,4 0 0 1 -4,-4 4,4 0 0 1 4,-4 4,4 0 0 1 4,4 z m 20,-30 a 4,4 0 0 1 -4,4 4,4 0 0 1 -4,-4 4,4 0 0 1 4,-4 4,4 0 0 1 4,4 z m 0,10 a 4,4 0 0 1 -4,4 4,4 0 0 1 -4,-4 4,4 0 0 1 4,-4 4,4 0 0 1 4,4 z m -30,20 a 4,4 0 0 1 -4,4 4,4 0 0 1 -4,-4 4,4 0 0 1 4,-4 4,4 0 0 1 4,4 z m 0,-10 a 4,4 0 0 1 -4,4 4,4 0 0 1 -4,-4 4,4 0 0 1 4,-4 4,4 0 0 1 4,4 z m 40,20 a 4,4 0 0 1 -4,4 4,4 0 0 1 -4,-4 4,4 0 0 1 4,-4 4,4 0 0 1 4,4 z m 0,-10 a 4,4 0 0 1 -4,4 4,4 0 0 1 -4,-4 4,4 0 0 1 4,-4 4,4 0 0 1 4,4 z m 0,-20 a 4,4 0 0 1 -4,4 4,4 0 0 1 -4,-4 4,4 0 0 1 4,-4 4,4 0 0 1 4,4 z m 0,10 a 4,4 0 0 1 -4,4 4,4 0 0 1 -4,-4 4,4 0 0 1 4,-4 4,4 0 0 1 4,4 z m -40,20 a 4,4 0 0 1 -4,4 4,4 0 0 1 -4,-4 4,4 0 0 1 4,-4 4,4 0 0 1 4,4 z m 10,-20 a 4,4 0 0 1 -4,4 4,4 0 0 1 -4,-4 4,4 0 0 1 4,-4 4,4 0 0 1 4,4 z m 20,0 a 4,4 0 0 1 -4,4 4,4 0 0 1 -4,-4 4,4 0 0 1 4,-4 4,4 0 0 1 4,4 z m -10,20 a 4,4 0 0 1 -4,4 4,4 0 0 1 -4,-4 4,4 0 0 1 4,-4 4,4 0 0 1 4,4 z m 0,-10 a 4,4 0 0 1 -4,4 4,4 0 0 1 -4,-4 4,4 0 0 1 4,-4 4,4 0 0 1 4,4 z m -10,-30 a 4,4 0 0 1 -4,4 4,4 0 0 1 -4,-4 4,4 0 0 1 4,-4 4,4 0 0 1 4,4 z m 10,0 a 4,4 0 0 1 -4,4 4,4 0 0 1 -4,-4 4,4 0 0 1 4,-4 4,4 0 0 1 4,4 z m 20,0 a 4,4 0 0 1 -4,4 4,4 0 0 1 -4,-4 4,4 0 0 1 4,-4 4,4 0 0 1 4,4 z m -20,10 a 4,4 0 0 1 -4,4 4,4 0 0 1 -4,-4 4,4 0 0 1 4,-4 4,4 0 0 1 4,4 z" /><path
     id="lpe_path-effect2156"
     style="fill:#ffffff"
     class="powerclip"
     d="m 1467,-5 h 74 v 74.000006 h -74 z m 51,57 a 4,4 0 0 0 -4,-4 4,4 0 0 0 -4,4 4,4 0 0 0 4,4 4,4 0 0 0 4,-4 z m 0,-10 a 4,4 0 0 0 -4,-4 4,4 0 0 0 -4,4 4,4 0 0 0 4,4 4,4 0 0 0 4,-4 z m -30,-30 a 4,4 0 0 0 -4,-4 4,4 0 0 0 -4,4 4,4 0 0 0 4,4 4,4 0 0 0 4,-4 z m 0,10 a 4,4 0 0 0 -4,-4 4,4 0 0 0 -4,4 4,4 0 0 0 4,4 4,4 0 0 0 4,-4 z m 10,0 a 4,4 0 0 0 -4,-4 4,4 0 0 0 -4,4 4,4 0 0 0 4,4 4,4 0 0 0 4,-4 z m 0,30 a 4,4 0 0 0 -4,-4 4,4 0 0 0 -4,4 4,4 0 0 0 4,4 4,4 0 0 0 4,-4 z m 0,-10 a 4,4 0 0 0 -4,-4 4,4 0 0 0 -4,4 4,4 0 0 0 4,4 4,4 0 0 0 4,-4 z m 20,-30 a 4,4 0 0 0 -4,-4 4,4 0 0 0 -4,4 4,4 0 0 0 4,4 4,4 0 0 0 4,-4 z m 0,10 a 4,4 0 0 0 -4,-4 4,4 0 0 0 -4,4 4,4 0 0 0 4,4 4,4 0 0 0 4,-4 z m -30,20 a 4,4 0 0 0 -4,-4 4,4 0 0 0 -4,4 4,4 0 0 0 4,4 4,4 0 0 0 4,-4 z m 0,-10 a 4,4 0 0 0 -4,-4 4,4 0 0 0 -4,4 4,4 0 0 0 4,4 4,4 0 0 0 4,-4 z m 40,20 a 4,4 0 0 0 -4,-4 4,4 0 0 0 -4,4 4,4 0 0 0 4,4 4,4 0 0 0 4,-4 z m 0,-10 a 4,4 0 0 0 -4,-4 4,4 0 0 0 -4,4 4,4 0 0 0 4,4 4,4 0 0 0 4,-4 z m 0,-20 a 4,4 0 0 0 -4,-4 4,4 0 0 0 -4,4 4,4 0 0 0 4,4 4,4 0 0 0 4,-4 z m 0,10 a 4,4 0 0 0 -4,-4 4,4 0 0 0 -4,4 4,4 0 0 0 4,4 4,4 0 0 0 4,-4 z m -40,20 a 4,4 0 0 0 -4,-4 4,4 0 0 0 -4,4 4,4 0 0 0 4,4 4,4 0 0 0 4,-4 z m 10,-20 a 4,4 0 0 0 -4,-4 4,4 0 0 0 -4,4 4,4 0 0 0 4,4 4,4 0 0 0 4,-4 z m 20,0 a 4,4 0 0 0 -4,-4 4,4 0 0 0 -4,4 4,4 0 0 0 4,4 4,4 0 0 0 4,-4 z m -10,20 a 4,4 0 0 0 -4,-4 4,4 0 0 0 -4,4 4,4 0 0 0 4,4 4,4 0 0 0 4,-4 z m 0,-10 a 4,4 0 0 0 -4,-4 4,4 0 0 0 -4,4 4,4 0 0 0 4,4 4,4 0 0 0 4,-4 z m -10,-30 a 4,4 0 0 0 -4,-4 4,4 0 0 0 -4,4 4,4 0 0 0 4,4 4,4 0 0 0 4,-4 z m 10,0 a 4,4 0 0 0 -4,-4 4,4 0 0 0 -4,4 4,4 0 0 0 4,4 4,4 0 0 0 4,-4 z m 20,0 a 4,4 0 0 0 -4,-4 4,4 0 0 0 -4,4 4,4 0 0 0 4,4 4,4 0 0 0 4,-4 z m -20,10 a 4,4 0 0 0 -4,-4 4,4 0 0 0 -4,4 4,4 0 0 0 4,4 4,4 0 0 0 4,-4 z" /></clipPath><clipPath
   clipPathUnits="userSpaceOnUse"
   id="clipPath2160"><path
     id="path2162"
     style="display:none;fill:#ffffff"
     d="m 1454,52 a 4,4 0 0 1 -4,4 4,4 0 0 1 -4,-4 4,4 0 0 1 4,-4 4,4 0 0 1 4,4 z m 0,-10 a 4,4 0 0 1 -4,4 4,4 0 0 1 -4,-4 4,4 0 0 1 4,-4 4,4 0 0 1 4,4 z m -30,-30 a 4,4 0 0 1 -4,4 4,4 0 0 1 -4,-4 4,4 0 0 1 4,-4 4,4 0 0 1 4,4 z m 0,10 a 4,4 0 0 1 -4,4 4,4 0 0 1 -4,-4 4,4 0 0 1 4,-4 4,4 0 0 1 4,4 z m 10,0 a 4,4 0 0 1 -4,4 4,4 0 0 1 -4,-4 4,4 0 0 1 4,-4 4,4 0 0 1 4,4 z m 0,30 a 4,4 0 0 1 -4,4 4,4 0 0 1 -4,-4 4,4 0 0 1 4,-4 4,4 0 0 1 4,4 z m 0,-10 a 4,4 0 0 1 -4,4 4,4 0 0 1 -4,-4 4,4 0 0 1 4,-4 4,4 0 0 1 4,4 z m 20,-30 a 4,4 0 0 1 -4,4 4,4 0 0 1 -4,-4 4,4 0 0 1 4,-4 4,4 0 0 1 4,4 z m 0,10 a 4,4 0 0 1 -4,4 4,4 0 0 1 -4,-4 4,4 0 0 1 4,-4 4,4 0 0 1 4,4 z m -30,20 a 4,4 0 0 1 -4,4 4,4 0 0 1 -4,-4 4,4 0 0 1 4,-4 4,4 0 0 1 4,4 z m 0,-10 a 4,4 0 0 1 -4,4 4,4 0 0 1 -4,-4 4,4 0 0 1 4,-4 4,4 0 0 1 4,4 z m 40,20 a 4,4 0 0 1 -4,4 4,4 0 0 1 -4,-4 4,4 0 0 1 4,-4 4,4 0 0 1 4,4 z m 0,-10 a 4,4 0 0 1 -4,4 4,4 0 0 1 -4,-4 4,4 0 0 1 4,-4 4,4 0 0 1 4,4 z m 0,-20 a 4,4 0 0 1 -4,4 4,4 0 0 1 -4,-4 4,4 0 0 1 4,-4 4,4 0 0 1 4,4 z m 0,10 a 4,4 0 0 1 -4,4 4,4 0 0 1 -4,-4 4,4 0 0 1 4,-4 4,4 0 0 1 4,4 z m -30,0 a 4,4 0 0 1 -4,4 4,4 0 0 1 -4,-4 4,4 0 0 1 4,-4 4,4 0 0 1 4,4 z m 20,0 a 4,4 0 0 1 -4,4 4,4 0 0 1 -4,-4 4,4 0 0 1 4,-4 4,4 0 0 1 4,4 z m -10,20 a 4,4 0 0 1 -4,4 4,4 0 0 1 -4,-4 4,4 0 0 1 4,-4 4,4 0 0 1 4,4 z m 0,-10 a 4,4 0 0 1 -4,4 4,4 0 0 1 -4,-4 4,4 0 0 1 4,-4 4,4 0 0 1 4,4 z m -10,-30 a 4,4 0 0 1 -4,4 4,4 0 0 1 -4,-4 4,4 0 0 1 4,-4 4,4 0 0 1 4,4 z m 10,0 a 4,4 0 0 1 -4,4 4,4 0 0 1 -4,-4 4,4 0 0 1 4,-4 4,4 0 0 1 4,4 z m 0,20 a 4,4 0 0 1 -4,4 4,4 0 0 1 -4,-4 4,4 0 0 1 4,-4 4,4 0 0 1 4,4 z m 0,-10 a 4,4 0 0 1 -4,4 4,4 0 0 1 -4,-4 4,4 0 0 1 4,-4 4,4 0 0 1 4,4 z" /><path
     id="lpe_path-effect2164"
     style="fill:#ffffff"
     class="powerclip"
     d="m 1403,-5 h 74 v 74.000006 h -74 z m 51,57 a 4,4 0 0 0 -4,-4 4,4 0 0 0 -4,4 4,4 0 0 0 4,4 4,4 0 0 0 4,-4 z m 0,-10 a 4,4 0 0 0 -4,-4 4,4 0 0 0 -4,4 4,4 0 0 0 4,4 4,4 0 0 0 4,-4 z m -30,-30 a 4,4 0 0 0 -4,-4 4,4 0 0 0 -4,4 4,4 0 0 0 4,4 4,4 0 0 0 4,-4 z m 0,10 a 4,4 0 0 0 -4,-4 4,4 0 0 0 -4,4 4,4 0 0 0 4,4 4,4 0 0 0 4,-4 z m 10,0 a 4,4 0 0 0 -4,-4 4,4 0 0 0 -4,4 4,4 0 0 0 4,4 4,4 0 0 0 4,-4 z m 0,30 a 4,4 0 0 0 -4,-4 4,4 0 0 0 -4,4 4,4 0 0 0 4,4 4,4 0 0 0 4,-4 z m 0,-10 a 4,4 0 0 0 -4,-4 4,4 0 0 0 -4,4 4,4 0 0 0 4,4 4,4 0 0 0 4,-4 z m 20,-30 a 4,4 0 0 0 -4,-4 4,4 0 0 0 -4,4 4,4 0 0 0 4,4 4,4 0 0 0 4,-4 z m 0,10 a 4,4 0 0 0 -4,-4 4,4 0 0 0 -4,4 4,4 0 0 0 4,4 4,4 0 0 0 4,-4 z m -30,20 a 4,4 0 0 0 -4,-4 4,4 0 0 0 -4,4 4,4 0 0 0 4,4 4,4 0 0 0 4,-4 z m 0,-10 a 4,4 0 0 0 -4,-4 4,4 0 0 0 -4,4 4,4 0 0 0 4,4 4,4 0 0 0 4,-4 z m 40,20 a 4,4 0 0 0 -4,-4 4,4 0 0 0 -4,4 4,4 0 0 0 4,4 4,4 0 0 0 4,-4 z m 0,-10 a 4,4 0 0 0 -4,-4 4,4 0 0 0 -4,4 4,4 0 0 0 4,4 4,4 0 0 0 4,-4 z m 0,-20 a 4,4 0 0 0 -4,-4 4,4 0 0 0 -4,4 4,4 0 0 0 4,4 4,4 0 0 0 4,-4 z m 0,10 a 4,4 0 0 0 -4,-4 4,4 0 0 0 -4,4 4,4 0 0 0 4,4 4,4 0 0 0 4,-4 z m -30,0 a 4,4 0 0 0 -4,-4 4,4 0 0 0 -4,4 4,4 0 0 0 4,4 4,4 0 0 0 4,-4 z m 20,0 a 4,4 0 0 0 -4,-4 4,4 0 0 0 -4,4 4,4 0 0 0 4,4 4,4 0 0 0 4,-4 z m -10,20 a 4,4 0 0 0 -4,-4 4,4 0 0 0 -4,4 4,4 0 0 0 4,4 4,4 0 0 0 4,-4 z m 0,-10 a 4,4 0 0 0 -4,-4 4,4 0 0 0 -4,4 4,4 0 0 0 4,4 4,4 0 0 0 4,-4 z m -10,-30 a 4,4 0 0 0 -4,-4 4,4 0 0 0 -4,4 4,4 0 0 0 4,4 4,4 0 0 0 4,-4 z m 10,0 a 4,4 0 0 0 -4,-4 4,4 0 0 0 -4,4 4,4 0 0 0 4,4 4,4 0 0 0 4,-4 z m 0,20 a 4,4 0 0 0 -4,-4 4,4 0 0 0 -4,4 4,4 0 0 0 4,4 4,4 0 0 0 4,-4 z m 0,-10 a 4,4 0 0 0 -4,-4 4,4 0 0 0 -4,4 4,4 0 0 0 4,4 4,4 0 0 0 4,-4 z" /></clipPath><clipPath
   clipPathUnits="userSpaceOnUse"
   id="clipPath2168"><path
     id="path2170"
     style="display:none;fill:#ffffff"
     d="m 1390,52 a 4,4 0 0 1 -4,4 4,4 0 0 1 -4,-4 4,4 0 0 1 4,-4 4,4 0 0 1 4,4 z m 0,-10 a 4,4 0 0 1 -4,4 4,4 0 0 1 -4,-4 4,4 0 0 1 4,-4 4,4 0 0 1 4,4 z m -30,-30 a 4,4 0 0 1 -4,4 4,4 0 0 1 -4,-4 4,4 0 0 1 4,-4 4,4 0 0 1 4,4 z m 0,10 a 4,4 0 0 1 -4,4 4,4 0 0 1 -4,-4 4,4 0 0 1 4,-4 4,4 0 0 1 4,4 z m 10,0 a 4,4 0 0 1 -4,4 4,4 0 0 1 -4,-4 4,4 0 0 1 4,-4 4,4 0 0 1 4,4 z m 0,30 a 4,4 0 0 1 -4,4 4,4 0 0 1 -4,-4 4,4 0 0 1 4,-4 4,4 0 0 1 4,4 z m 0,-10 a 4,4 0 0 1 -4,4 4,4 0 0 1 -4,-4 4,4 0 0 1 4,-4 4,4 0 0 1 4,4 z m 20,-30 a 4,4 0 0 1 -4,4 4,4 0 0 1 -4,-4 4,4 0 0 1 4,-4 4,4 0 0 1 4,4 z m 0,10 a 4,4 0 0 1 -4,4 4,4 0 0 1 -4,-4 4,4 0 0 1 4,-4 4,4 0 0 1 4,4 z m -30,20 a 4,4 0 0 1 -4,4 4,4 0 0 1 -4,-4 4,4 0 0 1 4,-4 4,4 0 0 1 4,4 z m 0,-10 a 4,4 0 0 1 -4,4 4,4 0 0 1 -4,-4 4,4 0 0 1 4,-4 4,4 0 0 1 4,4 z m 40,20 a 4,4 0 0 1 -4,4 4,4 0 0 1 -4,-4 4,4 0 0 1 4,-4 4,4 0 0 1 4,4 z m 0,-10 a 4,4 0 0 1 -4,4 4,4 0 0 1 -4,-4 4,4 0 0 1 4,-4 4,4 0 0 1 4,4 z m 0,-20 a 4,4 0 0 1 -4,4 4,4 0 0 1 -4,-4 4,4 0 0 1 4,-4 4,4 0 0 1 4,4 z m 0,10 a 4,4 0 0 1 -4,4 4,4 0 0 1 -4,-4 4,4 0 0 1 4,-4 4,4 0 0 1 4,4 z m -30,0 a 4,4 0 0 1 -4,4 4,4 0 0 1 -4,-4 4,4 0 0 1 4,-4 4,4 0 0 1 4,4 z m 20,0 a 4,4 0 0 1 -4,4 4,4 0 0 1 -4,-4 4,4 0 0 1 4,-4 4,4 0 0 1 4,4 z m -10,20 a 4,4 0 0 1 -4,4 4,4 0 0 1 -4,-4 4,4 0 0 1 4,-4 4,4 0 0 1 4,4 z m 0,-10 a 4,4 0 0 1 -4,4 4,4 0 0 1 -4,-4 4,4 0 0 1 4,-4 4,4 0 0 1 4,4 z m -10,-30 a 4,4 0 0 1 -4,4 4,4 0 0 1 -4,-4 4,4 0 0 1 4,-4 4,4 0 0 1 4,4 z m 10,0 a 4,4 0 0 1 -4,4 4,4 0 0 1 -4,-4 4,4 0 0 1 4,-4 4,4 0 0 1 4,4 z m 0,10 a 4,4 0 0 1 -4,4 4,4 0 0 1 -4,-4 4,4 0 0 1 4,-4 4,4 0 0 1 4,4 z" /><path
     id="lpe_path-effect2172"
     style="fill:#ffffff"
     class="powerclip"
     d="m 1339,-5 h 74 v 74.000006 h -74 z m 51,57 a 4,4 0 0 0 -4,-4 4,4 0 0 0 -4,4 4,4 0 0 0 4,4 4,4 0 0 0 4,-4 z m 0,-10 a 4,4 0 0 0 -4,-4 4,4 0 0 0 -4,4 4,4 0 0 0 4,4 4,4 0 0 0 4,-4 z m -30,-30 a 4,4 0 0 0 -4,-4 4,4 0 0 0 -4,4 4,4 0 0 0 4,4 4,4 0 0 0 4,-4 z m 0,10 a 4,4 0 0 0 -4,-4 4,4 0 0 0 -4,4 4,4 0 0 0 4,4 4,4 0 0 0 4,-4 z m 10,0 a 4,4 0 0 0 -4,-4 4,4 0 0 0 -4,4 4,4 0 0 0 4,4 4,4 0 0 0 4,-4 z m 0,30 a 4,4 0 0 0 -4,-4 4,4 0 0 0 -4,4 4,4 0 0 0 4,4 4,4 0 0 0 4,-4 z m 0,-10 a 4,4 0 0 0 -4,-4 4,4 0 0 0 -4,4 4,4 0 0 0 4,4 4,4 0 0 0 4,-4 z m 20,-30 a 4,4 0 0 0 -4,-4 4,4 0 0 0 -4,4 4,4 0 0 0 4,4 4,4 0 0 0 4,-4 z m 0,10 a 4,4 0 0 0 -4,-4 4,4 0 0 0 -4,4 4,4 0 0 0 4,4 4,4 0 0 0 4,-4 z m -30,20 a 4,4 0 0 0 -4,-4 4,4 0 0 0 -4,4 4,4 0 0 0 4,4 4,4 0 0 0 4,-4 z m 0,-10 a 4,4 0 0 0 -4,-4 4,4 0 0 0 -4,4 4,4 0 0 0 4,4 4,4 0 0 0 4,-4 z m 40,20 a 4,4 0 0 0 -4,-4 4,4 0 0 0 -4,4 4,4 0 0 0 4,4 4,4 0 0 0 4,-4 z m 0,-10 a 4,4 0 0 0 -4,-4 4,4 0 0 0 -4,4 4,4 0 0 0 4,4 4,4 0 0 0 4,-4 z m 0,-20 a 4,4 0 0 0 -4,-4 4,4 0 0 0 -4,4 4,4 0 0 0 4,4 4,4 0 0 0 4,-4 z m 0,10 a 4,4 0 0 0 -4,-4 4,4 0 0 0 -4,4 4,4 0 0 0 4,4 4,4 0 0 0 4,-4 z m -30,0 a 4,4 0 0 0 -4,-4 4,4 0 0 0 -4,4 4,4 0 0 0 4,4 4,4 0 0 0 4,-4 z m 20,0 a 4,4 0 0 0 -4,-4 4,4 0 0 0 -4,4 4,4 0 0 0 4,4 4,4 0 0 0 4,-4 z m -10,20 a 4,4 0 0 0 -4,-4 4,4 0 0 0 -4,4 4,4 0 0 0 4,4 4,4 0 0 0 4,-4 z m 0,-10 a 4,4 0 0 0 -4,-4 4,4 0 0 0 -4,4 4,4 0 0 0 4,4 4,4 0 0 0 4,-4 z m -10,-30 a 4,4 0 0 0 -4,-4 4,4 0 0 0 -4,4 4,4 0 0 0 4,4 4,4 0 0 0 4,-4 z m 10,0 a 4,4 0 0 0 -4,-4 4,4 0 0 0 -4,4 4,4 0 0 0 4,4 4,4 0 0 0 4,-4 z m 0,10 a 4,4 0 0 0 -4,-4 4,4 0 0 0 -4,4 4,4 0 0 0 4,4 4,4 0 0 0 4,-4 z" /></clipPath><clipPath
   clipPathUnits="userSpaceOnUse"
   id="clipPath2176"><path
     id="path2178"
     style="display:none;fill:#ffffff"
     d="m 1326,52 a 4,4 0 0 1 -4,4 4,4 0 0 1 -4,-4 4,4 0 0 1 4,-4 4,4 0 0 1 4,4 z m 0,-10 a 4,4 0 0 1 -4,4 4,4 0 0 1 -4,-4 4,4 0 0 1 4,-4 4,4 0 0 1 4,4 z m -30,-20 a 4,4 0 0 1 -4,4 4,4 0 0 1 -4,-4 4,4 0 0 1 4,-4 4,4 0 0 1 4,4 z m 10,0 a 4,4 0 0 1 -4,4 4,4 0 0 1 -4,-4 4,4 0 0 1 4,-4 4,4 0 0 1 4,4 z m 0,30 a 4,4 0 0 1 -4,4 4,4 0 0 1 -4,-4 4,4 0 0 1 4,-4 4,4 0 0 1 4,4 z m 0,-10 a 4,4 0 0 1 -4,4 4,4 0 0 1 -4,-4 4,4 0 0 1 4,-4 4,4 0 0 1 4,4 z m 20,-30 a 4,4 0 0 1 -4,4 4,4 0 0 1 -4,-4 4,4 0 0 1 4,-4 4,4 0 0 1 4,4 z m 0,10 a 4,4 0 0 1 -4,4 4,4 0 0 1 -4,-4 4,4 0 0 1 4,-4 4,4 0 0 1 4,4 z m -30,20 a 4,4 0 0 1 -4,4 4,4 0 0 1 -4,-4 4,4 0 0 1 4,-4 4,4 0 0 1 4,4 z m 0,-10 a 4,4 0 0 1 -4,4 4,4 0 0 1 -4,-4 4,4 0 0 1 4,-4 4,4 0 0 1 4,4 z m 40,10 a 4,4 0 0 1 -4,4 4,4 0 0 1 -4,-4 4,4 0 0 1 4,-4 4,4 0 0 1 4,4 z m 0,-20 a 4,4 0 0 1 -4,4 4,4 0 0 1 -4,-4 4,4 0 0 1 4,-4 4,4 0 0 1 4,4 z m 0,10 a 4,4 0 0 1 -4,4 4,4 0 0 1 -4,-4 4,4 0 0 1 4,-4 4,4 0 0 1 4,4 z m -30,0 a 4,4 0 0 1 -4,4 4,4 0 0 1 -4,-4 4,4 0 0 1 4,-4 4,4 0 0 1 4,4 z m 20,0 a 4,4 0 0 1 -4,4 4,4 0 0 1 -4,-4 4,4 0 0 1 4,-4 4,4 0 0 1 4,4 z m -10,20 a 4,4 0 0 1 -4,4 4,4 0 0 1 -4,-4 4,4 0 0 1 4,-4 4,4 0 0 1 4,4 z m 0,-10 a 4,4 0 0 1 -4,4 4,4 0 0 1 -4,-4 4,4 0 0 1 4,-4 4,4 0 0 1 4,4 z m -10,-30 a 4,4 0 0 1 -4,4 4,4 0 0 1 -4,-4 4,4 0 0 1 4,-4 4,4 0 0 1 4,4 z m 10,0 a 4,4 0 0 1 -4,4 4,4 0 0 1 -4,-4 4,4 0 0 1 4,-4 4,4 0 0 1 4,4 z m 0,20 a 4,4 0 0 1 -4,4 4,4 0 0 1 -4,-4 4,4 0 0 1 4,-4 4,4 0 0 1 4,4 z m 0,-10 a 4,4 0 0 1 -4,4 4,4 0 0 1 -4,-4 4,4 0 0 1 4,-4 4,4 0 0 1 4,4 z" /><path
     id="lpe_path-effect2180"
     style="fill:#ffffff"
     class="powerclip"
     d="m 1275,-5 h 74 v 74.000006 h -74 z m 51,57 a 4,4 0 0 0 -4,-4 4,4 0 0 0 -4,4 4,4 0 0 0 4,4 4,4 0 0 0 4,-4 z m 0,-10 a 4,4 0 0 0 -4,-4 4,4 0 0 0 -4,4 4,4 0 0 0 4,4 4,4 0 0 0 4,-4 z m -30,-20 a 4,4 0 0 0 -4,-4 4,4 0 0 0 -4,4 4,4 0 0 0 4,4 4,4 0 0 0 4,-4 z m 10,0 a 4,4 0 0 0 -4,-4 4,4 0 0 0 -4,4 4,4 0 0 0 4,4 4,4 0 0 0 4,-4 z m 0,30 a 4,4 0 0 0 -4,-4 4,4 0 0 0 -4,4 4,4 0 0 0 4,4 4,4 0 0 0 4,-4 z m 0,-10 a 4,4 0 0 0 -4,-4 4,4 0 0 0 -4,4 4,4 0 0 0 4,4 4,4 0 0 0 4,-4 z m 20,-30 a 4,4 0 0 0 -4,-4 4,4 0 0 0 -4,4 4,4 0 0 0 4,4 4,4 0 0 0 4,-4 z m 0,10 a 4,4 0 0 0 -4,-4 4,4 0 0 0 -4,4 4,4 0 0 0 4,4 4,4 0 0 0 4,-4 z m -30,20 a 4,4 0 0 0 -4,-4 4,4 0 0 0 -4,4 4,4 0 0 0 4,4 4,4 0 0 0 4,-4 z m 0,-10 a 4,4 0 0 0 -4,-4 4,4 0 0 0 -4,4 4,4 0 0 0 4,4 4,4 0 0 0 4,-4 z m 40,10 a 4,4 0 0 0 -4,-4 4,4 0 0 0 -4,4 4,4 0 0 0 4,4 4,4 0 0 0 4,-4 z m 0,-20 a 4,4 0 0 0 -4,-4 4,4 0 0 0 -4,4 4,4 0 0 0 4,4 4,4 0 0 0 4,-4 z m 0,10 a 4,4 0 0 0 -4,-4 4,4 0 0 0 -4,4 4,4 0 0 0 4,4 4,4 0 0 0 4,-4 z m -30,0 a 4,4 0 0 0 -4,-4 4,4 0 0 0 -4,4 4,4 0 0 0 4,4 4,4 0 0 0 4,-4 z m 20,0 a 4,4 0 0 0 -4,-4 4,4 0 0 0 -4,4 4,4 0 0 0 4,4 4,4 0 0 0 4,-4 z m -10,20 a 4,4 0 0 0 -4,-4 4,4 0 0 0 -4,4 4,4 0 0 0 4,4 4,4 0 0 0 4,-4 z m 0,-10 a 4,4 0 0 0 -4,-4 4,4 0 0 0 -4,4 4,4 0 0 0 4,4 4,4 0 0 0 4,-4 z m -10,-30 a 4,4 0 0 0 -4,-4 4,4 0 0 0 -4,4 4,4 0 0 0 4,4 4,4 0 0 0 4,-4 z m 10,0 a 4,4 0 0 0 -4,-4 4,4 0 0 0 -4,4 4,4 0 0 0 4,4 4,4 0 0 0 4,-4 z m 0,20 a 4,4 0 0 0 -4,-4 4,4 0 0 0 -4,4 4,4 0 0 0 4,4 4,4 0 0 0 4,-4 z m 0,-10 a 4,4 0 0 0 -4,-4 4,4 0 0 0 -4,4 4,4 0 0 0 4,4 4,4 0 0 0 4,-4 z" /></clipPath><clipPath
   clipPathUnits="userSpaceOnUse"
   id="clipPath2184"><path
     id="path2186"
     style="display:none;fill:#ffffff"
     d="m 1262,52 a 4,4 0 0 1 -4,4 4,4 0 0 1 -4,-4 4,4 0 0 1 4,-4 4,4 0 0 1 4,4 z m 0,-10 a 4,4 0 0 1 -4,4 4,4 0 0 1 -4,-4 4,4 0 0 1 4,-4 4,4 0 0 1 4,4 z m -30,-20 a 4,4 0 0 1 -4,4 4,4 0 0 1 -4,-4 4,4 0 0 1 4,-4 4,4 0 0 1 4,4 z m 10,0 a 4,4 0 0 1 -4,4 4,4 0 0 1 -4,-4 4,4 0 0 1 4,-4 4,4 0 0 1 4,4 z m 0,30 a 4,4 0 0 1 -4,4 4,4 0 0 1 -4,-4 4,4 0 0 1 4,-4 4,4 0 0 1 4,4 z m 0,-10 a 4,4 0 0 1 -4,4 4,4 0 0 1 -4,-4 4,4 0 0 1 4,-4 4,4 0 0 1 4,4 z m 20,-30 a 4,4 0 0 1 -4,4 4,4 0 0 1 -4,-4 4,4 0 0 1 4,-4 4,4 0 0 1 4,4 z m 0,10 a 4,4 0 0 1 -4,4 4,4 0 0 1 -4,-4 4,4 0 0 1 4,-4 4,4 0 0 1 4,4 z m -30,20 a 4,4 0 0 1 -4,4 4,4 0 0 1 -4,-4 4,4 0 0 1 4,-4 4,4 0 0 1 4,4 z m 0,-10 a 4,4 0 0 1 -4,4 4,4 0 0 1 -4,-4 4,4 0 0 1 4,-4 4,4 0 0 1 4,4 z m 40,10 a 4,4 0 0 1 -4,4 4,4 0 0 1 -4,-4 4,4 0 0 1 4,-4 4,4 0 0 1 4,4 z m 0,-20 a 4,4 0 0 1 -4,4 4,4 0 0 1 -4,-4 4,4 0 0 1 4,-4 4,4 0 0 1 4,4 z m 0,10 a 4,4 0 0 1 -4,4 4,4 0 0 1 -4,-4 4,4 0 0 1 4,-4 4,4 0 0 1 4,4 z m -30,0 a 4,4 0 0 1 -4,4 4,4 0 0 1 -4,-4 4,4 0 0 1 4,-4 4,4 0 0 1 4,4 z m 20,0 a 4,4 0 0 1 -4,4 4,4 0 0 1 -4,-4 4,4 0 0 1 4,-4 4,4 0 0 1 4,4 z m -10,20 a 4,4 0 0 1 -4,4 4,4 0 0 1 -4,-4 4,4 0 0 1 4,-4 4,4 0 0 1 4,4 z m 0,-10 a 4,4 0 0 1 -4,4 4,4 0 0 1 -4,-4 4,4 0 0 1 4,-4 4,4 0 0 1 4,4 z m -10,-30 a 4,4 0 0 1 -4,4 4,4 0 0 1 -4,-4 4,4 0 0 1 4,-4 4,4 0 0 1 4,4 z m 10,0 a 4,4 0 0 1 -4,4 4,4 0 0 1 -4,-4 4,4 0 0 1 4,-4 4,4 0 0 1 4,4 z m 0,10 a 4,4 0 0 1 -4,4 4,4 0 0 1 -4,-4 4,4 0 0 1 4,-4 4,4 0 0 1 4,4 z" /><path
     id="lpe_path-effect2188"
     style="fill:#ffffff"
     class="powerclip"
     d="m 1211,-5 h 74 v 74.000006 h -74 z m 51,57 a 4,4 0 0 0 -4,-4 4,4 0 0 0 -4,4 4,4 0 0 0 4,4 4,4 0 0 0 4,-4 z m 0,-10 a 4,4 0 0 0 -4,-4 4,4 0 0 0 -4,4 4,4 0 0 0 4,4 4,4 0 0 0 4,-4 z m -30,-20 a 4,4 0 0 0 -4,-4 4,4 0 0 0 -4,4 4,4 0 0 0 4,4 4,4 0 0 0 4,-4 z m 10,0 a 4,4 0 0 0 -4,-4 4,4 0 0 0 -4,4 4,4 0 0 0 4,4 4,4 0 0 0 4,-4 z m 0,30 a 4,4 0 0 0 -4,-4 4,4 0 0 0 -4,4 4,4 0 0 0 4,4 4,4 0 0 0 4,-4 z m 0,-10 a 4,4 0 0 0 -4,-4 4,4 0 0 0 -4,4 4,4 0 0 0 4,4 4,4 0 0 0 4,-4 z m 20,-30 a 4,4 0 0 0 -4,-4 4,4 0 0 0 -4,4 4,4 0 0 0 4,4 4,4 0 0 0 4,-4 z m 0,10 a 4,4 0 0 0 -4,-4 4,4 0 0 0 -4,4 4,4 0 0 0 4,4 4,4 0 0 0 4,-4 z m -30,20 a 4,4 0 0 0 -4,-4 4,4 0 0 0 -4,4 4,4 0 0 0 4,4 4,4 0 0 0 4,-4 z m 0,-10 a 4,4 0 0 0 -4,-4 4,4 0 0 0 -4,4 4,4 0 0 0 4,4 4,4 0 0 0 4,-4 z m 40,10 a 4,4 0 0 0 -4,-4 4,4 0 0 0 -4,4 4,4 0 0 0 4,4 4,4 0 0 0 4,-4 z m 0,-20 a 4,4 0 0 0 -4,-4 4,4 0 0 0 -4,4 4,4 0 0 0 4,4 4,4 0 0 0 4,-4 z m 0,10 a 4,4 0 0 0 -4,-4 4,4 0 0 0 -4,4 4,4 0 0 0 4,4 4,4 0 0 0 4,-4 z m -30,0 a 4,4 0 0 0 -4,-4 4,4 0 0 0 -4,4 4,4 0 0 0 4,4 4,4 0 0 0 4,-4 z m 20,0 a 4,4 0 0 0 -4,-4 4,4 0 0 0 -4,4 4,4 0 0 0 4,4 4,4 0 0 0 4,-4 z m -10,20 a 4,4 0 0 0 -4,-4 4,4 0 0 0 -4,4 4,4 0 0 0 4,4 4,4 0 0 0 4,-4 z m 0,-10 a 4,4 0 0 0 -4,-4 4,4 0 0 0 -4,4 4,4 0 0 0 4,4 4,4 0 0 0 4,-4 z m -10,-30 a 4,4 0 0 0 -4,-4 4,4 0 0 0 -4,4 4,4 0 0 0 4,4 4,4 0 0 0 4,-4 z m 10,0 a 4,4 0 0 0 -4,-4 4,4 0 0 0 -4,4 4,4 0 0 0 4,4 4,4 0 0 0 4,-4 z m 0,10 a 4,4 0 0 0 -4,-4 4,4 0 0 0 -4,4 4,4 0 0 0 4,4 4,4 0 0 0 4,-4 z" /></clipPath><clipPath
   clipPathUnits="userSpaceOnUse"
   id="clipPath2192"><path
     id="path2194"
     style="display:none;fill:#ffffff"
     d="m 1198,52 a 4,4 0 0 1 -4,4 4,4 0 0 1 -4,-4 4,4 0 0 1 4,-4 4,4 0 0 1 4,4 z m 0,-10 a 4,4 0 0 1 -4,4 4,4 0 0 1 -4,-4 4,4 0 0 1 4,-4 4,4 0 0 1 4,4 z m -30,-20 a 4,4 0 0 1 -4,4 4,4 0 0 1 -4,-4 4,4 0 0 1 4,-4 4,4 0 0 1 4,4 z m 10,0 a 4,4 0 0 1 -4,4 4,4 0 0 1 -4,-4 4,4 0 0 1 4,-4 4,4 0 0 1 4,4 z m 0,30 a 4,4 0 0 1 -4,4 4,4 0 0 1 -4,-4 4,4 0 0 1 4,-4 4,4 0 0 1 4,4 z m 0,-10 a 4,4 0 0 1 -4,4 4,4 0 0 1 -4,-4 4,4 0 0 1 4,-4 4,4 0 0 1 4,4 z m 20,-30 a 4,4 0 0 1 -4,4 4,4 0 0 1 -4,-4 4,4 0 0 1 4,-4 4,4 0 0 1 4,4 z m 0,10 a 4,4 0 0 1 -4,4 4,4 0 0 1 -4,-4 4,4 0 0 1 4,-4 4,4 0 0 1 4,4 z m -30,10 a 4,4 0 0 1 -4,4 4,4 0 0 1 -4,-4 4,4 0 0 1 4,-4 4,4 0 0 1 4,4 z m 40,10 a 4,4 0 0 1 -4,4 4,4 0 0 1 -4,-4 4,4 0 0 1 4,-4 4,4 0 0 1 4,4 z m 0,-10 a 4,4 0 0 1 -4,4 4,4 0 0 1 -4,-4 4,4 0 0 1 4,-4 4,4 0 0 1 4,4 z m -30,0 a 4,4 0 0 1 -4,4 4,4 0 0 1 -4,-4 4,4 0 0 1 4,-4 4,4 0 0 1 4,4 z m 20,0 a 4,4 0 0 1 -4,4 4,4 0 0 1 -4,-4 4,4 0 0 1 4,-4 4,4 0 0 1 4,4 z m -10,20 a 4,4 0 0 1 -4,4 4,4 0 0 1 -4,-4 4,4 0 0 1 4,-4 4,4 0 0 1 4,4 z m 0,-10 a 4,4 0 0 1 -4,4 4,4 0 0 1 -4,-4 4,4 0 0 1 4,-4 4,4 0 0 1 4,4 z m -10,-30 a 4,4 0 0 1 -4,4 4,4 0 0 1 -4,-4 4,4 0 0 1 4,-4 4,4 0 0 1 4,4 z m 10,0 a 4,4 0 0 1 -4,4 4,4 0 0 1 -4,-4 4,4 0 0 1 4,-4 4,4 0 0 1 4,4 z m 0,20 a 4,4 0 0 1 -4,4 4,4 0 0 1 -4,-4 4,4 0 0 1 4,-4 4,4 0 0 1 4,4 z m 0,-10 a 4,4 0 0 1 -4,4 4,4 0 0 1 -4,-4 4,4 0 0 1 4,-4 4,4 0 0 1 4,4 z" /><path
     id="lpe_path-effect2196"
     style="fill:#ffffff"
     class="powerclip"
     d="m 1147,-5 h 74 v 74.000006 h -74 z m 51,57 a 4,4 0 0 0 -4,-4 4,4 0 0 0 -4,4 4,4 0 0 0 4,4 4,4 0 0 0 4,-4 z m 0,-10 a 4,4 0 0 0 -4,-4 4,4 0 0 0 -4,4 4,4 0 0 0 4,4 4,4 0 0 0 4,-4 z m -30,-20 a 4,4 0 0 0 -4,-4 4,4 0 0 0 -4,4 4,4 0 0 0 4,4 4,4 0 0 0 4,-4 z m 10,0 a 4,4 0 0 0 -4,-4 4,4 0 0 0 -4,4 4,4 0 0 0 4,4 4,4 0 0 0 4,-4 z m 0,30 a 4,4 0 0 0 -4,-4 4,4 0 0 0 -4,4 4,4 0 0 0 4,4 4,4 0 0 0 4,-4 z m 0,-10 a 4,4 0 0 0 -4,-4 4,4 0 0 0 -4,4 4,4 0 0 0 4,4 4,4 0 0 0 4,-4 z m 20,-30 a 4,4 0 0 0 -4,-4 4,4 0 0 0 -4,4 4,4 0 0 0 4,4 4,4 0 0 0 4,-4 z m 0,10 a 4,4 0 0 0 -4,-4 4,4 0 0 0 -4,4 4,4 0 0 0 4,4 4,4 0 0 0 4,-4 z m -30,10 a 4,4 0 0 0 -4,-4 4,4 0 0 0 -4,4 4,4 0 0 0 4,4 4,4 0 0 0 4,-4 z m 40,10 a 4,4 0 0 0 -4,-4 4,4 0 0 0 -4,4 4,4 0 0 0 4,4 4,4 0 0 0 4,-4 z m 0,-10 a 4,4 0 0 0 -4,-4 4,4 0 0 0 -4,4 4,4 0 0 0 4,4 4,4 0 0 0 4,-4 z m -30,0 a 4,4 0 0 0 -4,-4 4,4 0 0 0 -4,4 4,4 0 0 0 4,4 4,4 0 0 0 4,-4 z m 20,0 a 4,4 0 0 0 -4,-4 4,4 0 0 0 -4,4 4,4 0 0 0 4,4 4,4 0 0 0 4,-4 z m -10,20 a 4,4 0 0 0 -4,-4 4,4 0 0 0 -4,4 4,4 0 0 0 4,4 4,4 0 0 0 4,-4 z m 0,-10 a 4,4 0 0 0 -4,-4 4,4 0 0 0 -4,4 4,4 0 0 0 4,4 4,4 0 0 0 4,-4 z m -10,-30 a 4,4 0 0 0 -4,-4 4,4 0 0 0 -4,4 4,4 0 0 0 4,4 4,4 0 0 0 4,-4 z m 10,0 a 4,4 0 0 0 -4,-4 4,4 0 0 0 -4,4 4,4 0 0 0 4,4 4,4 0 0 0 4,-4 z m 0,20 a 4,4 0 0 0 -4,-4 4,4 0 0 0 -4,4 4,4 0 0 0 4,4 4,4 0 0 0 4,-4 z m 0,-10 a 4,4 0 0 0 -4,-4 4,4 0 0 0 -4,4 4,4 0 0 0 4,4 4,4 0 0 0 4,-4 z" /></clipPath><clipPath
   clipPathUnits="userSpaceOnUse"
   id="clipPath2200"><path
     id="path2202"
     style="display:none;fill:#ffffff"
     d="m 1134,52 a 4,4 0 0 1 -4,4 4,4 0 0 1 -4,-4 4,4 0 0 1 4,-4 4,4 0 0 1 4,4 z m 0,-10 a 4,4 0 0 1 -4,4 4,4 0 0 1 -4,-4 4,4 0 0 1 4,-4 4,4 0 0 1 4,4 z m -30,-20 a 4,4 0 0 1 -4,4 4,4 0 0 1 -4,-4 4,4 0 0 1 4,-4 4,4 0 0 1 4,4 z m 10,0 a 4,4 0 0 1 -4,4 4,4 0 0 1 -4,-4 4,4 0 0 1 4,-4 4,4 0 0 1 4,4 z m 0,30 a 4,4 0 0 1 -4,4 4,4 0 0 1 -4,-4 4,4 0 0 1 4,-4 4,4 0 0 1 4,4 z m 0,-10 a 4,4 0 0 1 -4,4 4,4 0 0 1 -4,-4 4,4 0 0 1 4,-4 4,4 0 0 1 4,4 z m 20,-30 a 4,4 0 0 1 -4,4 4,4 0 0 1 -4,-4 4,4 0 0 1 4,-4 4,4 0 0 1 4,4 z m 0,10 a 4,4 0 0 1 -4,4 4,4 0 0 1 -4,-4 4,4 0 0 1 4,-4 4,4 0 0 1 4,4 z m -30,10 a 4,4 0 0 1 -4,4 4,4 0 0 1 -4,-4 4,4 0 0 1 4,-4 4,4 0 0 1 4,4 z m 40,10 a 4,4 0 0 1 -4,4 4,4 0 0 1 -4,-4 4,4 0 0 1 4,-4 4,4 0 0 1 4,4 z m 0,-10 a 4,4 0 0 1 -4,4 4,4 0 0 1 -4,-4 4,4 0 0 1 4,-4 4,4 0 0 1 4,4 z m -30,0 a 4,4 0 0 1 -4,4 4,4 0 0 1 -4,-4 4,4 0 0 1 4,-4 4,4 0 0 1 4,4 z m 20,0 a 4,4 0 0 1 -4,4 4,4 0 0 1 -4,-4 4,4 0 0 1 4,-4 4,4 0 0 1 4,4 z m -10,20 a 4,4 0 0 1 -4,4 4,4 0 0 1 -4,-4 4,4 0 0 1 4,-4 4,4 0 0 1 4,4 z m 0,-10 a 4,4 0 0 1 -4,4 4,4 0 0 1 -4,-4 4,4 0 0 1 4,-4 4,4 0 0 1 4,4 z m -10,-30 a 4,4 0 0 1 -4,4 4,4 0 0 1 -4,-4 4,4 0 0 1 4,-4 4,4 0 0 1 4,4 z m 10,0 a 4,4 0 0 1 -4,4 4,4 0 0 1 -4,-4 4,4 0 0 1 4,-4 4,4 0 0 1 4,4 z m 0,10 a 4,4 0 0 1 -4,4 4,4 0 0 1 -4,-4 4,4 0 0 1 4,-4 4,4 0 0 1 4,4 z" /><path
     id="lpe_path-effect2204"
     style="fill:#ffffff"
     class="powerclip"
     d="m 1083,-5 h 74 v 74.000006 h -74 z m 51,57 a 4,4 0 0 0 -4,-4 4,4 0 0 0 -4,4 4,4 0 0 0 4,4 4,4 0 0 0 4,-4 z m 0,-10 a 4,4 0 0 0 -4,-4 4,4 0 0 0 -4,4 4,4 0 0 0 4,4 4,4 0 0 0 4,-4 z m -30,-20 a 4,4 0 0 0 -4,-4 4,4 0 0 0 -4,4 4,4 0 0 0 4,4 4,4 0 0 0 4,-4 z m 10,0 a 4,4 0 0 0 -4,-4 4,4 0 0 0 -4,4 4,4 0 0 0 4,4 4,4 0 0 0 4,-4 z m 0,30 a 4,4 0 0 0 -4,-4 4,4 0 0 0 -4,4 4,4 0 0 0 4,4 4,4 0 0 0 4,-4 z m 0,-10 a 4,4 0 0 0 -4,-4 4,4 0 0 0 -4,4 4,4 0 0 0 4,4 4,4 0 0 0 4,-4 z m 20,-30 a 4,4 0 0 0 -4,-4 4,4 0 0 0 -4,4 4,4 0 0 0 4,4 4,4 0 0 0 4,-4 z m 0,10 a 4,4 0 0 0 -4,-4 4,4 0 0 0 -4,4 4,4 0 0 0 4,4 4,4 0 0 0 4,-4 z m -30,10 a 4,4 0 0 0 -4,-4 4,4 0 0 0 -4,4 4,4 0 0 0 4,4 4,4 0 0 0 4,-4 z m 40,10 a 4,4 0 0 0 -4,-4 4,4 0 0 0 -4,4 4,4 0 0 0 4,4 4,4 0 0 0 4,-4 z m 0,-10 a 4,4 0 0 0 -4,-4 4,4 0 0 0 -4,4 4,4 0 0 0 4,4 4,4 0 0 0 4,-4 z m -30,0 a 4,4 0 0 0 -4,-4 4,4 0 0 0 -4,4 4,4 0 0 0 4,4 4,4 0 0 0 4,-4 z m 20,0 a 4,4 0 0 0 -4,-4 4,4 0 0 0 -4,4 4,4 0 0 0 4,4 4,4 0 0 0 4,-4 z m -10,20 a 4,4 0 0 0 -4,-4 4,4 0 0 0 -4,4 4,4 0 0 0 4,4 4,4 0 0 0 4,-4 z m 0,-10 a 4,4 0 0 0 -4,-4 4,4 0 0 0 -4,4 4,4 0 0 0 4,4 4,4 0 0 0 4,-4 z m -10,-30 a 4,4 0 0 0 -4,-4 4,4 0 0 0 -4,4 4,4 0 0 0 4,4 4,4 0 0 0 4,-4 z m 10,0 a 4,4 0 0 0 -4,-4 4,4 0 0 0 -4,4 4,4 0 0 0 4,4 4,4 0 0 0 4,-4 z m 0,10 a 4,4 0 0 0 -4,-4 4,4 0 0 0 -4,4 4,4 0 0 0 4,4 4,4 0 0 0 4,-4 z" /></clipPath><clipPath
   clipPathUnits="userSpaceOnUse"
   id="clipPath2208"><path
     id="path2210"
     style="display:none;fill:#ffffff"
     d="m 1070,52 a 4,4 0 0 1 -4,4 4,4 0 0 1 -4,-4 4,4 0 0 1 4,-4 4,4 0 0 1 4,4 z m 0,-10 a 4,4 0 0 1 -4,4 4,4 0 0 1 -4,-4 4,4 0 0 1 4,-4 4,4 0 0 1 4,4 z m -30,-20 a 4,4 0 0 1 -4,4 4,4 0 0 1 -4,-4 4,4 0 0 1 4,-4 4,4 0 0 1 4,4 z m 10,0 a 4,4 0 0 1 -4,4 4,4 0 0 1 -4,-4 4,4 0 0 1 4,-4 4,4 0 0 1 4,4 z m 0,20 a 4,4 0 0 1 -4,4 4,4 0 0 1 -4,-4 4,4 0 0 1 4,-4 4,4 0 0 1 4,4 z m 20,-20 a 4,4 0 0 1 -4,4 4,4 0 0 1 -4,-4 4,4 0 0 1 4,-4 4,4 0 0 1 4,4 z m -30,10 a 4,4 0 0 1 -4,4 4,4 0 0 1 -4,-4 4,4 0 0 1 4,-4 4,4 0 0 1 4,4 z m 40,10 a 4,4 0 0 1 -4,4 4,4 0 0 1 -4,-4 4,4 0 0 1 4,-4 4,4 0 0 1 4,4 z m 0,-10 a 4,4 0 0 1 -4,4 4,4 0 0 1 -4,-4 4,4 0 0 1 4,-4 4,4 0 0 1 4,4 z m -30,0 a 4,4 0 0 1 -4,4 4,4 0 0 1 -4,-4 4,4 0 0 1 4,-4 4,4 0 0 1 4,4 z m 20,0 a 4,4 0 0 1 -4,4 4,4 0 0 1 -4,-4 4,4 0 0 1 4,-4 4,4 0 0 1 4,4 z m -10,20 a 4,4 0 0 1 -4,4 4,4 0 0 1 -4,-4 4,4 0 0 1 4,-4 4,4 0 0 1 4,4 z m 0,-10 a 4,4 0 0 1 -4,4 4,4 0 0 1 -4,-4 4,4 0 0 1 4,-4 4,4 0 0 1 4,4 z m -10,-30 a 4,4 0 0 1 -4,4 4,4 0 0 1 -4,-4 4,4 0 0 1 4,-4 4,4 0 0 1 4,4 z m 10,0 a 4,4 0 0 1 -4,4 4,4 0 0 1 -4,-4 4,4 0 0 1 4,-4 4,4 0 0 1 4,4 z m 0,20 a 4,4 0 0 1 -4,4 4,4 0 0 1 -4,-4 4,4 0 0 1 4,-4 4,4 0 0 1 4,4 z m 0,-10 a 4,4 0 0 1 -4,4 4,4 0 0 1 -4,-4 4,4 0 0 1 4,-4 4,4 0 0 1 4,4 z" /><path
     id="lpe_path-effect2212"
     style="fill:#ffffff"
     class="powerclip"
     d="m 1019,-5 h 74 v 74.000006 h -74 z m 51,57 a 4,4 0 0 0 -4,-4 4,4 0 0 0 -4,4 4,4 0 0 0 4,4 4,4 0 0 0 4,-4 z m 0,-10 a 4,4 0 0 0 -4,-4 4,4 0 0 0 -4,4 4,4 0 0 0 4,4 4,4 0 0 0 4,-4 z m -30,-20 a 4,4 0 0 0 -4,-4 4,4 0 0 0 -4,4 4,4 0 0 0 4,4 4,4 0 0 0 4,-4 z m 10,0 a 4,4 0 0 0 -4,-4 4,4 0 0 0 -4,4 4,4 0 0 0 4,4 4,4 0 0 0 4,-4 z m 0,20 a 4,4 0 0 0 -4,-4 4,4 0 0 0 -4,4 4,4 0 0 0 4,4 4,4 0 0 0 4,-4 z m 20,-20 a 4,4 0 0 0 -4,-4 4,4 0 0 0 -4,4 4,4 0 0 0 4,4 4,4 0 0 0 4,-4 z m -30,10 a 4,4 0 0 0 -4,-4 4,4 0 0 0 -4,4 4,4 0 0 0 4,4 4,4 0 0 0 4,-4 z m 40,10 a 4,4 0 0 0 -4,-4 4,4 0 0 0 -4,4 4,4 0 0 0 4,4 4,4 0 0 0 4,-4 z m 0,-10 a 4,4 0 0 0 -4,-4 4,4 0 0 0 -4,4 4,4 0 0 0 4,4 4,4 0 0 0 4,-4 z m -30,0 a 4,4 0 0 0 -4,-4 4,4 0 0 0 -4,4 4,4 0 0 0 4,4 4,4 0 0 0 4,-4 z m 20,0 a 4,4 0 0 0 -4,-4 4,4 0 0 0 -4,4 4,4 0 0 0 4,4 4,4 0 0 0 4,-4 z m -10,20 a 4,4 0 0 0 -4,-4 4,4 0 0 0 -4,4 4,4 0 0 0 4,4 4,4 0 0 0 4,-4 z m 0,-10 a 4,4 0 0 0 -4,-4 4,4 0 0 0 -4,4 4,4 0 0 0 4,4 4,4 0 0 0 4,-4 z m -10,-30 a 4,4 0 0 0 -4,-4 4,4 0 0 0 -4,4 4,4 0 0 0 4,4 4,4 0 0 0 4,-4 z m 10,0 a 4,4 0 0 0 -4,-4 4,4 0 0 0 -4,4 4,4 0 0 0 4,4 4,4 0 0 0 4,-4 z m 0,20 a 4,4 0 0 0 -4,-4 4,4 0 0 0 -4,4 4,4 0 0 0 4,4 4,4 0 0 0 4,-4 z m 0,-10 a 4,4 0 0 0 -4,-4 4,4 0 0 0 -4,4 4,4 0 0 0 4,4 4,4 0 0 0 4,-4 z" /></clipPath><clipPath
   clipPathUnits="userSpaceOnUse"
   id="clipPath2216"><path
     id="path2218"
     style="display:none;fill:#ffffff"
     d="m 1006,52 a 4,4 0 0 1 -4,4 4,4 0 0 1 -4,-4 4,4 0 0 1 4,-4 4,4 0 0 1 4,4 z m 0,-10 a 4,4 0 0 1 -4,4 4,4 0 0 1 -4,-4 4,4 0 0 1 4,-4 4,4 0 0 1 4,4 z M 976,22 a 4,4 0 0 1 -4,4 4,4 0 0 1 -4,-4 4,4 0 0 1 4,-4 4,4 0 0 1 4,4 z m 10,0 a 4,4 0 0 1 -4,4 4,4 0 0 1 -4,-4 4,4 0 0 1 4,-4 4,4 0 0 1 4,4 z m 0,20 a 4,4 0 0 1 -4,4 4,4 0 0 1 -4,-4 4,4 0 0 1 4,-4 4,4 0 0 1 4,4 z m 20,-20 a 4,4 0 0 1 -4,4 4,4 0 0 1 -4,-4 4,4 0 0 1 4,-4 4,4 0 0 1 4,4 z m -30,10 a 4,4 0 0 1 -4,4 4,4 0 0 1 -4,-4 4,4 0 0 1 4,-4 4,4 0 0 1 4,4 z m 40,10 a 4,4 0 0 1 -4,4 4,4 0 0 1 -4,-4 4,4 0 0 1 4,-4 4,4 0 0 1 4,4 z m 0,-10 a 4,4 0 0 1 -4,4 4,4 0 0 1 -4,-4 4,4 0 0 1 4,-4 4,4 0 0 1 4,4 z m -30,0 a 4,4 0 0 1 -4,4 4,4 0 0 1 -4,-4 4,4 0 0 1 4,-4 4,4 0 0 1 4,4 z m 20,0 a 4,4 0 0 1 -4,4 4,4 0 0 1 -4,-4 4,4 0 0 1 4,-4 4,4 0 0 1 4,4 z m -10,20 a 4,4 0 0 1 -4,4 4,4 0 0 1 -4,-4 4,4 0 0 1 4,-4 4,4 0 0 1 4,4 z m 0,-10 a 4,4 0 0 1 -4,4 4,4 0 0 1 -4,-4 4,4 0 0 1 4,-4 4,4 0 0 1 4,4 z M 986,12 a 4,4 0 0 1 -4,4 4,4 0 0 1 -4,-4 4,4 0 0 1 4,-4 4,4 0 0 1 4,4 z m 10,0 a 4,4 0 0 1 -4,4 4,4 0 0 1 -4,-4 4,4 0 0 1 4,-4 4,4 0 0 1 4,4 z m 0,10 a 4,4 0 0 1 -4,4 4,4 0 0 1 -4,-4 4,4 0 0 1 4,-4 4,4 0 0 1 4,4 z" /><path
     id="lpe_path-effect2220"
     style="fill:#ffffff"
     class="powerclip"
     d="m 955,-5 h 74 v 74.000006 h -74 z m 51,57 a 4,4 0 0 0 -4,-4 4,4 0 0 0 -4,4 4,4 0 0 0 4,4 4,4 0 0 0 4,-4 z m 0,-10 a 4,4 0 0 0 -4,-4 4,4 0 0 0 -4,4 4,4 0 0 0 4,4 4,4 0 0 0 4,-4 z M 976,22 a 4,4 0 0 0 -4,-4 4,4 0 0 0 -4,4 4,4 0 0 0 4,4 4,4 0 0 0 4,-4 z m 10,0 a 4,4 0 0 0 -4,-4 4,4 0 0 0 -4,4 4,4 0 0 0 4,4 4,4 0 0 0 4,-4 z m 0,20 a 4,4 0 0 0 -4,-4 4,4 0 0 0 -4,4 4,4 0 0 0 4,4 4,4 0 0 0 4,-4 z m 20,-20 a 4,4 0 0 0 -4,-4 4,4 0 0 0 -4,4 4,4 0 0 0 4,4 4,4 0 0 0 4,-4 z m -30,10 a 4,4 0 0 0 -4,-4 4,4 0 0 0 -4,4 4,4 0 0 0 4,4 4,4 0 0 0 4,-4 z m 40,10 a 4,4 0 0 0 -4,-4 4,4 0 0 0 -4,4 4,4 0 0 0 4,4 4,4 0 0 0 4,-4 z m 0,-10 a 4,4 0 0 0 -4,-4 4,4 0 0 0 -4,4 4,4 0 0 0 4,4 4,4 0 0 0 4,-4 z m -30,0 a 4,4 0 0 0 -4,-4 4,4 0 0 0 -4,4 4,4 0 0 0 4,4 4,4 0 0 0 4,-4 z m 20,0 a 4,4 0 0 0 -4,-4 4,4 0 0 0 -4,4 4,4 0 0 0 4,4 4,4 0 0 0 4,-4 z m -10,20 a 4,4 0 0 0 -4,-4 4,4 0 0 0 -4,4 4,4 0 0 0 4,4 4,4 0 0 0 4,-4 z m 0,-10 a 4,4 0 0 0 -4,-4 4,4 0 0 0 -4,4 4,4 0 0 0 4,4 4,4 0 0 0 4,-4 z M 986,12 a 4,4 0 0 0 -4,-4 4,4 0 0 0 -4,4 4,4 0 0 0 4,4 4,4 0 0 0 4,-4 z m 10,0 a 4,4 0 0 0 -4,-4 4,4 0 0 0 -4,4 4,4 0 0 0 4,4 4,4 0 0 0 4,-4 z m 0,10 a 4,4 0 0 0 -4,-4 4,4 0 0 0 -4,4 4,4 0 0 0 4,4 4,4 0 0 0 4,-4 z" /></clipPath><clipPath
   clipPathUnits="userSpaceOnUse"
   id="clipPath2224"><path
     id="path2226"
     style="display:none;fill:#ffffff"
     d="m 942,42 a 4,4 0 0 1 -4,4 4,4 0 0 1 -4,-4 4,4 0 0 1 4,-4 4,4 0 0 1 4,4 z M 912,22 a 4,4 0 0 1 -4,4 4,4 0 0 1 -4,-4 4,4 0 0 1 4,-4 4,4 0 0 1 4,4 z m 10,0 a 4,4 0 0 1 -4,4 4,4 0 0 1 -4,-4 4,4 0 0 1 4,-4 4,4 0 0 1 4,4 z m 0,20 a 4,4 0 0 1 -4,4 4,4 0 0 1 -4,-4 4,4 0 0 1 4,-4 4,4 0 0 1 4,4 z m 20,-20 a 4,4 0 0 1 -4,4 4,4 0 0 1 -4,-4 4,4 0 0 1 4,-4 4,4 0 0 1 4,4 z m -30,10 a 4,4 0 0 1 -4,4 4,4 0 0 1 -4,-4 4,4 0 0 1 4,-4 4,4 0 0 1 4,4 z m 40,10 a 4,4 0 0 1 -4,4 4,4 0 0 1 -4,-4 4,4 0 0 1 4,-4 4,4 0 0 1 4,4 z m 0,-10 a 4,4 0 0 1 -4,4 4,4 0 0 1 -4,-4 4,4 0 0 1 4,-4 4,4 0 0 1 4,4 z m -30,0 a 4,4 0 0 1 -4,4 4,4 0 0 1 -4,-4 4,4 0 0 1 4,-4 4,4 0 0 1 4,4 z m 20,0 a 4,4 0 0 1 -4,4 4,4 0 0 1 -4,-4 4,4 0 0 1 4,-4 4,4 0 0 1 4,4 z m -10,20 a 4,4 0 0 1 -4,4 4,4 0 0 1 -4,-4 4,4 0 0 1 4,-4 4,4 0 0 1 4,4 z m 0,-10 a 4,4 0 0 1 -4,4 4,4 0 0 1 -4,-4 4,4 0 0 1 4,-4 4,4 0 0 1 4,4 z m 0,-30 a 4,4 0 0 1 -4,4 4,4 0 0 1 -4,-4 4,4 0 0 1 4,-4 4,4 0 0 1 4,4 z m 0,20 a 4,4 0 0 1 -4,4 4,4 0 0 1 -4,-4 4,4 0 0 1 4,-4 4,4 0 0 1 4,4 z m 0,-10 a 4,4 0 0 1 -4,4 4,4 0 0 1 -4,-4 4,4 0 0 1 4,-4 4,4 0 0 1 4,4 z" /><path
     id="lpe_path-effect2228"
     style="fill:#ffffff"
     class="powerclip"
     d="m 891,-5 h 74.00001 V 69.000006 H 891 Z m 51,47 a 4,4 0 0 0 -4,-4 4,4 0 0 0 -4,4 4,4 0 0 0 4,4 4,4 0 0 0 4,-4 z M 912,22 a 4,4 0 0 0 -4,-4 4,4 0 0 0 -4,4 4,4 0 0 0 4,4 4,4 0 0 0 4,-4 z m 10,0 a 4,4 0 0 0 -4,-4 4,4 0 0 0 -4,4 4,4 0 0 0 4,4 4,4 0 0 0 4,-4 z m 0,20 a 4,4 0 0 0 -4,-4 4,4 0 0 0 -4,4 4,4 0 0 0 4,4 4,4 0 0 0 4,-4 z m 20,-20 a 4,4 0 0 0 -4,-4 4,4 0 0 0 -4,4 4,4 0 0 0 4,4 4,4 0 0 0 4,-4 z m -30,10 a 4,4 0 0 0 -4,-4 4,4 0 0 0 -4,4 4,4 0 0 0 4,4 4,4 0 0 0 4,-4 z m 40,10 a 4,4 0 0 0 -4,-4 4,4 0 0 0 -4,4 4,4 0 0 0 4,4 4,4 0 0 0 4,-4 z m 0,-10 a 4,4 0 0 0 -4,-4 4,4 0 0 0 -4,4 4,4 0 0 0 4,4 4,4 0 0 0 4,-4 z m -30,0 a 4,4 0 0 0 -4,-4 4,4 0 0 0 -4,4 4,4 0 0 0 4,4 4,4 0 0 0 4,-4 z m 20,0 a 4,4 0 0 0 -4,-4 4,4 0 0 0 -4,4 4,4 0 0 0 4,4 4,4 0 0 0 4,-4 z m -10,20 a 4,4 0 0 0 -4,-4 4,4 0 0 0 -4,4 4,4 0 0 0 4,4 4,4 0 0 0 4,-4 z m 0,-10 a 4,4 0 0 0 -4,-4 4,4 0 0 0 -4,4 4,4 0 0 0 4,4 4,4 0 0 0 4,-4 z m 0,-30 a 4,4 0 0 0 -4,-4 4,4 0 0 0 -4,4 4,4 0 0 0 4,4 4,4 0 0 0 4,-4 z m 0,20 a 4,4 0 0 0 -4,-4 4,4 0 0 0 -4,4 4,4 0 0 0 4,4 4,4 0 0 0 4,-4 z m 0,-10 a 4,4 0 0 0 -4,-4 4,4 0 0 0 -4,4 4,4 0 0 0 4,4 4,4 0 0 0 4,-4 z" /></clipPath><clipPath
   clipPathUnits="userSpaceOnUse"
   id="clipPath2232"><path
     id="path2234"
     style="display:none;fill:#ffffff"
     d="m 878,42 a 4,4 0 0 1 -4,4 4,4 0 0 1 -4,-4 4,4 0 0 1 4,-4 4,4 0 0 1 4,4 z M 848,22 a 4,4 0 0 1 -4,4 4,4 0 0 1 -4,-4 4,4 0 0 1 4,-4 4,4 0 0 1 4,4 z m 10,0 a 4,4 0 0 1 -4,4 4,4 0 0 1 -4,-4 4,4 0 0 1 4,-4 4,4 0 0 1 4,4 z m 0,20 a 4,4 0 0 1 -4,4 4,4 0 0 1 -4,-4 4,4 0 0 1 4,-4 4,4 0 0 1 4,4 z m 20,-20 a 4,4 0 0 1 -4,4 4,4 0 0 1 -4,-4 4,4 0 0 1 4,-4 4,4 0 0 1 4,4 z m -30,10 a 4,4 0 0 1 -4,4 4,4 0 0 1 -4,-4 4,4 0 0 1 4,-4 4,4 0 0 1 4,4 z m 40,10 a 4,4 0 0 1 -4,4 4,4 0 0 1 -4,-4 4,4 0 0 1 4,-4 4,4 0 0 1 4,4 z m 0,-10 a 4,4 0 0 1 -4,4 4,4 0 0 1 -4,-4 4,4 0 0 1 4,-4 4,4 0 0 1 4,4 z m -30,0 a 4,4 0 0 1 -4,4 4,4 0 0 1 -4,-4 4,4 0 0 1 4,-4 4,4 0 0 1 4,4 z m 20,0 a 4,4 0 0 1 -4,4 4,4 0 0 1 -4,-4 4,4 0 0 1 4,-4 4,4 0 0 1 4,4 z m -10,20 a 4,4 0 0 1 -4,4 4,4 0 0 1 -4,-4 4,4 0 0 1 4,-4 4,4 0 0 1 4,4 z m 0,-10 a 4,4 0 0 1 -4,4 4,4 0 0 1 -4,-4 4,4 0 0 1 4,-4 4,4 0 0 1 4,4 z m 0,-30 a 4,4 0 0 1 -4,4 4,4 0 0 1 -4,-4 4,4 0 0 1 4,-4 4,4 0 0 1 4,4 z m 0,10 a 4,4 0 0 1 -4,4 4,4 0 0 1 -4,-4 4,4 0 0 1 4,-4 4,4 0 0 1 4,4 z" /><path
     id="lpe_path-effect2236"
     style="fill:#ffffff"
     class="powerclip"
     d="m 827,-5 h 74.00001 V 69.000006 H 827 Z m 51,47 a 4,4 0 0 0 -4,-4 4,4 0 0 0 -4,4 4,4 0 0 0 4,4 4,4 0 0 0 4,-4 z M 848,22 a 4,4 0 0 0 -4,-4 4,4 0 0 0 -4,4 4,4 0 0 0 4,4 4,4 0 0 0 4,-4 z m 10,0 a 4,4 0 0 0 -4,-4 4,4 0 0 0 -4,4 4,4 0 0 0 4,4 4,4 0 0 0 4,-4 z m 0,20 a 4,4 0 0 0 -4,-4 4,4 0 0 0 -4,4 4,4 0 0 0 4,4 4,4 0 0 0 4,-4 z m 20,-20 a 4,4 0 0 0 -4,-4 4,4 0 0 0 -4,4 4,4 0 0 0 4,4 4,4 0 0 0 4,-4 z m -30,10 a 4,4 0 0 0 -4,-4 4,4 0 0 0 -4,4 4,4 0 0 0 4,4 4,4 0 0 0 4,-4 z m 40,10 a 4,4 0 0 0 -4,-4 4,4 0 0 0 -4,4 4,4 0 0 0 4,4 4,4 0 0 0 4,-4 z m 0,-10 a 4,4 0 0 0 -4,-4 4,4 0 0 0 -4,4 4,4 0 0 0 4,4 4,4 0 0 0 4,-4 z m -30,0 a 4,4 0 0 0 -4,-4 4,4 0 0 0 -4,4 4,4 0 0 0 4,4 4,4 0 0 0 4,-4 z m 20,0 a 4,4 0 0 0 -4,-4 4,4 0 0 0 -4,4 4,4 0 0 0 4,4 4,4 0 0 0 4,-4 z m -10,20 a 4,4 0 0 0 -4,-4 4,4 0 0 0 -4,4 4,4 0 0 0 4,4 4,4 0 0 0 4,-4 z m 0,-10 a 4,4 0 0 0 -4,-4 4,4 0 0 0 -4,4 4,4 0 0 0 4,4 4,4 0 0 0 4,-4 z m 0,-30 a 4,4 0 0 0 -4,-4 4,4 0 0 0 -4,4 4,4 0 0 0 4,4 4,4 0 0 0 4,-4 z m 0,10 a 4,4 0 0 0 -4,-4 4,4 0 0 0 -4,4 4,4 0 0 0 4,4 4,4 0 0 0 4,-4 z" /></clipPath><clipPath
   clipPathUnits="userSpaceOnUse"
   id="clipPath2240"><path
     id="path2242"
     style="display:none;fill:#ffffff"
     d="m 814,42 a 4,4 0 0 1 -4,4 4,4 0 0 1 -4,-4 4,4 0 0 1 4,-4 4,4 0 0 1 4,4 z M 794,22 a 4,4 0 0 1 -4,4 4,4 0 0 1 -4,-4 4,4 0 0 1 4,-4 4,4 0 0 1 4,4 z m 0,20 a 4,4 0 0 1 -4,4 4,4 0 0 1 -4,-4 4,4 0 0 1 4,-4 4,4 0 0 1 4,4 z m 20,-20 a 4,4 0 0 1 -4,4 4,4 0 0 1 -4,-4 4,4 0 0 1 4,-4 4,4 0 0 1 4,4 z m -30,10 a 4,4 0 0 1 -4,4 4,4 0 0 1 -4,-4 4,4 0 0 1 4,-4 4,4 0 0 1 4,4 z m 40,0 a 4,4 0 0 1 -4,4 4,4 0 0 1 -4,-4 4,4 0 0 1 4,-4 4,4 0 0 1 4,4 z m -30,0 a 4,4 0 0 1 -4,4 4,4 0 0 1 -4,-4 4,4 0 0 1 4,-4 4,4 0 0 1 4,4 z m 20,0 a 4,4 0 0 1 -4,4 4,4 0 0 1 -4,-4 4,4 0 0 1 4,-4 4,4 0 0 1 4,4 z m -10,20 a 4,4 0 0 1 -4,4 4,4 0 0 1 -4,-4 4,4 0 0 1 4,-4 4,4 0 0 1 4,4 z m 0,-10 a 4,4 0 0 1 -4,4 4,4 0 0 1 -4,-4 4,4 0 0 1 4,-4 4,4 0 0 1 4,4 z m 0,-30 a 4,4 0 0 1 -4,4 4,4 0 0 1 -4,-4 4,4 0 0 1 4,-4 4,4 0 0 1 4,4 z m 0,20 a 4,4 0 0 1 -4,4 4,4 0 0 1 -4,-4 4,4 0 0 1 4,-4 4,4 0 0 1 4,4 z m 0,-10 a 4,4 0 0 1 -4,4 4,4 0 0 1 -4,-4 4,4 0 0 1 4,-4 4,4 0 0 1 4,4 z" /><path
     id="lpe_path-effect2244"
     style="fill:#ffffff"
     class="powerclip"
     d="m 763,-5 h 74.00001 V 69.000006 H 763 Z m 51,47 a 4,4 0 0 0 -4,-4 4,4 0 0 0 -4,4 4,4 0 0 0 4,4 4,4 0 0 0 4,-4 z M 794,22 a 4,4 0 0 0 -4,-4 4,4 0 0 0 -4,4 4,4 0 0 0 4,4 4,4 0 0 0 4,-4 z m 0,20 a 4,4 0 0 0 -4,-4 4,4 0 0 0 -4,4 4,4 0 0 0 4,4 4,4 0 0 0 4,-4 z m 20,-20 a 4,4 0 0 0 -4,-4 4,4 0 0 0 -4,4 4,4 0 0 0 4,4 4,4 0 0 0 4,-4 z m -30,10 a 4,4 0 0 0 -4,-4 4,4 0 0 0 -4,4 4,4 0 0 0 4,4 4,4 0 0 0 4,-4 z m 40,0 a 4,4 0 0 0 -4,-4 4,4 0 0 0 -4,4 4,4 0 0 0 4,4 4,4 0 0 0 4,-4 z m -30,0 a 4,4 0 0 0 -4,-4 4,4 0 0 0 -4,4 4,4 0 0 0 4,4 4,4 0 0 0 4,-4 z m 20,0 a 4,4 0 0 0 -4,-4 4,4 0 0 0 -4,4 4,4 0 0 0 4,4 4,4 0 0 0 4,-4 z m -10,20 a 4,4 0 0 0 -4,-4 4,4 0 0 0 -4,4 4,4 0 0 0 4,4 4,4 0 0 0 4,-4 z m 0,-10 a 4,4 0 0 0 -4,-4 4,4 0 0 0 -4,4 4,4 0 0 0 4,4 4,4 0 0 0 4,-4 z m 0,-30 a 4,4 0 0 0 -4,-4 4,4 0 0 0 -4,4 4,4 0 0 0 4,4 4,4 0 0 0 4,-4 z m 0,20 a 4,4 0 0 0 -4,-4 4,4 0 0 0 -4,4 4,4 0 0 0 4,4 4,4 0 0 0 4,-4 z m 0,-10 a 4,4 0 0 0 -4,-4 4,4 0 0 0 -4,4 4,4 0 0 0 4,4 4,4 0 0 0 4,-4 z" /></clipPath><clipPath
   clipPathUnits="userSpaceOnUse"
   id="clipPath2248"><path
     id="path2250"
     style="display:none;fill:#ffffff"
     d="m 750,42 a 4,4 0 0 1 -4,4 4,4 0 0 1 -4,-4 4,4 0 0 1 4,-4 4,4 0 0 1 4,4 z M 730,22 a 4,4 0 0 1 -4,4 4,4 0 0 1 -4,-4 4,4 0 0 1 4,-4 4,4 0 0 1 4,4 z m 0,20 a 4,4 0 0 1 -4,4 4,4 0 0 1 -4,-4 4,4 0 0 1 4,-4 4,4 0 0 1 4,4 z m 20,-20 a 4,4 0 0 1 -4,4 4,4 0 0 1 -4,-4 4,4 0 0 1 4,-4 4,4 0 0 1 4,4 z m -30,10 a 4,4 0 0 1 -4,4 4,4 0 0 1 -4,-4 4,4 0 0 1 4,-4 4,4 0 0 1 4,4 z m 40,0 a 4,4 0 0 1 -4,4 4,4 0 0 1 -4,-4 4,4 0 0 1 4,-4 4,4 0 0 1 4,4 z m -30,0 a 4,4 0 0 1 -4,4 4,4 0 0 1 -4,-4 4,4 0 0 1 4,-4 4,4 0 0 1 4,4 z m 20,0 a 4,4 0 0 1 -4,4 4,4 0 0 1 -4,-4 4,4 0 0 1 4,-4 4,4 0 0 1 4,4 z m -10,20 a 4,4 0 0 1 -4,4 4,4 0 0 1 -4,-4 4,4 0 0 1 4,-4 4,4 0 0 1 4,4 z m 0,-10 a 4,4 0 0 1 -4,4 4,4 0 0 1 -4,-4 4,4 0 0 1 4,-4 4,4 0 0 1 4,4 z m 0,-30 a 4,4 0 0 1 -4,4 4,4 0 0 1 -4,-4 4,4 0 0 1 4,-4 4,4 0 0 1 4,4 z m 0,10 a 4,4 0 0 1 -4,4 4,4 0 0 1 -4,-4 4,4 0 0 1 4,-4 4,4 0 0 1 4,4 z" /><path
     id="lpe_path-effect2252"
     style="fill:#ffffff"
     class="powerclip"
     d="m 699,-5 h 74.00001 V 69.000006 H 699 Z m 51,47 a 4,4 0 0 0 -4,-4 4,4 0 0 0 -4,4 4,4 0 0 0 4,4 4,4 0 0 0 4,-4 z M 730,22 a 4,4 0 0 0 -4,-4 4,4 0 0 0 -4,4 4,4 0 0 0 4,4 4,4 0 0 0 4,-4 z m 0,20 a 4,4 0 0 0 -4,-4 4,4 0 0 0 -4,4 4,4 0 0 0 4,4 4,4 0 0 0 4,-4 z m 20,-20 a 4,4 0 0 0 -4,-4 4,4 0 0 0 -4,4 4,4 0 0 0 4,4 4,4 0 0 0 4,-4 z m -30,10 a 4,4 0 0 0 -4,-4 4,4 0 0 0 -4,4 4,4 0 0 0 4,4 4,4 0 0 0 4,-4 z m 40,0 a 4,4 0 0 0 -4,-4 4,4 0 0 0 -4,4 4,4 0 0 0 4,4 4,4 0 0 0 4,-4 z m -30,0 a 4,4 0 0 0 -4,-4 4,4 0 0 0 -4,4 4,4 0 0 0 4,4 4,4 0 0 0 4,-4 z m 20,0 a 4,4 0 0 0 -4,-4 4,4 0 0 0 -4,4 4,4 0 0 0 4,4 4,4 0 0 0 4,-4 z m -10,20 a 4,4 0 0 0 -4,-4 4,4 0 0 0 -4,4 4,4 0 0 0 4,4 4,4 0 0 0 4,-4 z m 0,-10 a 4,4 0 0 0 -4,-4 4,4 0 0 0 -4,4 4,4 0 0 0 4,4 4,4 0 0 0 4,-4 z m 0,-30 a 4,4 0 0 0 -4,-4 4,4 0 0 0 -4,4 4,4 0 0 0 4,4 4,4 0 0 0 4,-4 z m 0,10 a 4,4 0 0 0 -4,-4 4,4 0 0 0 -4,4 4,4 0 0 0 4,4 4,4 0 0 0 4,-4 z" /></clipPath><clipPath
   clipPathUnits="userSpaceOnUse"
   id="clipPath2256"><path
     id="path2258"
     style="display:none;fill:#ffffff"
     d="m 686,42 a 4,4 0 0 1 -4,4 4,4 0 0 1 -4,-4 4,4 0 0 1 4,-4 4,4 0 0 1 4,4 z M 666,22 a 4,4 0 0 1 -4,4 4,4 0 0 1 -4,-4 4,4 0 0 1 4,-4 4,4 0 0 1 4,4 z m 0,20 a 4,4 0 0 1 -4,4 4,4 0 0 1 -4,-4 4,4 0 0 1 4,-4 4,4 0 0 1 4,4 z m 20,-20 a 4,4 0 0 1 -4,4 4,4 0 0 1 -4,-4 4,4 0 0 1 4,-4 4,4 0 0 1 4,4 z m -20,10 a 4,4 0 0 1 -4,4 4,4 0 0 1 -4,-4 4,4 0 0 1 4,-4 4,4 0 0 1 4,4 z m 20,0 a 4,4 0 0 1 -4,4 4,4 0 0 1 -4,-4 4,4 0 0 1 4,-4 4,4 0 0 1 4,4 z m -10,20 a 4,4 0 0 1 -4,4 4,4 0 0 1 -4,-4 4,4 0 0 1 4,-4 4,4 0 0 1 4,4 z m 0,-10 a 4,4 0 0 1 -4,4 4,4 0 0 1 -4,-4 4,4 0 0 1 4,-4 4,4 0 0 1 4,4 z m 0,-30 a 4,4 0 0 1 -4,4 4,4 0 0 1 -4,-4 4,4 0 0 1 4,-4 4,4 0 0 1 4,4 z m 0,20 a 4,4 0 0 1 -4,4 4,4 0 0 1 -4,-4 4,4 0 0 1 4,-4 4,4 0 0 1 4,4 z m 0,-10 a 4,4 0 0 1 -4,4 4,4 0 0 1 -4,-4 4,4 0 0 1 4,-4 4,4 0 0 1 4,4 z" /><path
     id="lpe_path-effect2260"
     style="fill:#ffffff"
     class="powerclip"
     d="m 635,-5 h 74.00001 V 69.000006 H 635 Z m 51,47 a 4,4 0 0 0 -4,-4 4,4 0 0 0 -4,4 4,4 0 0 0 4,4 4,4 0 0 0 4,-4 z M 666,22 a 4,4 0 0 0 -4,-4 4,4 0 0 0 -4,4 4,4 0 0 0 4,4 4,4 0 0 0 4,-4 z m 0,20 a 4,4 0 0 0 -4,-4 4,4 0 0 0 -4,4 4,4 0 0 0 4,4 4,4 0 0 0 4,-4 z m 20,-20 a 4,4 0 0 0 -4,-4 4,4 0 0 0 -4,4 4,4 0 0 0 4,4 4,4 0 0 0 4,-4 z m -20,10 a 4,4 0 0 0 -4,-4 4,4 0 0 0 -4,4 4,4 0 0 0 4,4 4,4 0 0 0 4,-4 z m 20,0 a 4,4 0 0 0 -4,-4 4,4 0 0 0 -4,4 4,4 0 0 0 4,4 4,4 0 0 0 4,-4 z m -10,20 a 4,4 0 0 0 -4,-4 4,4 0 0 0 -4,4 4,4 0 0 0 4,4 4,4 0 0 0 4,-4 z m 0,-10 a 4,4 0 0 0 -4,-4 4,4 0 0 0 -4,4 4,4 0 0 0 4,4 4,4 0 0 0 4,-4 z m 0,-30 a 4,4 0 0 0 -4,-4 4,4 0 0 0 -4,4 4,4 0 0 0 4,4 4,4 0 0 0 4,-4 z m 0,20 a 4,4 0 0 0 -4,-4 4,4 0 0 0 -4,4 4,4 0 0 0 4,4 4,4 0 0 0 4,-4 z m 0,-10 a 4,4 0 0 0 -4,-4 4,4 0 0 0 -4,4 4,4 0 0 0 4,4 4,4 0 0 0 4,-4 z" /></clipPath><clipPath
   clipPathUnits="userSpaceOnUse"
   id="clipPath2264"><path
     id="path2266"
     style="display:none;fill:#ffffff"
     d="m 622,42 a 4,4 0 0 1 -4,4 4,4 0 0 1 -4,-4 4,4 0 0 1 4,-4 4,4 0 0 1 4,4 z M 602,22 a 4,4 0 0 1 -4,4 4,4 0 0 1 -4,-4 4,4 0 0 1 4,-4 4,4 0 0 1 4,4 z m 0,20 a 4,4 0 0 1 -4,4 4,4 0 0 1 -4,-4 4,4 0 0 1 4,-4 4,4 0 0 1 4,4 z m 20,-20 a 4,4 0 0 1 -4,4 4,4 0 0 1 -4,-4 4,4 0 0 1 4,-4 4,4 0 0 1 4,4 z m -20,10 a 4,4 0 0 1 -4,4 4,4 0 0 1 -4,-4 4,4 0 0 1 4,-4 4,4 0 0 1 4,4 z m 20,0 a 4,4 0 0 1 -4,4 4,4 0 0 1 -4,-4 4,4 0 0 1 4,-4 4,4 0 0 1 4,4 z m -10,20 a 4,4 0 0 1 -4,4 4,4 0 0 1 -4,-4 4,4 0 0 1 4,-4 4,4 0 0 1 4,4 z m 0,-10 a 4,4 0 0 1 -4,4 4,4 0 0 1 -4,-4 4,4 0 0 1 4,-4 4,4 0 0 1 4,4 z m 0,-30 a 4,4 0 0 1 -4,4 4,4 0 0 1 -4,-4 4,4 0 0 1 4,-4 4,4 0 0 1 4,4 z m 0,10 a 4,4 0 0 1 -4,4 4,4 0 0 1 -4,-4 4,4 0 0 1 4,-4 4,4 0 0 1 4,4 z" /><path
     id="lpe_path-effect2268"
     style="fill:#ffffff"
     class="powerclip"
     d="m 571,-5 h 74.00001 V 69.000006 H 571 Z m 51,47 a 4,4 0 0 0 -4,-4 4,4 0 0 0 -4,4 4,4 0 0 0 4,4 4,4 0 0 0 4,-4 z M 602,22 a 4,4 0 0 0 -4,-4 4,4 0 0 0 -4,4 4,4 0 0 0 4,4 4,4 0 0 0 4,-4 z m 0,20 a 4,4 0 0 0 -4,-4 4,4 0 0 0 -4,4 4,4 0 0 0 4,4 4,4 0 0 0 4,-4 z m 20,-20 a 4,4 0 0 0 -4,-4 4,4 0 0 0 -4,4 4,4 0 0 0 4,4 4,4 0 0 0 4,-4 z m -20,10 a 4,4 0 0 0 -4,-4 4,4 0 0 0 -4,4 4,4 0 0 0 4,4 4,4 0 0 0 4,-4 z m 20,0 a 4,4 0 0 0 -4,-4 4,4 0 0 0 -4,4 4,4 0 0 0 4,4 4,4 0 0 0 4,-4 z m -10,20 a 4,4 0 0 0 -4,-4 4,4 0 0 0 -4,4 4,4 0 0 0 4,4 4,4 0 0 0 4,-4 z m 0,-10 a 4,4 0 0 0 -4,-4 4,4 0 0 0 -4,4 4,4 0 0 0 4,4 4,4 0 0 0 4,-4 z m 0,-30 a 4,4 0 0 0 -4,-4 4,4 0 0 0 -4,4 4,4 0 0 0 4,4 4,4 0 0 0 4,-4 z m 0,10 a 4,4 0 0 0 -4,-4 4,4 0 0 0 -4,4 4,4 0 0 0 4,4 4,4 0 0 0 4,-4 z" /></clipPath><clipPath
   clipPathUnits="userSpaceOnUse"
   id="clipPath2272"><path
     id="path2274"
     style="display:none;fill:#ffffff"
     d="m 558,42 a 4,4 0 0 1 -4,4 4,4 0 0 1 -4,-4 4,4 0 0 1 4,-4 4,4 0 0 1 4,4 z M 538,22 a 4,4 0 0 1 -4,4 4,4 0 0 1 -4,-4 4,4 0 0 1 4,-4 4,4 0 0 1 4,4 z m 0,20 a 4,4 0 0 1 -4,4 4,4 0 0 1 -4,-4 4,4 0 0 1 4,-4 4,4 0 0 1 4,4 z m 20,-20 a 4,4 0 0 1 -4,4 4,4 0 0 1 -4,-4 4,4 0 0 1 4,-4 4,4 0 0 1 4,4 z m -20,10 a 4,4 0 0 1 -4,4 4,4 0 0 1 -4,-4 4,4 0 0 1 4,-4 4,4 0 0 1 4,4 z m 20,0 a 4,4 0 0 1 -4,4 4,4 0 0 1 -4,-4 4,4 0 0 1 4,-4 4,4 0 0 1 4,4 z m -10,10 a 4,4 0 0 1 -4,4 4,4 0 0 1 -4,-4 4,4 0 0 1 4,-4 4,4 0 0 1 4,4 z m 0,-10 a 4,4 0 0 1 -4,4 4,4 0 0 1 -4,-4 4,4 0 0 1 4,-4 4,4 0 0 1 4,4 z m 0,-10 a 4,4 0 0 1 -4,4 4,4 0 0 1 -4,-4 4,4 0 0 1 4,-4 4,4 0 0 1 4,4 z" /><path
     id="lpe_path-effect2276"
     style="fill:#ffffff"
     class="powerclip"
     d="m 507,-5 h 74.00001 V 69.000006 H 507 Z m 51,47 a 4,4 0 0 0 -4,-4 4,4 0 0 0 -4,4 4,4 0 0 0 4,4 4,4 0 0 0 4,-4 z M 538,22 a 4,4 0 0 0 -4,-4 4,4 0 0 0 -4,4 4,4 0 0 0 4,4 4,4 0 0 0 4,-4 z m 0,20 a 4,4 0 0 0 -4,-4 4,4 0 0 0 -4,4 4,4 0 0 0 4,4 4,4 0 0 0 4,-4 z m 20,-20 a 4,4 0 0 0 -4,-4 4,4 0 0 0 -4,4 4,4 0 0 0 4,4 4,4 0 0 0 4,-4 z m -20,10 a 4,4 0 0 0 -4,-4 4,4 0 0 0 -4,4 4,4 0 0 0 4,4 4,4 0 0 0 4,-4 z m 20,0 a 4,4 0 0 0 -4,-4 4,4 0 0 0 -4,4 4,4 0 0 0 4,4 4,4 0 0 0 4,-4 z m -10,10 a 4,4 0 0 0 -4,-4 4,4 0 0 0 -4,4 4,4 0 0 0 4,4 4,4 0 0 0 4,-4 z m 0,-10 a 4,4 0 0 0 -4,-4 4,4 0 0 0 -4,4 4,4 0 0 0 4,4 4,4 0 0 0 4,-4 z m 0,-10 a 4,4 0 0 0 -4,-4 4,4 0 0 0 -4,4 4,4 0 0 0 4,4 4,4 0 0 0 4,-4 z" /></clipPath><clipPath
   clipPathUnits="userSpaceOnUse"
   id="clipPath2280"><path
     id="path2282"
     style="display:none;fill:#ffffff"
     d="m 494,42 a 4,4 0 0 1 -4,4 4,4 0 0 1 -4,-4 4,4 0 0 1 4,-4 4,4 0 0 1 4,4 z M 474,22 a 4,4 0 0 1 -4,4 4,4 0 0 1 -4,-4 4,4 0 0 1 4,-4 4,4 0 0 1 4,4 z m 0,20 a 4,4 0 0 1 -4,4 4,4 0 0 1 -4,-4 4,4 0 0 1 4,-4 4,4 0 0 1 4,4 z m 20,-20 a 4,4 0 0 1 -4,4 4,4 0 0 1 -4,-4 4,4 0 0 1 4,-4 4,4 0 0 1 4,4 z m -20,10 a 4,4 0 0 1 -4,4 4,4 0 0 1 -4,-4 4,4 0 0 1 4,-4 4,4 0 0 1 4,4 z m 20,0 a 4,4 0 0 1 -4,4 4,4 0 0 1 -4,-4 4,4 0 0 1 4,-4 4,4 0 0 1 4,4 z m -10,10 a 4,4 0 0 1 -4,4 4,4 0 0 1 -4,-4 4,4 0 0 1 4,-4 4,4 0 0 1 4,4 z m 0,-20 a 4,4 0 0 1 -4,4 4,4 0 0 1 -4,-4 4,4 0 0 1 4,-4 4,4 0 0 1 4,4 z" /><path
     id="lpe_path-effect2284"
     style="fill:#ffffff"
     class="powerclip"
     d="m 443,-5 h 74.00001 V 69.000006 H 443 Z m 51,47 a 4,4 0 0 0 -4,-4 4,4 0 0 0 -4,4 4,4 0 0 0 4,4 4,4 0 0 0 4,-4 z M 474,22 a 4,4 0 0 0 -4,-4 4,4 0 0 0 -4,4 4,4 0 0 0 4,4 4,4 0 0 0 4,-4 z m 0,20 a 4,4 0 0 0 -4,-4 4,4 0 0 0 -4,4 4,4 0 0 0 4,4 4,4 0 0 0 4,-4 z m 20,-20 a 4,4 0 0 0 -4,-4 4,4 0 0 0 -4,4 4,4 0 0 0 4,4 4,4 0 0 0 4,-4 z m -20,10 a 4,4 0 0 0 -4,-4 4,4 0 0 0 -4,4 4,4 0 0 0 4,4 4,4 0 0 0 4,-4 z m 20,0 a 4,4 0 0 0 -4,-4 4,4 0 0 0 -4,4 4,4 0 0 0 4,4 4,4 0 0 0 4,-4 z m -10,10 a 4,4 0 0 0 -4,-4 4,4 0 0 0 -4,4 4,4 0 0 0 4,4 4,4 0 0 0 4,-4 z m 0,-20 a 4,4 0 0 0 -4,-4 4,4 0 0 0 -4,4 4,4 0 0 0 4,4 4,4 0 0 0 4,-4 z" /></clipPath><clipPath
   clipPathUnits="userSpaceOnUse"
   id="clipPath2288"><path
     id="path2290"
     style="display:none;fill:#ffffff"
     d="m 430,42 a 4,4 0 0 1 -4,4 4,4 0 0 1 -4,-4 4,4 0 0 1 4,-4 4,4 0 0 1 4,4 z M 410,22 a 4,4 0 0 1 -4,4 4,4 0 0 1 -4,-4 4,4 0 0 1 4,-4 4,4 0 0 1 4,4 z m 0,20 a 4,4 0 0 1 -4,4 4,4 0 0 1 -4,-4 4,4 0 0 1 4,-4 4,4 0 0 1 4,4 z m 10,-10 a 4,4 0 0 1 -4,4 4,4 0 0 1 -4,-4 4,4 0 0 1 4,-4 4,4 0 0 1 4,4 z m 10,-10 a 4,4 0 0 1 -4,4 4,4 0 0 1 -4,-4 4,4 0 0 1 4,-4 4,4 0 0 1 4,4 z m -20,10 a 4,4 0 0 1 -4,4 4,4 0 0 1 -4,-4 4,4 0 0 1 4,-4 4,4 0 0 1 4,4 z m 20,0 a 4,4 0 0 1 -4,4 4,4 0 0 1 -4,-4 4,4 0 0 1 4,-4 4,4 0 0 1 4,4 z" /><path
     id="lpe_path-effect2292"
     style="fill:#ffffff"
     class="powerclip"
     d="m 379,-5 h 74.00001 V 69.000006 H 379 Z m 51,47 a 4,4 0 0 0 -4,-4 4,4 0 0 0 -4,4 4,4 0 0 0 4,4 4,4 0 0 0 4,-4 z M 410,22 a 4,4 0 0 0 -4,-4 4,4 0 0 0 -4,4 4,4 0 0 0 4,4 4,4 0 0 0 4,-4 z m 0,20 a 4,4 0 0 0 -4,-4 4,4 0 0 0 -4,4 4,4 0 0 0 4,4 4,4 0 0 0 4,-4 z m 10,-10 a 4,4 0 0 0 -4,-4 4,4 0 0 0 -4,4 4,4 0 0 0 4,4 4,4 0 0 0 4,-4 z m 10,-10 a 4,4 0 0 0 -4,-4 4,4 0 0 0 -4,4 4,4 0 0 0 4,4 4,4 0 0 0 4,-4 z m -20,10 a 4,4 0 0 0 -4,-4 4,4 0 0 0 -4,4 4,4 0 0 0 4,4 4,4 0 0 0 4,-4 z m 20,0 a 4,4 0 0 0 -4,-4 4,4 0 0 0 -4,4 4,4 0 0 0 4,4 4,4 0 0 0 4,-4 z" /></clipPath><clipPath
   clipPathUnits="userSpaceOnUse"
   id="clipPath2296"><path
     id="path2298"
     style="display:none;fill:#ffffff"
     d="m 366,42 a 4,4 0 0 1 -4,4 4,4 0 0 1 -4,-4 4,4 0 0 1 4,-4 4,4 0 0 1 4,4 z M 346,22 a 4,4 0 0 1 -4,4 4,4 0 0 1 -4,-4 4,4 0 0 1 4,-4 4,4 0 0 1 4,4 z m 0,20 a 4,4 0 0 1 -4,4 4,4 0 0 1 -4,-4 4,4 0 0 1 4,-4 4,4 0 0 1 4,4 z m 20,-20 a 4,4 0 0 1 -4,4 4,4 0 0 1 -4,-4 4,4 0 0 1 4,-4 4,4 0 0 1 4,4 z m -20,10 a 4,4 0 0 1 -4,4 4,4 0 0 1 -4,-4 4,4 0 0 1 4,-4 4,4 0 0 1 4,4 z m 20,0 a 4,4 0 0 1 -4,4 4,4 0 0 1 -4,-4 4,4 0 0 1 4,-4 4,4 0 0 1 4,4 z" /><path
     id="lpe_path-effect2300"
     style="fill:#ffffff"
     class="powerclip"
     d="m 315,-5 h 74.00001 V 69.000006 H 315 Z m 51,47 a 4,4 0 0 0 -4,-4 4,4 0 0 0 -4,4 4,4 0 0 0 4,4 4,4 0 0 0 4,-4 z M 346,22 a 4,4 0 0 0 -4,-4 4,4 0 0 0 -4,4 4,4 0 0 0 4,4 4,4 0 0 0 4,-4 z m 0,20 a 4,4 0 0 0 -4,-4 4,4 0 0 0 -4,4 4,4 0 0 0 4,4 4,4 0 0 0 4,-4 z m 20,-20 a 4,4 0 0 0 -4,-4 4,4 0 0 0 -4,4 4,4 0 0 0 4,4 4,4 0 0 0 4,-4 z m -20,10 a 4,4 0 0 0 -4,-4 4,4 0 0 0 -4,4 4,4 0 0 0 4,4 4,4 0 0 0 4,-4 z m 20,0 a 4,4 0 0 0 -4,-4 4,4 0 0 0 -4,4 4,4 0 0 0 4,4 4,4 0 0 0 4,-4 z" /></clipPath><clipPath
   clipPathUnits="userSpaceOnUse"
   id="clipPath2304"><path
     id="path2306"
     style="display:none;fill:#ffffff"
     d="m 302,42 a 4,4 0 0 1 -4,4 4,4 0 0 1 -4,-4 4,4 0 0 1 4,-4 4,4 0 0 1 4,4 z M 282,22 a 4,4 0 0 1 -4,4 4,4 0 0 1 -4,-4 4,4 0 0 1 4,-4 4,4 0 0 1 4,4 z m 0,20 a 4,4 0 0 1 -4,4 4,4 0 0 1 -4,-4 4,4 0 0 1 4,-4 4,4 0 0 1 4,4 z m 10,-10 a 4,4 0 0 1 -4,4 4,4 0 0 1 -4,-4 4,4 0 0 1 4,-4 4,4 0 0 1 4,4 z m 10,-10 a 4,4 0 0 1 -4,4 4,4 0 0 1 -4,-4 4,4 0 0 1 4,-4 4,4 0 0 1 4,4 z" /><path
     id="lpe_path-effect2308"
     style="fill:#ffffff"
     class="powerclip"
     d="m 251,-5 h 74.00001 V 69.000006 H 251 Z m 51,47 a 4,4 0 0 0 -4,-4 4,4 0 0 0 -4,4 4,4 0 0 0 4,4 4,4 0 0 0 4,-4 z M 282,22 a 4,4 0 0 0 -4,-4 4,4 0 0 0 -4,4 4,4 0 0 0 4,4 4,4 0 0 0 4,-4 z m 0,20 a 4,4 0 0 0 -4,-4 4,4 0 0 0 -4,4 4,4 0 0 0 4,4 4,4 0 0 0 4,-4 z m 10,-10 a 4,4 0 0 0 -4,-4 4,4 0 0 0 -4,4 4,4 0 0 0 4,4 4,4 0 0 0 4,-4 z m 10,-10 a 4,4 0 0 0 -4,-4 4,4 0 0 0 -4,4 4,4 0 0 0 4,4 4,4 0 0 0 4,-4 z" /></clipPath><clipPath
   clipPathUnits="userSpaceOnUse"
   id="clipPath2312"><path
     id="path2314"
     style="display:none;fill:#ffffff"
     d="m 238,42 a 4,4 0 0 1 -4,4 4,4 0 0 1 -4,-4 4,4 0 0 1 4,-4 4,4 0 0 1 4,4 z M 218,22 a 4,4 0 0 1 -4,4 4,4 0 0 1 -4,-4 4,4 0 0 1 4,-4 4,4 0 0 1 4,4 z m 0,20 a 4,4 0 0 1 -4,4 4,4 0 0 1 -4,-4 4,4 0 0 1 4,-4 4,4 0 0 1 4,4 z m 20,-20 a 4,4 0 0 1 -4,4 4,4 0 0 1 -4,-4 4,4 0 0 1 4,-4 4,4 0 0 1 4,4 z" /><path
     id="lpe_path-effect2316"
     style="fill:#ffffff"
     class="powerclip"
     d="m 187,-5 h 74.00001 V 69.000006 H 187 Z m 51,47 a 4,4 0 0 0 -4,-4 4,4 0 0 0 -4,4 4,4 0 0 0 4,4 4,4 0 0 0 4,-4 z M 218,22 a 4,4 0 0 0 -4,-4 4,4 0 0 0 -4,4 4,4 0 0 0 4,4 4,4 0 0 0 4,-4 z m 0,20 a 4,4 0 0 0 -4,-4 4,4 0 0 0 -4,4 4,4 0 0 0 4,4 4,4 0 0 0 4,-4 z m 20,-20 a 4,4 0 0 0 -4,-4 4,4 0 0 0 -4,4 4,4 0 0 0 4,4 4,4 0 0 0 4,-4 z" /></clipPath><clipPath
   clipPathUnits="userSpaceOnUse"
   id="clipPath2320"><path
     id="path2322"
     style="display:none;fill:#ffffff"
     d="m 174,42 a 4,4 0 0 1 -4,4 4,4 0 0 1 -4,-4 4,4 0 0 1 4,-4 4,4 0 0 1 4,4 z M 154,22 a 4,4 0 0 1 -4,4 4,4 0 0 1 -4,-4 4,4 0 0 1 4,-4 4,4 0 0 1 4,4 z m 10,10 a 4,4 0 0 1 -4,4 4,4 0 0 1 -4,-4 4,4 0 0 1 4,-4 4,4 0 0 1 4,4 z" /><path
     id="lpe_path-effect2324"
     style="fill:#ffffff"
     class="powerclip"
     d="m 123.5,-4.5 h 73 v 72.999999 h -73 z M 174,42 a 4,4 0 0 0 -4,-4 4,4 0 0 0 -4,4 4,4 0 0 0 4,4 4,4 0 0 0 4,-4 z M 154,22 a 4,4 0 0 0 -4,-4 4,4 0 0 0 -4,4 4,4 0 0 0 4,4 4,4 0 0 0 4,-4 z m 10,10 a 4,4 0 0 0 -4,-4 4,4 0 0 0 -4,4 4,4 0 0 0 4,4 4,4 0 0 0 4,-4 z" /></clipPath><clipPath
   clipPathUnits="userSpaceOnUse"
   id="clipPath2328"><circle
     id="circle2330"
     r="4"
     cy="32"
     cx="32"
     style="display:none;fill:#ffffff"
     d="m 36,32 a 4,4 0 0 1 -4,4 4,4 0 0 1 -4,-4 4,4 0 0 1 4,-4 4,4 0 0 1 4,4 z" /><path
     id="lpe_path-effect2332"
     style="fill:#ffffff"
     class="powerclip"
     d="M -5,-4.9999999 H 69.000003 V 69.000001 H -5 Z M 36,32 a 4,4 0 0 0 -4,-4 4,4 0 0 0 -4,4 4,4 0 0 0 4,4 4,4 0 0 0 4,-4 z" /></clipPath></defs><sodipodi:namedview
   inkscape:current-layer="svg816"
   inkscape:window-maximized="1"
   inkscape:window-y="-8"
   inkscape:window-x="-8"
   inkscape:cy="54.329834"
   inkscape:cx="98.745465"
   inkscape:zoom="1.2608174"
   showgrid="false"
   id="namedview818"
   inkscape:window-height="705"
   inkscape:window-width="1366"
   inkscape:pageshadow="2"
   inkscape:pageopacity="0"
   guidetolerance="10"
   gridtolerance="10"
   objecttolerance="10"
   borderopacity="1"
   bordercolor="#666666"
   pagecolor="#ffffff"
   inkscape:document-rotation="0"
   inkscape:pagecheckerboard="0"
   showguides="true"
   inkscape:guide-bbox="true"><sodipodi:guide
     position="228.42324,80.655862"
     orientation="0,-1"
     id="guide2332" /></sodipodi:namedview>
<style
   id="style2"
   type="text/css">
	.st0{fill:#C8C8D2;}
	.st1{fill:#FFFFFF;}
	.st2{fill:#DDDFFF;}
	.st3{fill:#BABFFF;}
	.st4{fill:#999FFF;}
	.st5{fill:#777FFF;}
	.st6{fill:#5660FF;}
	.st7{fill:#5897FF;}
	.st8{fill:#59CDFF;}
	.st9{fill:#5CFFFA;}
	.st10{fill:#5DFFC6;}
	.st11{fill:#5EFF92;}
	.st12{fill:#60FF60;}
	.st13{fill:#94FF55;}
	.st14{fill:#CAFF49;}
	.st15{fill:#FFFF3F;}
	.st16{fill:#FFD63E;}
	.st17{fill:#FFAD3C;}
	.st18{fill:#FF8339;}
	.st19{fill:#FF5938;}
	.st20{fill:#FF373F;}
	.st21{fill:#FF575F;}
	.st22{fill:#FE7A7F;}
	.st23{fill:#FF9B9F;}
	.st24{fill:#FFBCBF;}
	.st25{fill:#FFDDDF;}
	.st26{fill:#D2C8C8;}
</style>
<g
   id="colors">
</g>
<path
   id="path5"
   d="m 7.4998109,63.000242 c -3.580028,0 -6.50005093,-2.920022 -6.50005093,-6.500052 V 7.4998106 c 0,-3.5800278 2.92002293,-6.50005063 6.50005093,-6.50005063 H 56.500196 c 3.580025,0 6.500048,2.92002283 6.500048,6.50005063 V 56.50019 c 0,3.58003 -2.920023,6.500052 -6.500048,6.500052 z"
   class="st0"
   style="stroke:#ff0000;stroke-width:1.99952;stroke-miterlimit:4;stroke-dasharray:none;stroke-opacity:0;filter:url(#filter2740)"
   clip-path="url(#clipPath2328)"
   inkscape:path-effect="#path-effect2332"
   inkscape:original-d="m 7.4998109,63.000242 c -3.580028,0 -6.50005093,-2.920022 -6.50005093,-6.500052 V 7.4998106 c 0,-3.5800278 2.92002293,-6.50005063 6.50005093,-6.50005063 H 56.500196 c 3.580025,0 6.500048,2.92002283 6.500048,6.50005063 V 56.50019 c 0,3.58003 -2.920023,6.500052 -6.500048,6.500052 z" /><path
   id="path11"
   style="stroke:#ff0000;stroke-opacity:0;stroke-width:2;stroke-miterlimit:4;stroke-dasharray:none;filter:url(#filter2748)"
   class="st2"
   d="M 71.5 1 C 67.92 1 65 3.92 65 7.5 L 65 56.5 C 65 60.08 67.92 63 71.5 63 L 120.5 63 C 124.08 63 127 60.08 127 56.5 L 127 7.5 C 127 3.92 124.08 1 120.5 1 L 71.5 1 z M 86 18 A 4 4 0 0 1 90 22 A 4 4 0 0 1 86 26 A 4 4 0 0 1 82 22 A 4 4 0 0 1 86 18 z M 106 38 A 4 4 0 0 1 110 42 A 4 4 0 0 1 106 46 A 4 4 0 0 1 102 42 A 4 4 0 0 1 106 38 z " /><path
   id="path17"
   d="M 135.5,63 C 131.92,63 129,60.08 129,56.5 V 7.5 C 129,3.92 131.92,1 135.5,1 h 49 c 3.58,0 6.5,2.92 6.5,6.5 v 49 c 0,3.58 -2.92,6.5 -6.5,6.5 z"
   class="st3"
   style="stroke:#ff0000;stroke-opacity:0;filter:url(#filter2756)"
   clip-path="url(#clipPath2320)"
   inkscape:path-effect="#path-effect2324"
   inkscape:original-d="M 135.5,63 C 131.92,63 129,60.08 129,56.5 V 7.5 C 129,3.92 131.92,1 135.5,1 h 49 c 3.58,0 6.5,2.92 6.5,6.5 v 49 c 0,3.58 -2.92,6.5 -6.5,6.5 z" /><path
   id="path23"
   d="M 199.5,63 C 195.92,63 193,60.08 193,56.5 V 7.5 C 193,3.92 195.92,1 199.5,1 h 49 c 3.58,0 6.5,2.92 6.5,6.5 v 49 c 0,3.58 -2.92,6.5 -6.5,6.5 z"
   class="st4"
   style="stroke-width:2;stroke-miterlimit:4;stroke-dasharray:none;stroke:#ff0000;stroke-opacity:0;filter:url(#filter2764)"
   clip-path="url(#clipPath2312)"
   inkscape:path-effect="#path-effect2316"
   inkscape:original-d="M 199.5,63 C 195.92,63 193,60.08 193,56.5 V 7.5 C 193,3.92 195.92,1 199.5,1 h 49 c 3.58,0 6.5,2.92 6.5,6.5 v 49 c 0,3.58 -2.92,6.5 -6.5,6.5 z" /><path
   id="path29"
   d="M 263.5,63 C 259.92,63 257,60.08 257,56.5 V 7.5 C 257,3.92 259.92,1 263.5,1 h 49 c 3.58,0 6.5,2.92 6.5,6.5 v 49 c 0,3.58 -2.92,6.5 -6.5,6.5 z"
   class="st5"
   style="stroke-width:2;stroke-miterlimit:4;stroke-dasharray:none;stroke:#ff0000;stroke-opacity:0;filter:url(#filter2772)"
   inkscape:export-filename="C:\Users\Optipl8\Documents\Numfall\pieceSets\juicy\sprites\juicyPreview.png"
   inkscape:export-xdpi="449.99994"
   inkscape:export-ydpi="449.99994"
   clip-path="url(#clipPath2304)"
   inkscape:path-effect="#path-effect2308"
   inkscape:original-d="M 263.5,63 C 259.92,63 257,60.08 257,56.5 V 7.5 C 257,3.92 259.92,1 263.5,1 h 49 c 3.58,0 6.5,2.92 6.5,6.5 v 49 c 0,3.58 -2.92,6.5 -6.5,6.5 z" /><path
   id="path35"
   d="M 327.5,63 C 323.92,63 321,60.08 321,56.5 V 7.5 C 321,3.92 323.92,1 327.5,1 h 49 c 3.58,0 6.5,2.92 6.5,6.5 v 49 c 0,3.58 -2.92,6.5 -6.5,6.5 z"
   class="st6"
   style="stroke:#ff0000;stroke-opacity:0;stroke-width:2;stroke-miterlimit:4;stroke-dasharray:none;filter:url(#filter2780)"
   clip-path="url(#clipPath2296)"
   inkscape:path-effect="#path-effect2300"
   inkscape:original-d="M 327.5,63 C 323.92,63 321,60.08 321,56.5 V 7.5 C 321,3.92 323.92,1 327.5,1 h 49 c 3.58,0 6.5,2.92 6.5,6.5 v 49 c 0,3.58 -2.92,6.5 -6.5,6.5 z" /><path
   id="path41"
   d="M 391.5,63 C 387.92,63 385,60.08 385,56.5 V 7.5 C 385,3.92 387.92,1 391.5,1 h 49 c 3.58,0 6.5,2.92 6.5,6.5 v 49 c 0,3.58 -2.92,6.5 -6.5,6.5 z"
   class="st7"
   style="stroke:#ff0000;stroke-opacity:0;stroke-width:2;stroke-miterlimit:4;stroke-dasharray:none;filter:url(#filter2788)"
   clip-path="url(#clipPath2288)"
   inkscape:path-effect="#path-effect2292"
   inkscape:original-d="M 391.5,63 C 387.92,63 385,60.08 385,56.5 V 7.5 C 385,3.92 387.92,1 391.5,1 h 49 c 3.58,0 6.5,2.92 6.5,6.5 v 49 c 0,3.58 -2.92,6.5 -6.5,6.5 z" /><path
   id="path47"
   d="M 455.5,63 C 451.92,63 449,60.08 449,56.5 V 7.5 C 449,3.92 451.92,1 455.5,1 h 49 c 3.58,0 6.5,2.92 6.5,6.5 v 49 c 0,3.58 -2.92,6.5 -6.5,6.5 z"
   class="st8"
   style="stroke:#ff0000;stroke-opacity:0;stroke-width:2;stroke-miterlimit:4;stroke-dasharray:none;filter:url(#filter2796)"
   clip-path="url(#clipPath2280)"
   inkscape:path-effect="#path-effect2284"
   inkscape:original-d="M 455.5,63 C 451.92,63 449,60.08 449,56.5 V 7.5 C 449,3.92 451.92,1 455.5,1 h 49 c 3.58,0 6.5,2.92 6.5,6.5 v 49 c 0,3.58 -2.92,6.5 -6.5,6.5 z" /><path
   id="path53"
   d="M 519.5,63 C 515.92,63 513,60.08 513,56.5 V 7.5 C 513,3.92 515.92,1 519.5,1 h 49 c 3.58,0 6.5,2.92 6.5,6.5 v 49 c 0,3.58 -2.92,6.5 -6.5,6.5 z"
   class="st9"
   style="stroke-width:2;stroke-miterlimit:4;stroke-dasharray:none;stroke:#ff0000;stroke-opacity:0;filter:url(#filter2804)"
   clip-path="url(#clipPath2272)"
   inkscape:path-effect="#path-effect2276"
   inkscape:original-d="M 519.5,63 C 515.92,63 513,60.08 513,56.5 V 7.5 C 513,3.92 515.92,1 519.5,1 h 49 c 3.58,0 6.5,2.92 6.5,6.5 v 49 c 0,3.58 -2.92,6.5 -6.5,6.5 z" /><path
   id="path59"
   d="M 583.5,63 C 579.92,63 577,60.08 577,56.5 V 7.5 C 577,3.92 579.92,1 583.5,1 h 49 c 3.58,0 6.5,2.92 6.5,6.5 v 49 c 0,3.58 -2.92,6.5 -6.5,6.5 z"
   class="st10"
   style="stroke-width:2;stroke-miterlimit:4;stroke-dasharray:none;stroke:#ff0000;stroke-opacity:0;filter:url(#filter2820)"
   clip-path="url(#clipPath2264)"
   inkscape:path-effect="#path-effect2268"
   inkscape:original-d="M 583.5,63 C 579.92,63 577,60.08 577,56.5 V 7.5 C 577,3.92 579.92,1 583.5,1 h 49 c 3.58,0 6.5,2.92 6.5,6.5 v 49 c 0,3.58 -2.92,6.5 -6.5,6.5 z" /><path
   id="path65"
   d="M 647.5,63 C 643.92,63 641,60.08 641,56.5 V 7.5 C 641,3.92 643.92,1 647.5,1 h 49 c 3.58,0 6.5,2.92 6.5,6.5 v 49 c 0,3.58 -2.92,6.5 -6.5,6.5 z"
   class="st11"
   style="stroke:#ff0000;stroke-opacity:0;stroke-width:2;stroke-miterlimit:4;stroke-dasharray:none;filter:url(#filter2812)"
   clip-path="url(#clipPath2256)"
   inkscape:path-effect="#path-effect2260"
   inkscape:original-d="M 647.5,63 C 643.92,63 641,60.08 641,56.5 V 7.5 C 641,3.92 643.92,1 647.5,1 h 49 c 3.58,0 6.5,2.92 6.5,6.5 v 49 c 0,3.58 -2.92,6.5 -6.5,6.5 z" /><path
   id="path71"
   d="M 711.5,63 C 707.92,63 705,60.08 705,56.5 V 7.5 C 705,3.92 707.92,1 711.5,1 h 49 c 3.58,0 6.5,2.92 6.5,6.5 v 49 c 0,3.58 -2.92,6.5 -6.5,6.5 z"
   class="st12"
   style="stroke:#ff0000;stroke-opacity:0;stroke-width:2;stroke-miterlimit:4;stroke-dasharray:none;filter:url(#filter2836)"
   clip-path="url(#clipPath2248)"
   inkscape:path-effect="#path-effect2252"
   inkscape:original-d="M 711.5,63 C 707.92,63 705,60.08 705,56.5 V 7.5 C 705,3.92 707.92,1 711.5,1 h 49 c 3.58,0 6.5,2.92 6.5,6.5 v 49 c 0,3.58 -2.92,6.5 -6.5,6.5 z" /><path
   id="path77"
   d="M 775.5,63 C 771.92,63 769,60.08 769,56.5 V 7.5 C 769,3.92 771.92,1 775.5,1 h 49 c 3.58,0 6.5,2.92 6.5,6.5 v 49 c 0,3.58 -2.92,6.5 -6.5,6.5 z"
   class="st13"
   style="stroke:#ff0000;stroke-opacity:0;stroke-width:2;stroke-miterlimit:4;stroke-dasharray:none;filter:url(#filter2828)"
   clip-path="url(#clipPath2240)"
   inkscape:path-effect="#path-effect2244"
   inkscape:original-d="M 775.5,63 C 771.92,63 769,60.08 769,56.5 V 7.5 C 769,3.92 771.92,1 775.5,1 h 49 c 3.58,0 6.5,2.92 6.5,6.5 v 49 c 0,3.58 -2.92,6.5 -6.5,6.5 z" /><path
   id="path83"
   d="M 839.5,63 C 835.92,63 833,60.08 833,56.5 V 7.5 C 833,3.92 835.92,1 839.5,1 h 49 c 3.58,0 6.5,2.92 6.5,6.5 v 49 c 0,3.58 -2.92,6.5 -6.5,6.5 z"
   class="st14"
   style="stroke-width:2;stroke-miterlimit:4;stroke-dasharray:none;stroke:#ff0000;stroke-opacity:0;filter:url(#filter2844)"
   clip-path="url(#clipPath2232)"
   inkscape:path-effect="#path-effect2236"
   inkscape:original-d="M 839.5,63 C 835.92,63 833,60.08 833,56.5 V 7.5 C 833,3.92 835.92,1 839.5,1 h 49 c 3.58,0 6.5,2.92 6.5,6.5 v 49 c 0,3.58 -2.92,6.5 -6.5,6.5 z" /><path
   id="path89"
   d="M 903.5,63 C 899.92,63 897,60.08 897,56.5 V 7.5 C 897,3.92 899.92,1 903.5,1 h 49 c 3.58,0 6.5,2.92 6.5,6.5 v 49 c 0,3.58 -2.92,6.5 -6.5,6.5 z"
   class="st15"
   style="stroke:#ff0000;stroke-opacity:0;stroke-width:2;stroke-miterlimit:4;stroke-dasharray:none;filter:url(#filter2852)"
   clip-path="url(#clipPath2224)"
   inkscape:path-effect="#path-effect2228"
   inkscape:original-d="M 903.5,63 C 899.92,63 897,60.08 897,56.5 V 7.5 C 897,3.92 899.92,1 903.5,1 h 49 c 3.58,0 6.5,2.92 6.5,6.5 v 49 c 0,3.58 -2.92,6.5 -6.5,6.5 z" /><path
   id="path95"
   d="M 967.5,63 C 963.92,63 961,60.08 961,56.5 V 7.5 C 961,3.92 963.92,1 967.5,1 h 49 c 3.58,0 6.5,2.92 6.5,6.5 v 49 c 0,3.58 -2.92,6.5 -6.5,6.5 z"
   class="st16"
   style="stroke:#ff0000;stroke-opacity:0;stroke-width:2;stroke-miterlimit:4;stroke-dasharray:none;filter:url(#filter2860)"
   clip-path="url(#clipPath2216)"
   inkscape:path-effect="#path-effect2220"
   inkscape:original-d="M 967.5,63 C 963.92,63 961,60.08 961,56.5 V 7.5 C 961,3.92 963.92,1 967.5,1 h 49 c 3.58,0 6.5,2.92 6.5,6.5 v 49 c 0,3.58 -2.92,6.5 -6.5,6.5 z" /><path
   id="path101"
   d="m 1031.5,63 c -3.58,0 -6.5,-2.92 -6.5,-6.5 v -49 c 0,-3.58 2.92,-6.5 6.5,-6.5 h 49 c 3.58,0 6.5,2.92 6.5,6.5 v 49 c 0,3.58 -2.92,6.5 -6.5,6.5 z"
   class="st17"
   style="stroke-width:2;stroke-miterlimit:4;stroke-dasharray:none;stroke:#ff0000;stroke-opacity:0;filter:url(#filter2868)"
   clip-path="url(#clipPath2208)"
   inkscape:path-effect="#path-effect2212"
   inkscape:original-d="m 1031.5,63 c -3.58,0 -6.5,-2.92 -6.5,-6.5 v -49 c 0,-3.58 2.92,-6.5 6.5,-6.5 h 49 c 3.58,0 6.5,2.92 6.5,6.5 v 49 c 0,3.58 -2.92,6.5 -6.5,6.5 z" /><path
   id="path107"
   d="m 1095.5,63 c -3.58,0 -6.5,-2.92 -6.5,-6.5 v -49 c 0,-3.58 2.92,-6.5 6.5,-6.5 h 49 c 3.58,0 6.5,2.92 6.5,6.5 v 49 c 0,3.58 -2.92,6.5 -6.5,6.5 z"
   class="st18"
   style="stroke:#ff0000;stroke-opacity:0;stroke-width:2;stroke-miterlimit:4;stroke-dasharray:none;filter:url(#filter2876)"
   clip-path="url(#clipPath2200)"
   inkscape:path-effect="#path-effect2204"
   inkscape:original-d="m 1095.5,63 c -3.58,0 -6.5,-2.92 -6.5,-6.5 v -49 c 0,-3.58 2.92,-6.5 6.5,-6.5 h 49 c 3.58,0 6.5,2.92 6.5,6.5 v 49 c 0,3.58 -2.92,6.5 -6.5,6.5 z" /><path
   id="path113"
   d="m 1159.5,63 c -3.58,0 -6.5,-2.92 -6.5,-6.5 v -49 c 0,-3.58 2.92,-6.5 6.5,-6.5 h 49 c 3.58,0 6.5,2.92 6.5,6.5 v 49 c 0,3.58 -2.92,6.5 -6.5,6.5 z"
   class="st19"
   style="stroke-width:2;stroke-miterlimit:4;stroke-dasharray:none;stroke:#ff0000;stroke-opacity:0;filter:url(#filter2892)"
   clip-path="url(#clipPath2192)"
   inkscape:path-effect="#path-effect2196"
   inkscape:original-d="m 1159.5,63 c -3.58,0 -6.5,-2.92 -6.5,-6.5 v -49 c 0,-3.58 2.92,-6.5 6.5,-6.5 h 49 c 3.58,0 6.5,2.92 6.5,6.5 v 49 c 0,3.58 -2.92,6.5 -6.5,6.5 z" /><path
   id="path119"
   d="m 1223.5,63 c -3.58,0 -6.5,-2.92 -6.5,-6.5 v -49 c 0,-3.58 2.92,-6.5 6.5,-6.5 h 49 c 3.58,0 6.5,2.92 6.5,6.5 v 49 c 0,3.58 -2.92,6.5 -6.5,6.5 z"
   class="st20"
   style="stroke:#ff0000;stroke-opacity:0;stroke-width:2;stroke-miterlimit:4;stroke-dasharray:none;filter:url(#filter2884)"
   clip-path="url(#clipPath2184)"
   inkscape:path-effect="#path-effect2188"
   inkscape:original-d="m 1223.5,63 c -3.58,0 -6.5,-2.92 -6.5,-6.5 v -49 c 0,-3.58 2.92,-6.5 6.5,-6.5 h 49 c 3.58,0 6.5,2.92 6.5,6.5 v 49 c 0,3.58 -2.92,6.5 -6.5,6.5 z" /><path
   id="path125"
   d="m 1287.5,63 c -3.58,0 -6.5,-2.92 -6.5,-6.5 v -49 c 0,-3.58 2.92,-6.5 6.5,-6.5 h 49 c 3.58,0 6.5,2.92 6.5,6.5 v 49 c 0,3.58 -2.92,6.5 -6.5,6.5 z"
   class="st21"
   style="stroke:#ff0000;stroke-opacity:0;stroke-width:2;stroke-miterlimit:4;stroke-dasharray:none;filter:url(#filter2900)"
   clip-path="url(#clipPath2176)"
   inkscape:path-effect="#path-effect2180"
   inkscape:original-d="m 1287.5,63 c -3.58,0 -6.5,-2.92 -6.5,-6.5 v -49 c 0,-3.58 2.92,-6.5 6.5,-6.5 h 49 c 3.58,0 6.5,2.92 6.5,6.5 v 49 c 0,3.58 -2.92,6.5 -6.5,6.5 z" /><path
   id="path131"
   d="m 1351.5,63 c -3.58,0 -6.5,-2.92 -6.5,-6.5 v -49 c 0,-3.58 2.92,-6.5 6.5,-6.5 h 49 c 3.58,0 6.5,2.92 6.5,6.5 v 49 c 0,3.58 -2.92,6.5 -6.5,6.5 z"
   class="st22"
   style="stroke:#ff0000;stroke-opacity:0;stroke-width:2;stroke-miterlimit:4;stroke-dasharray:none;filter:url(#filter2908)"
   clip-path="url(#clipPath2168)"
   inkscape:path-effect="#path-effect2172"
   inkscape:original-d="m 1351.5,63 c -3.58,0 -6.5,-2.92 -6.5,-6.5 v -49 c 0,-3.58 2.92,-6.5 6.5,-6.5 h 49 c 3.58,0 6.5,2.92 6.5,6.5 v 49 c 0,3.58 -2.92,6.5 -6.5,6.5 z" /><path
   id="path137"
   d="m 1415.5,63 c -3.58,0 -6.5,-2.92 -6.5,-6.5 v -49 c 0,-3.58 2.92,-6.5 6.5,-6.5 h 49 c 3.58,0 6.5,2.92 6.5,6.5 v 49 c 0,3.58 -2.92,6.5 -6.5,6.5 z"
   class="st23"
   style="stroke:#ff0000;stroke-opacity:0;stroke-width:2;stroke-miterlimit:4;stroke-dasharray:none;filter:url(#filter2916)"
   clip-path="url(#clipPath2160)"
   inkscape:path-effect="#path-effect2164"
   inkscape:original-d="m 1415.5,63 c -3.58,0 -6.5,-2.92 -6.5,-6.5 v -49 c 0,-3.58 2.92,-6.5 6.5,-6.5 h 49 c 3.58,0 6.5,2.92 6.5,6.5 v 49 c 0,3.58 -2.92,6.5 -6.5,6.5 z" /><path
   id="path143"
   d="m 1479.5,63 c -3.58,0 -6.5,-2.92 -6.5,-6.5 v -49 c 0,-3.58 2.92,-6.5 6.5,-6.5 h 49 c 3.58,0 6.5,2.92 6.5,6.5 v 49 c 0,3.58 -2.92,6.5 -6.5,6.5 z"
   class="st24"
   style="stroke:#ff0000;stroke-opacity:0;stroke-width:2;stroke-miterlimit:4;stroke-dasharray:none;filter:url(#filter2924)"
   clip-path="url(#clipPath2152)"
   inkscape:path-effect="#path-effect2156"
   inkscape:original-d="m 1479.5,63 c -3.58,0 -6.5,-2.92 -6.5,-6.5 v -49 c 0,-3.58 2.92,-6.5 6.5,-6.5 h 49 c 3.58,0 6.5,2.92 6.5,6.5 v 49 c 0,3.58 -2.92,6.5 -6.5,6.5 z" /><path
   id="path149"
   d="m 1543.5,63 c -3.58,0 -6.5,-2.92 -6.5,-6.5 v -49 c 0,-3.58 2.92,-6.5 6.5,-6.5 h 49 c 3.58,0 6.5,2.92 6.5,6.5 v 49 c 0,3.58 -2.92,6.5 -6.5,6.5 z"
   class="st25"
   style="stroke:#ff0000;stroke-opacity:0;stroke-width:2;stroke-miterlimit:4;stroke-dasharray:none;filter:url(#filter2932)"
   clip-path="url(#clipPath2144)"
   inkscape:path-effect="#path-effect2148"
   inkscape:original-d="m 1543.5,63 c -3.58,0 -6.5,-2.92 -6.5,-6.5 v -49 c 0,-3.58 2.92,-6.5 6.5,-6.5 h 49 c 3.58,0 6.5,2.92 6.5,6.5 v 49 c 0,3.58 -2.92,6.5 -6.5,6.5 z" /><path
   id="path155"
   d="m 1607.5,63 c -3.58,0 -6.5,-2.92 -6.5,-6.5 v -49 c 0,-3.58 2.92,-6.5 6.5,-6.5 h 49 c 3.58,0 6.5,2.92 6.5,6.5 v 49 c 0,3.58 -2.92,6.5 -6.5,6.5 z"
   class="st26"
   style="stroke:#ff0000;stroke-opacity:0;stroke-width:2;stroke-miterlimit:4;stroke-dasharray:none;filter:url(#filter2940)"
   clip-path="url(#clipPath2136)"
   inkscape:path-effect="#path-effect2140"
   inkscape:original-d="m 1607.5,63 c -3.58,0 -6.5,-2.92 -6.5,-6.5 v -49 c 0,-3.58 2.92,-6.5 6.5,-6.5 h 49 c 3.58,0 6.5,2.92 6.5,6.5 v 49 c 0,3.58 -2.92,6.5 -6.5,6.5 z" />
</svg>
