<?xml version="1.0" encoding="UTF-8" standalone="no"?>
<svg
   xmlns:dc="http://purl.org/dc/elements/1.1/"
   xmlns:cc="http://creativecommons.org/ns#"
   xmlns:rdf="http://www.w3.org/1999/02/22-rdf-syntax-ns#"
   xmlns:svg="http://www.w3.org/2000/svg"
   xmlns="http://www.w3.org/2000/svg"
   xmlns:sodipodi="http://sodipodi.sourceforge.net/DTD/sodipodi-0.dtd"
   xmlns:inkscape="http://www.inkscape.org/namespaces/inkscape"
   inkscape:version="1.0.1 (3bc2e813f5, 2020-09-07)"
   inkscape:export-ydpi="300"
   inkscape:export-xdpi="300"
   inkscape:export-filename="C:\Users\Optipl8\Documents\Numfall\pieceSets\default\sprites\default.png"
   sodipodi:docname="juicy.svg"
   id="svg816"
   xml:space="preserve"
   style="enable-background:new 0 0 1664 64;"
   viewBox="0 0 1664 64"
   y="0px"
   x="0px"
   version="1.1"><metadata
   id="metadata822"><rdf:RDF><cc:Work
       rdf:about=""><dc:format>image/svg+xml</dc:format><dc:type
         rdf:resource="http://purl.org/dc/dcmitype/StillImage" /><dc:title></dc:title></cc:Work></rdf:RDF></metadata><defs
   id="defs820">
	

		
		
		
		
		
		
		
		
		
		
		
		
		
		
		
		
		
		
		
		
		
		
		
		
		
		
		
		
		
		
		
		
		
		
		
		
		
		
		
		
		
		
		
		
		
		
		
		
		
		
		
		
		
		
		
		
		
		
		
		
		
		
		
		
		
		
		
		
		
		
		
		
		
		
		
		
		
		
		
		
		
		
		
		
		
		
		
		
		
		
		
		
		
		
		
		
		
		
		
		
		
		
		
		
		
		
		
		
		
		
		
		
		
		
		
		
		
		
		
		
		
		
		
		
		
		
		
		
		
		
		
		
		
		
		
		
		
		
		
		
		
		
		
		
		
		
		
		
		
		
		
		
		
		
		
		
		
		
		
		
		
		
		
		
		
		
		
		
		
		
		
		
		
		
		
		
		
		
		
		
		
		
		
		
		
		
		
		
		
		
		
		
		
		
		
		
		
		
		
		
		
		
		
		
		
		
		
		
		
		
		
		
		
		
		
		
		
		
		
		
		
		
		
		
		
		
		
		
		
		
		
		
		
		
		
		
		
		
		
		
		
		
		
		
		
		
		
		
		
		
		
		
		
		
		
		
		
		
		
		
		
		
		
		
		
		
		
		
		
		
		
		
		
		
		
		
		
		
		
		
		
		
		
		
		
		
		
		
		
		
		
		
		
		
		
		
		
		
		
		
		
		
		
		
		
		
		
		
		
		
		
		
		
		
		
		
		
		
		
		
		
		
		
		
		
		
		
		
		
		
		
		
		
		
		
		
		
		
		
		
		
		
		
		
		
		
		
		
		
		
		
		
	
			
			
		
			
			
		
			
			
		
			
			
		
			
			
		
			
			
		
			
			
		
			
			
		
			
			
		
			
			
		
			
			
		
			
			
		
			
			
		
			
			
		
			
			
		
			
			
		
			
			
		
			
			
		
			
			
		
			
			
		
			
			
		
			
			
		
			
			
		
			
			
		
			
			
		
			
			
		</defs><sodipodi:namedview
   inkscape:current-layer="svg816"
   inkscape:window-maximized="1"
   inkscape:window-y="-8"
   inkscape:window-x="-8"
   inkscape:cy="45.897424"
   inkscape:cx="261.09238"
   inkscape:zoom="3.5661301"
   showgrid="false"
   id="namedview818"
   inkscape:window-height="877"
   inkscape:window-width="1600"
   inkscape:pageshadow="2"
   inkscape:pageopacity="0"
   guidetolerance="10"
   gridtolerance="10"
   objecttolerance="10"
   borderopacity="1"
   bordercolor="#666666"
   pagecolor="#ffffff"
   inkscape:document-rotation="0" />
<style
   id="style2"
   type="text/css">
	.st0{fill:#C8C8D2;}
	.st1{fill:#FFFFFF;}
	.st2{fill:#DDDFFF;}
	.st3{fill:#BABFFF;}
	.st4{fill:#999FFF;}
	.st5{fill:#777FFF;}
	.st6{fill:#5660FF;}
	.st7{fill:#5897FF;}
	.st8{fill:#59CDFF;}
	.st9{fill:#5CFFFA;}
	.st10{fill:#5DFFC6;}
	.st11{fill:#5EFF92;}
	.st12{fill:#60FF60;}
	.st13{fill:#94FF55;}
	.st14{fill:#CAFF49;}
	.st15{fill:#FFFF3F;}
	.st16{fill:#FFD63E;}
	.st17{fill:#FFAD3C;}
	.st18{fill:#FF8339;}
	.st19{fill:#FF5938;}
	.st20{fill:#FF373F;}
	.st21{fill:#FF575F;}
	.st22{fill:#FE7A7F;}
	.st23{fill:#FF9B9F;}
	.st24{fill:#FFBCBF;}
	.st25{fill:#FFDDDF;}
	.st26{fill:#D2C8C8;}
</style>
<g
   id="colors">
</g>
<path
   id="path5"
   d="m 7.4998109,63.000242 c -3.580028,0 -6.50005093,-2.920022 -6.50005093,-6.500052 V 7.4998106 c 0,-3.5800278 2.92002293,-6.50005063 6.50005093,-6.50005063 H 56.500196 c 3.580025,0 6.500048,2.92002283 6.500048,6.50005063 V 56.50019 c 0,3.58003 -2.920023,6.500052 -6.500048,6.500052 z"
   class="st0"
   style="stroke:#ff0000;stroke-width:1.99952;stroke-miterlimit:4;stroke-dasharray:none;stroke-opacity:0" /><path
   id="path11"
   d="M 71.5,63 C 67.92,63 65,60.08 65,56.5 V 7.5 C 65,3.92 67.92,1 71.5,1 h 49 c 3.58,0 6.5,2.92 6.5,6.5 v 49 c 0,3.58 -2.92,6.5 -6.5,6.5 z"
   class="st2"
   style="stroke:#ff0000;stroke-opacity:0.00350877;stroke-width:2;stroke-miterlimit:4;stroke-dasharray:none" /><path
   id="path17"
   d="M 135.5,63 C 131.92,63 129,60.08 129,56.5 V 7.5 C 129,3.92 131.92,1 135.5,1 h 49 c 3.58,0 6.5,2.92 6.5,6.5 v 49 c 0,3.58 -2.92,6.5 -6.5,6.5 z"
   class="st3"
   style="stroke:#ff0000;stroke-opacity:0" /><path
   id="path23"
   d="M 199.5,63 C 195.92,63 193,60.08 193,56.5 V 7.5 C 193,3.92 195.92,1 199.5,1 h 49 c 3.58,0 6.5,2.92 6.5,6.5 v 49 c 0,3.58 -2.92,6.5 -6.5,6.5 z"
   class="st4"
   style="stroke-width:2;stroke-miterlimit:4;stroke-dasharray:none;stroke:#ff0000;stroke-opacity:0" /><path
   id="path29"
   d="M 263.5,63 C 259.92,63 257,60.08 257,56.5 V 7.5 C 257,3.92 259.92,1 263.5,1 h 49 c 3.58,0 6.5,2.92 6.5,6.5 v 49 c 0,3.58 -2.92,6.5 -6.5,6.5 z"
   class="st5"
   style="stroke-width:2;stroke-miterlimit:4;stroke-dasharray:none;stroke:#ff0000;stroke-opacity:0"
   inkscape:export-filename="C:\Users\Optipl8\Documents\Numfall\backgrounds\default\sprites\backgroundBorder.png"
   inkscape:export-xdpi="300"
   inkscape:export-ydpi="300" /><path
   id="path35"
   d="M 327.5,63 C 323.92,63 321,60.08 321,56.5 V 7.5 C 321,3.92 323.92,1 327.5,1 h 49 c 3.58,0 6.5,2.92 6.5,6.5 v 49 c 0,3.58 -2.92,6.5 -6.5,6.5 z"
   class="st6"
   style="stroke:#ff0000;stroke-opacity:0;stroke-width:2;stroke-miterlimit:4;stroke-dasharray:none" /><path
   id="path41"
   d="M 391.5,63 C 387.92,63 385,60.08 385,56.5 V 7.5 C 385,3.92 387.92,1 391.5,1 h 49 c 3.58,0 6.5,2.92 6.5,6.5 v 49 c 0,3.58 -2.92,6.5 -6.5,6.5 z"
   class="st7"
   style="stroke:#ff0000;stroke-opacity:0;stroke-width:2;stroke-miterlimit:4;stroke-dasharray:none" /><path
   id="path47"
   d="M 455.5,63 C 451.92,63 449,60.08 449,56.5 V 7.5 C 449,3.92 451.92,1 455.5,1 h 49 c 3.58,0 6.5,2.92 6.5,6.5 v 49 c 0,3.58 -2.92,6.5 -6.5,6.5 z"
   class="st8"
   style="stroke:#ff0000;stroke-opacity:0;stroke-width:2;stroke-miterlimit:4;stroke-dasharray:none" /><path
   id="path53"
   d="M 519.5,63 C 515.92,63 513,60.08 513,56.5 V 7.5 C 513,3.92 515.92,1 519.5,1 h 49 c 3.58,0 6.5,2.92 6.5,6.5 v 49 c 0,3.58 -2.92,6.5 -6.5,6.5 z"
   class="st9"
   style="stroke-width:2;stroke-miterlimit:4;stroke-dasharray:none;stroke:#ff0000;stroke-opacity:0" /><path
   id="path59"
   d="M 583.5,63 C 579.92,63 577,60.08 577,56.5 V 7.5 C 577,3.92 579.92,1 583.5,1 h 49 c 3.58,0 6.5,2.92 6.5,6.5 v 49 c 0,3.58 -2.92,6.5 -6.5,6.5 z"
   class="st10"
   style="stroke-width:2;stroke-miterlimit:4;stroke-dasharray:none;stroke:#ff0000;stroke-opacity:0" /><path
   id="path65"
   d="M 647.5,63 C 643.92,63 641,60.08 641,56.5 V 7.5 C 641,3.92 643.92,1 647.5,1 h 49 c 3.58,0 6.5,2.92 6.5,6.5 v 49 c 0,3.58 -2.92,6.5 -6.5,6.5 z"
   class="st11"
   style="stroke:#ff0000;stroke-opacity:0;stroke-width:2;stroke-miterlimit:4;stroke-dasharray:none" /><path
   id="path71"
   d="M 711.5,63 C 707.92,63 705,60.08 705,56.5 V 7.5 C 705,3.92 707.92,1 711.5,1 h 49 c 3.58,0 6.5,2.92 6.5,6.5 v 49 c 0,3.58 -2.92,6.5 -6.5,6.5 z"
   class="st12"
   style="stroke:#ff0000;stroke-opacity:0;stroke-width:2;stroke-miterlimit:4;stroke-dasharray:none" /><path
   id="path77"
   d="M 775.5,63 C 771.92,63 769,60.08 769,56.5 V 7.5 C 769,3.92 771.92,1 775.5,1 h 49 c 3.58,0 6.5,2.92 6.5,6.5 v 49 c 0,3.58 -2.92,6.5 -6.5,6.5 z"
   class="st13"
   style="stroke:#ff0000;stroke-opacity:0;stroke-width:2;stroke-miterlimit:4;stroke-dasharray:none" /><path
   id="path83"
   d="M 839.5,63 C 835.92,63 833,60.08 833,56.5 V 7.5 C 833,3.92 835.92,1 839.5,1 h 49 c 3.58,0 6.5,2.92 6.5,6.5 v 49 c 0,3.58 -2.92,6.5 -6.5,6.5 z"
   class="st14"
   style="stroke-width:2;stroke-miterlimit:4;stroke-dasharray:none;stroke:#ff0000;stroke-opacity:0" /><path
   id="path89"
   d="M 903.5,63 C 899.92,63 897,60.08 897,56.5 V 7.5 C 897,3.92 899.92,1 903.5,1 h 49 c 3.58,0 6.5,2.92 6.5,6.5 v 49 c 0,3.58 -2.92,6.5 -6.5,6.5 z"
   class="st15"
   style="stroke:#ff0000;stroke-opacity:0;stroke-width:2;stroke-miterlimit:4;stroke-dasharray:none" /><path
   id="path95"
   d="M 967.5,63 C 963.92,63 961,60.08 961,56.5 V 7.5 C 961,3.92 963.92,1 967.5,1 h 49 c 3.58,0 6.5,2.92 6.5,6.5 v 49 c 0,3.58 -2.92,6.5 -6.5,6.5 z"
   class="st16"
   style="stroke:#ff0000;stroke-opacity:0;stroke-width:2;stroke-miterlimit:4;stroke-dasharray:none" /><path
   id="path101"
   d="m 1031.5,63 c -3.58,0 -6.5,-2.92 -6.5,-6.5 v -49 c 0,-3.58 2.92,-6.5 6.5,-6.5 h 49 c 3.58,0 6.5,2.92 6.5,6.5 v 49 c 0,3.58 -2.92,6.5 -6.5,6.5 z"
   class="st17"
   style="stroke-width:2;stroke-miterlimit:4;stroke-dasharray:none;stroke:#ff0000;stroke-opacity:0" /><path
   id="path107"
   d="m 1095.5,63 c -3.58,0 -6.5,-2.92 -6.5,-6.5 v -49 c 0,-3.58 2.92,-6.5 6.5,-6.5 h 49 c 3.58,0 6.5,2.92 6.5,6.5 v 49 c 0,3.58 -2.92,6.5 -6.5,6.5 z"
   class="st18"
   style="stroke:#ff0000;stroke-opacity:0;stroke-width:2;stroke-miterlimit:4;stroke-dasharray:none" /><path
   id="path113"
   d="m 1159.5,63 c -3.58,0 -6.5,-2.92 -6.5,-6.5 v -49 c 0,-3.58 2.92,-6.5 6.5,-6.5 h 49 c 3.58,0 6.5,2.92 6.5,6.5 v 49 c 0,3.58 -2.92,6.5 -6.5,6.5 z"
   class="st19"
   style="stroke-width:2;stroke-miterlimit:4;stroke-dasharray:none;stroke:#ff0000;stroke-opacity:0" /><path
   id="path119"
   d="m 1223.5,63 c -3.58,0 -6.5,-2.92 -6.5,-6.5 v -49 c 0,-3.58 2.92,-6.5 6.5,-6.5 h 49 c 3.58,0 6.5,2.92 6.5,6.5 v 49 c 0,3.58 -2.92,6.5 -6.5,6.5 z"
   class="st20"
   style="stroke:#ff0000;stroke-opacity:0;stroke-width:2;stroke-miterlimit:4;stroke-dasharray:none" /><path
   id="path125"
   d="m 1287.5,63 c -3.58,0 -6.5,-2.92 -6.5,-6.5 v -49 c 0,-3.58 2.92,-6.5 6.5,-6.5 h 49 c 3.58,0 6.5,2.92 6.5,6.5 v 49 c 0,3.58 -2.92,6.5 -6.5,6.5 z"
   class="st21"
   style="stroke:#ff0000;stroke-opacity:0;stroke-width:2;stroke-miterlimit:4;stroke-dasharray:none" /><path
   id="path131"
   d="m 1351.5,63 c -3.58,0 -6.5,-2.92 -6.5,-6.5 v -49 c 0,-3.58 2.92,-6.5 6.5,-6.5 h 49 c 3.58,0 6.5,2.92 6.5,6.5 v 49 c 0,3.58 -2.92,6.5 -6.5,6.5 z"
   class="st22"
   style="stroke:#ff0000;stroke-opacity:0;stroke-width:2;stroke-miterlimit:4;stroke-dasharray:none" /><path
   id="path137"
   d="m 1415.5,63 c -3.58,0 -6.5,-2.92 -6.5,-6.5 v -49 c 0,-3.58 2.92,-6.5 6.5,-6.5 h 49 c 3.58,0 6.5,2.92 6.5,6.5 v 49 c 0,3.58 -2.92,6.5 -6.5,6.5 z"
   class="st23"
   style="stroke:#ff0000;stroke-opacity:0;stroke-width:2;stroke-miterlimit:4;stroke-dasharray:none" /><path
   id="path143"
   d="m 1479.5,63 c -3.58,0 -6.5,-2.92 -6.5,-6.5 v -49 c 0,-3.58 2.92,-6.5 6.5,-6.5 h 49 c 3.58,0 6.5,2.92 6.5,6.5 v 49 c 0,3.58 -2.92,6.5 -6.5,6.5 z"
   class="st24"
   style="stroke:#ff0000;stroke-opacity:0;stroke-width:2;stroke-miterlimit:4;stroke-dasharray:none" /><path
   id="path149"
   d="m 1543.5,63 c -3.58,0 -6.5,-2.92 -6.5,-6.5 v -49 c 0,-3.58 2.92,-6.5 6.5,-6.5 h 49 c 3.58,0 6.5,2.92 6.5,6.5 v 49 c 0,3.58 -2.92,6.5 -6.5,6.5 z"
   class="st25"
   style="stroke:#ff0000;stroke-opacity:0;stroke-width:2;stroke-miterlimit:4;stroke-dasharray:none" /><path
   id="path155"
   d="m 1607.5,63 c -3.58,0 -6.5,-2.92 -6.5,-6.5 v -49 c 0,-3.58 2.92,-6.5 6.5,-6.5 h 49 c 3.58,0 6.5,2.92 6.5,6.5 v 49 c 0,3.58 -2.92,6.5 -6.5,6.5 z"
   class="st26"
   style="stroke:#ff0000;stroke-opacity:0;stroke-width:2;stroke-miterlimit:4;stroke-dasharray:none" /><circle
   id="circle161"
   r="4"
   cy="32"
   cx="32" /><circle
   id="circle163"
   r="4"
   cy="32"
   cx="160" /><circle
   id="circle165"
   r="4"
   cy="22"
   cx="86" /><circle
   id="circle167"
   r="4"
   cy="42"
   cx="106" /><circle
   id="circle169"
   r="4"
   cy="22"
   cx="150" /><circle
   id="circle171"
   r="4"
   cy="22"
   cx="234" /><circle
   id="circle173"
   r="4"
   cy="42"
   cx="170" /><circle
   id="circle175"
   r="4"
   cy="42"
   cx="214" /><circle
   id="circle177"
   r="4"
   cy="22"
   cx="214" /><circle
   id="circle179"
   r="4"
   cy="42"
   cx="234" /><circle
   id="circle181"
   r="4"
   cy="22"
   cx="298" /><circle
   id="circle183"
   r="4"
   cy="32"
   cx="288" /><circle
   id="circle185"
   r="4"
   cy="42"
   cx="278" /><circle
   id="circle187"
   r="4"
   cy="22"
   cx="278" /><circle
   id="circle189"
   r="4"
   cy="32"
   cx="362" /><circle
   id="circle191"
   r="4"
   cy="32"
   cx="342" /><circle
   id="circle193"
   r="4"
   cy="42"
   cx="298" /><circle
   id="circle195"
   r="4"
   cy="22"
   cx="362" /><circle
   id="circle197"
   r="4"
   cy="42"
   cx="342" /><circle
   id="circle199"
   r="4"
   cy="22"
   cx="342" /><circle
   id="circle201"
   r="4"
   cy="42"
   cx="362" /><circle
   id="circle203"
   r="4"
   cy="32"
   cx="426" /><circle
   id="circle205"
   r="4"
   cy="32"
   cx="406" /><circle
   id="circle207"
   r="4"
   cy="22"
   cx="426" /><circle
   id="circle209"
   r="4"
   cy="32"
   cx="416" /><circle
   id="circle211"
   r="4"
   cy="22"
   cx="480" /><circle
   id="circle213"
   r="4"
   cy="42"
   cx="480" /><circle
   id="circle215"
   r="4"
   cy="42"
   cx="406" /><circle
   id="circle217"
   r="4"
   cy="22"
   cx="406" /><circle
   id="circle219"
   r="4"
   cy="42"
   cx="426" /><circle
   id="circle221"
   r="4"
   cy="32"
   cx="490" /><circle
   id="circle223"
   r="4"
   cy="32"
   cx="470" /><circle
   id="circle225"
   r="4"
   cy="22"
   cx="490" /><circle
   id="circle227"
   r="4"
   cy="42"
   cx="470" /><circle
   id="circle229"
   r="4"
   cy="22"
   cx="470" /><circle
   id="circle231"
   r="4"
   cy="42"
   cx="490" /><circle
   id="circle233"
   r="4"
   cy="22"
   cx="608" /><circle
   id="circle235"
   r="4"
   cy="12"
   cx="608" /><circle
   id="circle237"
   r="4"
   cy="42"
   cx="608" /><circle
   id="circle239"
   r="4"
   cy="52"
   cx="608" /><circle
   id="circle241"
   r="4"
   cy="32"
   cx="618" /><circle
   id="circle243"
   r="4"
   cy="32"
   cx="598" /><circle
   id="circle245"
   r="4"
   cy="22"
   cx="618" /><circle
   id="circle247"
   r="4"
   cy="42"
   cx="598" /><circle
   id="circle249"
   r="4"
   cy="22"
   cx="598" /><circle
   id="circle251"
   r="4"
   cy="42"
   cx="618" /><circle
   id="circle253"
   r="4"
   cy="22"
   cx="736" /><circle
   id="circle255"
   r="4"
   cy="12"
   cx="736" /><circle
   id="circle257"
   r="4"
   cy="42"
   cx="736" /><circle
   id="circle259"
   r="4"
   cy="52"
   cx="736" /><circle
   id="circle261"
   r="4"
   cy="32"
   cx="746" /><circle
   id="circle263"
   r="4"
   cy="32"
   cx="726" /><circle
   id="circle265"
   r="4"
   cy="32"
   cx="756" /><circle
   id="circle267"
   r="4"
   cy="32"
   cx="716" /><circle
   id="circle269"
   r="4"
   cy="22"
   cx="746" /><circle
   id="circle271"
   r="4"
   cy="42"
   cx="726" /><circle
   id="circle273"
   r="4"
   cy="22"
   cx="726" /><circle
   id="circle275"
   r="4"
   cy="42"
   cx="746" /><circle
   id="circle277"
   r="4"
   cy="22"
   cx="864" /><circle
   id="circle279"
   r="4"
   cy="12"
   cx="864" /><circle
   id="circle281"
   r="4"
   cy="42"
   cx="864" /><circle
   id="circle283"
   r="4"
   cy="52"
   cx="864" /><circle
   id="circle285"
   r="4"
   cy="32"
   cx="874" /><circle
   id="circle287"
   r="4"
   cy="32"
   cx="854" /><circle
   id="circle289"
   r="4"
   cy="32"
   cx="884" /><circle
   id="circle291"
   r="4"
   cy="42"
   cx="884" /><circle
   id="circle293"
   r="4"
   cy="32"
   cx="844" /><circle
   id="circle295"
   r="4"
   cy="22"
   cx="874" /><circle
   id="circle297"
   r="4"
   cy="42"
   cx="854" /><circle
   id="circle299"
   r="4"
   cy="22"
   cx="854" /><circle
   id="circle301"
   r="4"
   cy="22"
   cx="844" /><circle
   id="circle303"
   r="4"
   cy="42"
   cx="874" /><circle
   id="circle305"
   r="4"
   cy="22"
   cx="992" /><circle
   id="circle307"
   r="4"
   cy="12"
   cx="992" /><circle
   id="circle309"
   r="4"
   cy="12"
   cx="982" /><circle
   id="circle311"
   r="4"
   cy="42"
   cx="992" /><circle
   id="circle313"
   r="4"
   cy="52"
   cx="992" /><circle
   id="circle315"
   r="4"
   cy="32"
   cx="1002" /><circle
   id="circle317"
   r="4"
   cy="32"
   cx="982" /><circle
   id="circle319"
   r="4"
   cy="32"
   cx="1012" /><circle
   id="circle321"
   r="4"
   cy="42"
   cx="1012" /><circle
   id="circle323"
   r="4"
   cy="32"
   cx="972" /><circle
   id="circle325"
   r="4"
   cy="22"
   cx="1002" /><circle
   id="circle327"
   r="4"
   cy="42"
   cx="982" /><circle
   id="circle329"
   r="4"
   cy="22"
   cx="982" /><circle
   id="circle331"
   r="4"
   cy="22"
   cx="972" /><circle
   id="circle333"
   r="4"
   cy="42"
   cx="1002" /><circle
   id="circle335"
   r="4"
   cy="52"
   cx="1002" /><circle
   id="circle337"
   r="4"
   cy="22"
   cx="1120" /><circle
   id="circle339"
   r="4"
   cy="12"
   cx="1120" /><circle
   id="circle341"
   r="4"
   cy="12"
   cx="1110" /><circle
   id="circle343"
   r="4"
   cy="42"
   cx="1120" /><circle
   id="circle345"
   r="4"
   cy="52"
   cx="1120" /><circle
   id="circle347"
   r="4"
   cy="32"
   cx="1130" /><circle
   id="circle349"
   r="4"
   cy="32"
   cx="1110" /><circle
   id="circle351"
   r="4"
   cy="32"
   cx="1140" /><circle
   id="circle353"
   r="4"
   cy="42"
   cx="1140" /><circle
   id="circle355"
   r="4"
   cy="32"
   cx="1100" /><circle
   id="circle357"
   r="4"
   cy="22"
   cx="1130" /><circle
   id="circle359"
   r="4"
   cy="12"
   cx="1130" /><circle
   id="circle361"
   r="4"
   cy="42"
   cx="1110" /><circle
   id="circle363"
   r="4"
   cy="52"
   cx="1110" /><circle
   id="circle365"
   r="4"
   cy="22"
   cx="1110" /><circle
   id="circle367"
   r="4"
   cy="22"
   cx="1100" /><circle
   id="circle369"
   r="4"
   cy="42"
   cx="1130" /><circle
   id="circle371"
   r="4"
   cy="52"
   cx="1130" /><circle
   id="circle373"
   r="4"
   cy="22"
   cx="1248" /><circle
   id="circle375"
   r="4"
   cy="12"
   cx="1248" /><circle
   id="circle377"
   r="4"
   cy="12"
   cx="1238" /><circle
   id="circle379"
   r="4"
   cy="42"
   cx="1248" /><circle
   id="circle381"
   r="4"
   cy="52"
   cx="1248" /><circle
   id="circle383"
   r="4"
   cy="32"
   cx="1258" /><circle
   id="circle385"
   r="4"
   cy="32"
   cx="1238" /><circle
   id="circle387"
   r="4"
   cy="32"
   cx="1268" /><circle
   id="circle389"
   r="4"
   cy="22"
   cx="1268" /><circle
   id="circle391"
   r="4"
   cy="42"
   cx="1268" /><circle
   id="circle393"
   r="4"
   cy="32"
   cx="1228" /><circle
   id="circle395"
   r="4"
   cy="42"
   cx="1228" /><circle
   id="circle397"
   r="4"
   cy="22"
   cx="1258" /><circle
   id="circle399"
   r="4"
   cy="12"
   cx="1258" /><circle
   id="circle401"
   r="4"
   cy="42"
   cx="1238" /><circle
   id="circle403"
   r="4"
   cy="52"
   cx="1238" /><circle
   id="circle405"
   r="4"
   cy="22"
   cx="1238" /><circle
   id="circle407"
   r="4"
   cy="22"
   cx="1228" /><circle
   id="circle409"
   r="4"
   cy="42"
   cx="1258" /><circle
   id="circle411"
   r="4"
   cy="52"
   cx="1258" /><circle
   id="circle413"
   r="4"
   cy="22"
   cx="1376" /><circle
   id="circle415"
   r="4"
   cy="12"
   cx="1376" /><circle
   id="circle417"
   r="4"
   cy="12"
   cx="1366" /><circle
   id="circle419"
   r="4"
   cy="42"
   cx="1376" /><circle
   id="circle421"
   r="4"
   cy="52"
   cx="1376" /><circle
   id="circle423"
   r="4"
   cy="32"
   cx="1386" /><circle
   id="circle425"
   r="4"
   cy="32"
   cx="1366" /><circle
   id="circle427"
   r="4"
   cy="32"
   cx="1396" /><circle
   id="circle429"
   r="4"
   cy="22"
   cx="1396" /><circle
   id="circle431"
   r="4"
   cy="42"
   cx="1396" /><circle
   id="circle433"
   r="4"
   cy="52"
   cx="1396" /><circle
   id="circle435"
   r="4"
   cy="32"
   cx="1356" /><circle
   id="circle437"
   r="4"
   cy="42"
   cx="1356" /><circle
   id="circle439"
   r="4"
   cy="22"
   cx="1386" /><circle
   id="circle441"
   r="4"
   cy="12"
   cx="1386" /><circle
   id="circle443"
   r="4"
   cy="42"
   cx="1366" /><circle
   id="circle445"
   r="4"
   cy="52"
   cx="1366" /><circle
   id="circle447"
   r="4"
   cy="22"
   cx="1366" /><circle
   id="circle449"
   r="4"
   cy="22"
   cx="1356" /><circle
   id="circle451"
   r="4"
   cy="12"
   cx="1356" /><circle
   id="circle453"
   r="4"
   cy="42"
   cx="1386" /><circle
   id="circle455"
   r="4"
   cy="52"
   cx="1386" /><circle
   id="circle457"
   r="4"
   cy="22"
   cx="1440" /><circle
   id="circle459"
   r="4"
   cy="32"
   cx="1440" /><circle
   id="circle461"
   r="4"
   cy="12"
   cx="1440" /><circle
   id="circle463"
   r="4"
   cy="12"
   cx="1430" /><circle
   id="circle465"
   r="4"
   cy="42"
   cx="1440" /><circle
   id="circle467"
   r="4"
   cy="52"
   cx="1440" /><circle
   id="circle469"
   r="4"
   cy="32"
   cx="1450" /><circle
   id="circle471"
   r="4"
   cy="32"
   cx="1430" /><circle
   id="circle473"
   r="4"
   cy="32"
   cx="1460" /><circle
   id="circle475"
   r="4"
   cy="22"
   cx="1460" /><circle
   id="circle477"
   r="4"
   cy="42"
   cx="1460" /><circle
   id="circle479"
   r="4"
   cy="52"
   cx="1460" /><circle
   id="circle481"
   r="4"
   cy="32"
   cx="1420" /><circle
   id="circle483"
   r="4"
   cy="42"
   cx="1420" /><circle
   id="circle485"
   r="4"
   cy="22"
   cx="1450" /><circle
   id="circle487"
   r="4"
   cy="12"
   cx="1450" /><circle
   id="circle489"
   r="4"
   cy="42"
   cx="1430" /><circle
   id="circle491"
   r="4"
   cy="52"
   cx="1430" /><circle
   id="circle493"
   r="4"
   cy="22"
   cx="1430" /><circle
   id="circle495"
   r="4"
   cy="22"
   cx="1420" /><circle
   id="circle497"
   r="4"
   cy="12"
   cx="1420" /><circle
   id="circle499"
   r="4"
   cy="42"
   cx="1450" /><circle
   id="circle501"
   r="4"
   cy="52"
   cx="1450" /><circle
   id="circle503"
   r="4"
   cy="22"
   cx="1504" /><circle
   id="circle505"
   r="4"
   cy="12"
   cx="1524" /><circle
   id="circle507"
   r="4"
   cy="12"
   cx="1504" /><circle
   id="circle509"
   r="4"
   cy="12"
   cx="1494" /><circle
   id="circle511"
   r="4"
   cy="42"
   cx="1504" /><circle
   id="circle513"
   r="4"
   cy="52"
   cx="1504" /><circle
   id="circle515"
   r="4"
   cy="32"
   cx="1514" /><circle
   id="circle517"
   r="4"
   cy="32"
   cx="1494" /><circle
   id="circle519"
   r="4"
   cy="52"
   cx="1484" /><circle
   id="circle521"
   r="4"
   cy="32"
   cx="1524" /><circle
   id="circle523"
   r="4"
   cy="22"
   cx="1524" /><circle
   id="circle525"
   r="4"
   cy="42"
   cx="1524" /><circle
   id="circle527"
   r="4"
   cy="52"
   cx="1524" /><circle
   id="circle529"
   r="4"
   cy="32"
   cx="1484" /><circle
   id="circle531"
   r="4"
   cy="42"
   cx="1484" /><circle
   id="circle533"
   r="4"
   cy="22"
   cx="1514" /><circle
   id="circle535"
   r="4"
   cy="12"
   cx="1514" /><circle
   id="circle537"
   r="4"
   cy="42"
   cx="1494" /><circle
   id="circle539"
   r="4"
   cy="52"
   cx="1494" /><circle
   id="circle541"
   r="4"
   cy="22"
   cx="1494" /><circle
   id="circle543"
   r="4"
   cy="22"
   cx="1484" /><circle
   id="circle545"
   r="4"
   cy="12"
   cx="1484" /><circle
   id="circle547"
   r="4"
   cy="42"
   cx="1514" /><circle
   id="circle549"
   r="4"
   cy="52"
   cx="1514" /><circle
   id="circle551"
   r="4"
   cy="22"
   cx="1568" /><circle
   id="circle553"
   r="4"
   cy="32"
   cx="1568" /><circle
   id="circle555"
   r="4"
   cy="12"
   cx="1588" /><circle
   id="circle557"
   r="4"
   cy="12"
   cx="1568" /><circle
   id="circle559"
   r="4"
   cy="12"
   cx="1558" /><circle
   id="circle561"
   r="4"
   cy="42"
   cx="1568" /><circle
   id="circle563"
   r="4"
   cy="52"
   cx="1568" /><circle
   id="circle565"
   r="4"
   cy="32"
   cx="1578" /><circle
   id="circle567"
   r="4"
   cy="32"
   cx="1558" /><circle
   id="circle569"
   r="4"
   cy="52"
   cx="1548" /><circle
   id="circle571"
   r="4"
   cy="32"
   cx="1588" /><circle
   id="circle573"
   r="4"
   cy="22"
   cx="1588" /><circle
   id="circle575"
   r="4"
   cy="42"
   cx="1588" /><circle
   id="circle577"
   r="4"
   cy="52"
   cx="1588" /><circle
   id="circle579"
   r="4"
   cy="32"
   cx="1548" /><circle
   id="circle581"
   r="4"
   cy="42"
   cx="1548" /><circle
   id="circle583"
   r="4"
   cy="22"
   cx="1578" /><circle
   id="circle585"
   r="4"
   cy="12"
   cx="1578" /><circle
   id="circle587"
   r="4"
   cy="42"
   cx="1558" /><circle
   id="circle589"
   r="4"
   cy="52"
   cx="1558" /><circle
   id="circle591"
   r="4"
   cy="22"
   cx="1558" /><circle
   id="circle593"
   r="4"
   cy="22"
   cx="1548" /><circle
   id="circle595"
   r="4"
   cy="12"
   cx="1548" /><circle
   id="circle597"
   r="4"
   cy="42"
   cx="1578" /><circle
   id="circle599"
   r="4"
   cy="52"
   cx="1578" /><circle
   id="circle601"
   r="4"
   cy="22"
   cx="1312" /><circle
   id="circle603"
   r="4"
   cy="32"
   cx="1312" /><circle
   id="circle605"
   r="4"
   cy="12"
   cx="1312" /><circle
   id="circle607"
   r="4"
   cy="12"
   cx="1302" /><circle
   id="circle609"
   r="4"
   cy="42"
   cx="1312" /><circle
   id="circle611"
   r="4"
   cy="52"
   cx="1312" /><circle
   id="circle613"
   r="4"
   cy="32"
   cx="1322" /><circle
   id="circle615"
   r="4"
   cy="32"
   cx="1302" /><circle
   id="circle617"
   r="4"
   cy="32"
   cx="1332" /><circle
   id="circle619"
   r="4"
   cy="22"
   cx="1332" /><circle
   id="circle621"
   r="4"
   cy="42"
   cx="1332" /><circle
   id="circle623"
   r="4"
   cy="32"
   cx="1292" /><circle
   id="circle625"
   r="4"
   cy="42"
   cx="1292" /><circle
   id="circle627"
   r="4"
   cy="22"
   cx="1322" /><circle
   id="circle629"
   r="4"
   cy="12"
   cx="1322" /><circle
   id="circle631"
   r="4"
   cy="42"
   cx="1302" /><circle
   id="circle633"
   r="4"
   cy="52"
   cx="1302" /><circle
   id="circle635"
   r="4"
   cy="22"
   cx="1302" /><circle
   id="circle637"
   r="4"
   cy="22"
   cx="1292" /><circle
   id="circle639"
   r="4"
   cy="42"
   cx="1322" /><circle
   id="circle641"
   r="4"
   cy="52"
   cx="1322" /><circle
   id="circle643"
   r="4"
   cy="22"
   cx="1184" /><circle
   id="circle645"
   r="4"
   cy="32"
   cx="1184" /><circle
   id="circle647"
   r="4"
   cy="12"
   cx="1184" /><circle
   id="circle649"
   r="4"
   cy="12"
   cx="1174" /><circle
   id="circle651"
   r="4"
   cy="42"
   cx="1184" /><circle
   id="circle653"
   r="4"
   cy="52"
   cx="1184" /><circle
   id="circle655"
   r="4"
   cy="32"
   cx="1194" /><circle
   id="circle657"
   r="4"
   cy="32"
   cx="1174" /><circle
   id="circle659"
   r="4"
   cy="32"
   cx="1204" /><circle
   id="circle661"
   r="4"
   cy="42"
   cx="1204" /><circle
   id="circle663"
   r="4"
   cy="32"
   cx="1164" /><circle
   id="circle665"
   r="4"
   cy="22"
   cx="1194" /><circle
   id="circle667"
   r="4"
   cy="12"
   cx="1194" /><circle
   id="circle669"
   r="4"
   cy="42"
   cx="1174" /><circle
   id="circle671"
   r="4"
   cy="52"
   cx="1174" /><circle
   id="circle673"
   r="4"
   cy="22"
   cx="1174" /><circle
   id="circle675"
   r="4"
   cy="22"
   cx="1164" /><circle
   id="circle677"
   r="4"
   cy="42"
   cx="1194" /><circle
   id="circle679"
   r="4"
   cy="52"
   cx="1194" /><circle
   id="circle681"
   r="4"
   cy="22"
   cx="1056" /><circle
   id="circle683"
   r="4"
   cy="32"
   cx="1056" /><circle
   id="circle685"
   r="4"
   cy="12"
   cx="1056" /><circle
   id="circle687"
   r="4"
   cy="12"
   cx="1046" /><circle
   id="circle689"
   r="4"
   cy="42"
   cx="1056" /><circle
   id="circle691"
   r="4"
   cy="52"
   cx="1056" /><circle
   id="circle693"
   r="4"
   cy="32"
   cx="1066" /><circle
   id="circle695"
   r="4"
   cy="32"
   cx="1046" /><circle
   id="circle697"
   r="4"
   cy="32"
   cx="1076" /><circle
   id="circle699"
   r="4"
   cy="42"
   cx="1076" /><circle
   id="circle701"
   r="4"
   cy="32"
   cx="1036" /><circle
   id="circle703"
   r="4"
   cy="22"
   cx="1066" /><circle
   id="circle705"
   r="4"
   cy="42"
   cx="1046" /><circle
   id="circle707"
   r="4"
   cy="22"
   cx="1046" /><circle
   id="circle709"
   r="4"
   cy="22"
   cx="1036" /><circle
   id="circle711"
   r="4"
   cy="42"
   cx="1066" /><circle
   id="circle713"
   r="4"
   cy="52"
   cx="1066" /><circle
   id="circle715"
   r="4"
   cy="22"
   cx="928" /><circle
   id="circle717"
   r="4"
   cy="32"
   cx="928" /><circle
   id="circle719"
   r="4"
   cy="12"
   cx="928" /><circle
   id="circle721"
   r="4"
   cy="42"
   cx="928" /><circle
   id="circle723"
   r="4"
   cy="52"
   cx="928" /><circle
   id="circle725"
   r="4"
   cy="32"
   cx="938" /><circle
   id="circle727"
   r="4"
   cy="32"
   cx="918" /><circle
   id="circle729"
   r="4"
   cy="32"
   cx="948" /><circle
   id="circle731"
   r="4"
   cy="42"
   cx="948" /><circle
   id="circle733"
   r="4"
   cy="32"
   cx="908" /><circle
   id="circle735"
   r="4"
   cy="22"
   cx="938" /><circle
   id="circle737"
   r="4"
   cy="42"
   cx="918" /><circle
   id="circle739"
   r="4"
   cy="22"
   cx="918" /><circle
   id="circle741"
   r="4"
   cy="22"
   cx="908" /><circle
   id="circle743"
   r="4"
   cy="42"
   cx="938" /><circle
   id="circle745"
   r="4"
   cy="22"
   cx="800" /><circle
   id="circle747"
   r="4"
   cy="32"
   cx="800" /><circle
   id="circle749"
   r="4"
   cy="12"
   cx="800" /><circle
   id="circle751"
   r="4"
   cy="42"
   cx="800" /><circle
   id="circle753"
   r="4"
   cy="52"
   cx="800" /><circle
   id="circle755"
   r="4"
   cy="32"
   cx="810" /><circle
   id="circle757"
   r="4"
   cy="32"
   cx="790" /><circle
   id="circle759"
   r="4"
   cy="32"
   cx="820" /><circle
   id="circle761"
   r="4"
   cy="32"
   cx="780" /><circle
   id="circle763"
   r="4"
   cy="22"
   cx="810" /><circle
   id="circle765"
   r="4"
   cy="42"
   cx="790" /><circle
   id="circle767"
   r="4"
   cy="22"
   cx="790" /><circle
   id="circle769"
   r="4"
   cy="42"
   cx="810" /><circle
   id="circle771"
   r="4"
   cy="22"
   cx="672" /><circle
   id="circle773"
   r="4"
   cy="32"
   cx="672" /><circle
   id="circle775"
   r="4"
   cy="12"
   cx="672" /><circle
   id="circle777"
   r="4"
   cy="42"
   cx="672" /><circle
   id="circle779"
   r="4"
   cy="52"
   cx="672" /><circle
   id="circle781"
   r="4"
   cy="32"
   cx="682" /><circle
   id="circle783"
   r="4"
   cy="32"
   cx="662" /><circle
   id="circle785"
   r="4"
   cy="22"
   cx="682" /><circle
   id="circle787"
   r="4"
   cy="42"
   cx="662" /><circle
   id="circle789"
   r="4"
   cy="22"
   cx="662" /><circle
   id="circle791"
   r="4"
   cy="42"
   cx="682" /><circle
   id="circle793"
   r="4"
   cy="22"
   cx="544" /><circle
   id="circle795"
   r="4"
   cy="32"
   cx="544" /><circle
   id="circle797"
   r="4"
   cy="42"
   cx="544" /><circle
   id="circle799"
   r="4"
   cy="32"
   cx="554" /><circle
   id="circle801"
   r="4"
   cy="32"
   cx="534" /><circle
   id="circle803"
   r="4"
   cy="22"
   cx="554" /><circle
   id="circle805"
   r="4"
   cy="42"
   cx="534" /><circle
   id="circle807"
   r="4"
   cy="22"
   cx="534" /><circle
   id="circle809"
   r="4"
   cy="42"
   cx="554" /><circle
   id="circle811"
   r="24"
   cy="32"
   cx="1632" />
</svg>
