<?xml version="1.0" encoding="UTF-8" standalone="no"?>
<svg
   xmlns:dc="http://purl.org/dc/elements/1.1/"
   xmlns:cc="http://creativecommons.org/ns#"
   xmlns:rdf="http://www.w3.org/1999/02/22-rdf-syntax-ns#"
   xmlns:svg="http://www.w3.org/2000/svg"
   xmlns="http://www.w3.org/2000/svg"
   xmlns:sodipodi="http://sodipodi.sourceforge.net/DTD/sodipodi-0.dtd"
   xmlns:inkscape="http://www.inkscape.org/namespaces/inkscape"
   inkscape:version="1.0 (4035a4fb49, 2020-05-01)"
   inkscape:export-ydpi="300"
   inkscape:export-xdpi="300"
   inkscape:export-filename="C:\Users\N8\Desktop\numfall_android\pieceSets\default\sprites\default.png"
   sodipodi:docname="default.svg"
   id="svg816"
   xml:space="preserve"
   style="enable-background:new 0 0 1664 64;"
   viewBox="0 0 1664 64"
   y="0px"
   x="0px"
   version="1.1"><metadata
   id="metadata822"><rdf:RDF><cc:Work
       rdf:about=""><dc:format>image/svg+xml</dc:format><dc:type
         rdf:resource="http://purl.org/dc/dcmitype/StillImage" /></cc:Work></rdf:RDF></metadata><defs
   id="defs820" /><sodipodi:namedview
   inkscape:current-layer="svg816"
   inkscape:window-maximized="1"
   inkscape:window-y="-8"
   inkscape:window-x="-8"
   inkscape:cy="47.420088"
   inkscape:cx="66.588894"
   inkscape:zoom="3.5661299"
   showgrid="false"
   id="namedview818"
   inkscape:window-height="745"
   inkscape:window-width="1366"
   inkscape:pageshadow="2"
   inkscape:pageopacity="0"
   guidetolerance="10"
   gridtolerance="10"
   objecttolerance="10"
   borderopacity="1"
   bordercolor="#666666"
   pagecolor="#ffffff" />
<style
   id="style2"
   type="text/css">
	.st0{fill:#C8C8D2;}
	.st1{fill:#FFFFFF;}
	.st2{fill:#DDDFFF;}
	.st3{fill:#BABFFF;}
	.st4{fill:#999FFF;}
	.st5{fill:#777FFF;}
	.st6{fill:#5660FF;}
	.st7{fill:#5897FF;}
	.st8{fill:#59CDFF;}
	.st9{fill:#5CFFFA;}
	.st10{fill:#5DFFC6;}
	.st11{fill:#5EFF92;}
	.st12{fill:#60FF60;}
	.st13{fill:#94FF55;}
	.st14{fill:#CAFF49;}
	.st15{fill:#FFFF3F;}
	.st16{fill:#FFD63E;}
	.st17{fill:#FFAD3C;}
	.st18{fill:#FF8339;}
	.st19{fill:#FF5938;}
	.st20{fill:#FF373F;}
	.st21{fill:#FF575F;}
	.st22{fill:#FE7A7F;}
	.st23{fill:#FF9B9F;}
	.st24{fill:#FFBCBF;}
	.st25{fill:#FFDDDF;}
	.st26{fill:#D2C8C8;}
</style>
<g
   id="colors">
</g>
<g
   id="dots">
	<g
   id="g813">
		<g
   id="g9">
			<path
   id="path5"
   d="M7.5,63C3.92,63,1,60.08,1,56.5v-49C1,3.92,3.92,1,7.5,1h49C60.08,1,63,3.92,63,7.5v49     c0,3.58-2.92,6.5-6.5,6.5H7.5z"
   class="st0" />
			<path
   id="path7"
   d="M56.5,2C59.53,2,62,4.47,62,7.5v49c0,3.03-2.47,5.5-5.5,5.5h-49C4.47,62,2,59.53,2,56.5v-49     C2,4.47,4.47,2,7.5,2H56.5 M56.5,0h-49C3.38,0,0,3.38,0,7.5v49C0,60.62,3.38,64,7.5,64h49c4.12,0,7.5-3.38,7.5-7.5v-49     C64,3.38,60.62,0,56.5,0L56.5,0z"
   class="st1" />
		</g>
		<g
   id="g15">
			<path
   id="path11"
   d="M71.5,63c-3.58,0-6.5-2.92-6.5-6.5v-49C65,3.92,67.92,1,71.5,1h49c3.58,0,6.5,2.92,6.5,6.5v49     c0,3.58-2.92,6.5-6.5,6.5H71.5z"
   class="st2" />
			<path
   id="path13"
   d="M120.5,2c3.03,0,5.5,2.47,5.5,5.5v49c0,3.03-2.47,5.5-5.5,5.5h-49c-3.03,0-5.5-2.47-5.5-5.5v-49     C66,4.47,68.47,2,71.5,2H120.5 M120.5,0h-49C67.38,0,64,3.38,64,7.5v49c0,4.12,3.38,7.5,7.5,7.5h49c4.12,0,7.5-3.38,7.5-7.5v-49     C128,3.38,124.62,0,120.5,0L120.5,0z"
   class="st1" />
		</g>
		<g
   id="g21">
			<path
   id="path17"
   d="M135.5,63c-3.58,0-6.5-2.92-6.5-6.5v-49c0-3.58,2.92-6.5,6.5-6.5h49c3.58,0,6.5,2.92,6.5,6.5v49     c0,3.58-2.92,6.5-6.5,6.5H135.5z"
   class="st3" />
			<path
   id="path19"
   d="M184.5,2c3.03,0,5.5,2.47,5.5,5.5v49c0,3.03-2.47,5.5-5.5,5.5h-49c-3.03,0-5.5-2.47-5.5-5.5v-49     c0-3.03,2.47-5.5,5.5-5.5H184.5 M184.5,0h-49c-4.12,0-7.5,3.38-7.5,7.5v49c0,4.12,3.38,7.5,7.5,7.5h49c4.12,0,7.5-3.38,7.5-7.5     v-49C192,3.38,188.62,0,184.5,0L184.5,0z"
   class="st1" />
		</g>
		<g
   id="g27">
			<path
   id="path23"
   d="M199.5,63c-3.58,0-6.5-2.92-6.5-6.5v-49c0-3.58,2.92-6.5,6.5-6.5h49c3.58,0,6.5,2.92,6.5,6.5v49     c0,3.58-2.92,6.5-6.5,6.5H199.5z"
   class="st4" />
			<path
   id="path25"
   d="M248.5,2c3.03,0,5.5,2.47,5.5,5.5v49c0,3.03-2.47,5.5-5.5,5.5h-49c-3.03,0-5.5-2.47-5.5-5.5v-49     c0-3.03,2.47-5.5,5.5-5.5H248.5 M248.5,0h-49c-4.12,0-7.5,3.38-7.5,7.5v49c0,4.12,3.38,7.5,7.5,7.5h49c4.12,0,7.5-3.38,7.5-7.5     v-49C256,3.38,252.62,0,248.5,0L248.5,0z"
   class="st1" />
		</g>
		<g
   id="g33">
			<path
   id="path29"
   d="M263.5,63c-3.58,0-6.5-2.92-6.5-6.5v-49c0-3.58,2.92-6.5,6.5-6.5h49c3.58,0,6.5,2.92,6.5,6.5v49     c0,3.58-2.92,6.5-6.5,6.5H263.5z"
   class="st5" />
			<path
   id="path31"
   d="M312.5,2c3.03,0,5.5,2.47,5.5,5.5v49c0,3.03-2.47,5.5-5.5,5.5h-49c-3.03,0-5.5-2.47-5.5-5.5v-49     c0-3.03,2.47-5.5,5.5-5.5H312.5 M312.5,0h-49c-4.12,0-7.5,3.38-7.5,7.5v49c0,4.12,3.38,7.5,7.5,7.5h49c4.12,0,7.5-3.38,7.5-7.5     v-49C320,3.38,316.62,0,312.5,0L312.5,0z"
   class="st1" />
		</g>
		<g
   id="g39">
			<path
   id="path35"
   d="M327.5,63c-3.58,0-6.5-2.92-6.5-6.5v-49c0-3.58,2.92-6.5,6.5-6.5h49c3.58,0,6.5,2.92,6.5,6.5v49     c0,3.58-2.92,6.5-6.5,6.5H327.5z"
   class="st6" />
			<path
   id="path37"
   d="M376.5,2c3.03,0,5.5,2.47,5.5,5.5v49c0,3.03-2.47,5.5-5.5,5.5h-49c-3.03,0-5.5-2.47-5.5-5.5v-49     c0-3.03,2.47-5.5,5.5-5.5H376.5 M376.5,0h-49c-4.12,0-7.5,3.38-7.5,7.5v49c0,4.12,3.38,7.5,7.5,7.5h49c4.12,0,7.5-3.38,7.5-7.5     v-49C384,3.38,380.62,0,376.5,0L376.5,0z"
   class="st1" />
		</g>
		<g
   id="g45">
			<path
   id="path41"
   d="M391.5,63c-3.58,0-6.5-2.92-6.5-6.5v-49c0-3.58,2.92-6.5,6.5-6.5h49c3.58,0,6.5,2.92,6.5,6.5v49     c0,3.58-2.92,6.5-6.5,6.5H391.5z"
   class="st7" />
			<path
   id="path43"
   d="M440.5,2c3.03,0,5.5,2.47,5.5,5.5v49c0,3.03-2.47,5.5-5.5,5.5h-49c-3.03,0-5.5-2.47-5.5-5.5v-49     c0-3.03,2.47-5.5,5.5-5.5H440.5 M440.5,0h-49c-4.12,0-7.5,3.38-7.5,7.5v49c0,4.12,3.38,7.5,7.5,7.5h49c4.12,0,7.5-3.38,7.5-7.5     v-49C448,3.38,444.62,0,440.5,0L440.5,0z"
   class="st1" />
		</g>
		<g
   id="g51">
			<path
   id="path47"
   d="M455.5,63c-3.58,0-6.5-2.92-6.5-6.5v-49c0-3.58,2.92-6.5,6.5-6.5h49c3.58,0,6.5,2.92,6.5,6.5v49     c0,3.58-2.92,6.5-6.5,6.5H455.5z"
   class="st8" />
			<path
   id="path49"
   d="M504.5,2c3.03,0,5.5,2.47,5.5,5.5v49c0,3.03-2.47,5.5-5.5,5.5h-49c-3.03,0-5.5-2.47-5.5-5.5v-49     c0-3.03,2.47-5.5,5.5-5.5H504.5 M504.5,0h-49c-4.12,0-7.5,3.38-7.5,7.5v49c0,4.12,3.38,7.5,7.5,7.5h49c4.12,0,7.5-3.38,7.5-7.5     v-49C512,3.38,508.62,0,504.5,0L504.5,0z"
   class="st1" />
		</g>
		<g
   id="g57">
			<path
   id="path53"
   d="M519.5,63c-3.58,0-6.5-2.92-6.5-6.5v-49c0-3.58,2.92-6.5,6.5-6.5h49c3.58,0,6.5,2.92,6.5,6.5v49     c0,3.58-2.92,6.5-6.5,6.5H519.5z"
   class="st9" />
			<path
   id="path55"
   d="M568.5,2c3.03,0,5.5,2.47,5.5,5.5v49c0,3.03-2.47,5.5-5.5,5.5h-49c-3.03,0-5.5-2.47-5.5-5.5v-49     c0-3.03,2.47-5.5,5.5-5.5H568.5 M568.5,0h-49c-4.12,0-7.5,3.38-7.5,7.5v49c0,4.12,3.38,7.5,7.5,7.5h49c4.12,0,7.5-3.38,7.5-7.5     v-49C576,3.38,572.62,0,568.5,0L568.5,0z"
   class="st1" />
		</g>
		<g
   id="g63">
			<path
   id="path59"
   d="M583.5,63c-3.58,0-6.5-2.92-6.5-6.5v-49c0-3.58,2.92-6.5,6.5-6.5h49c3.58,0,6.5,2.92,6.5,6.5v49     c0,3.58-2.92,6.5-6.5,6.5H583.5z"
   class="st10" />
			<path
   id="path61"
   d="M632.5,2c3.03,0,5.5,2.47,5.5,5.5v49c0,3.03-2.47,5.5-5.5,5.5h-49c-3.03,0-5.5-2.47-5.5-5.5v-49     c0-3.03,2.47-5.5,5.5-5.5H632.5 M632.5,0h-49c-4.12,0-7.5,3.38-7.5,7.5v49c0,4.12,3.38,7.5,7.5,7.5h49c4.12,0,7.5-3.38,7.5-7.5     v-49C640,3.38,636.62,0,632.5,0L632.5,0z"
   class="st1" />
		</g>
		<g
   id="g69">
			<path
   id="path65"
   d="M647.5,63c-3.58,0-6.5-2.92-6.5-6.5v-49c0-3.58,2.92-6.5,6.5-6.5h49c3.58,0,6.5,2.92,6.5,6.5v49     c0,3.58-2.92,6.5-6.5,6.5H647.5z"
   class="st11" />
			<path
   id="path67"
   d="M696.5,2c3.03,0,5.5,2.47,5.5,5.5v49c0,3.03-2.47,5.5-5.5,5.5h-49c-3.03,0-5.5-2.47-5.5-5.5v-49     c0-3.03,2.47-5.5,5.5-5.5H696.5 M696.5,0h-49c-4.12,0-7.5,3.38-7.5,7.5v49c0,4.12,3.38,7.5,7.5,7.5h49c4.12,0,7.5-3.38,7.5-7.5     v-49C704,3.38,700.62,0,696.5,0L696.5,0z"
   class="st1" />
		</g>
		<g
   id="g75">
			<path
   id="path71"
   d="M711.5,63c-3.58,0-6.5-2.92-6.5-6.5v-49c0-3.58,2.92-6.5,6.5-6.5h49c3.58,0,6.5,2.92,6.5,6.5v49     c0,3.58-2.92,6.5-6.5,6.5H711.5z"
   class="st12" />
			<path
   id="path73"
   d="M760.5,2c3.03,0,5.5,2.47,5.5,5.5v49c0,3.03-2.47,5.5-5.5,5.5h-49c-3.03,0-5.5-2.47-5.5-5.5v-49     c0-3.03,2.47-5.5,5.5-5.5H760.5 M760.5,0h-49c-4.12,0-7.5,3.38-7.5,7.5v49c0,4.12,3.38,7.5,7.5,7.5h49c4.12,0,7.5-3.38,7.5-7.5     v-49C768,3.38,764.62,0,760.5,0L760.5,0z"
   class="st1" />
		</g>
		<g
   id="g81">
			<path
   id="path77"
   d="M775.5,63c-3.58,0-6.5-2.92-6.5-6.5v-49c0-3.58,2.92-6.5,6.5-6.5h49c3.58,0,6.5,2.92,6.5,6.5v49     c0,3.58-2.92,6.5-6.5,6.5H775.5z"
   class="st13" />
			<path
   id="path79"
   d="M824.5,2c3.03,0,5.5,2.47,5.5,5.5v49c0,3.03-2.47,5.5-5.5,5.5h-49c-3.03,0-5.5-2.47-5.5-5.5v-49     c0-3.03,2.47-5.5,5.5-5.5H824.5 M824.5,0h-49c-4.12,0-7.5,3.38-7.5,7.5v49c0,4.12,3.38,7.5,7.5,7.5h49c4.12,0,7.5-3.38,7.5-7.5     v-49C832,3.38,828.62,0,824.5,0L824.5,0z"
   class="st1" />
		</g>
		<g
   id="g87">
			<path
   id="path83"
   d="M839.5,63c-3.58,0-6.5-2.92-6.5-6.5v-49c0-3.58,2.92-6.5,6.5-6.5h49c3.58,0,6.5,2.92,6.5,6.5v49     c0,3.58-2.92,6.5-6.5,6.5H839.5z"
   class="st14" />
			<path
   id="path85"
   d="M888.5,2c3.03,0,5.5,2.47,5.5,5.5v49c0,3.03-2.47,5.5-5.5,5.5h-49c-3.03,0-5.5-2.47-5.5-5.5v-49     c0-3.03,2.47-5.5,5.5-5.5H888.5 M888.5,0h-49c-4.12,0-7.5,3.38-7.5,7.5v49c0,4.12,3.38,7.5,7.5,7.5h49c4.12,0,7.5-3.38,7.5-7.5     v-49C896,3.38,892.62,0,888.5,0L888.5,0z"
   class="st1" />
		</g>
		<g
   id="g93">
			<path
   id="path89"
   d="M903.5,63c-3.58,0-6.5-2.92-6.5-6.5v-49c0-3.58,2.92-6.5,6.5-6.5h49c3.58,0,6.5,2.92,6.5,6.5v49     c0,3.58-2.92,6.5-6.5,6.5H903.5z"
   class="st15" />
			<path
   id="path91"
   d="M952.5,2c3.03,0,5.5,2.47,5.5,5.5v49c0,3.03-2.47,5.5-5.5,5.5h-49c-3.03,0-5.5-2.47-5.5-5.5v-49     c0-3.03,2.47-5.5,5.5-5.5H952.5 M952.5,0h-49c-4.12,0-7.5,3.38-7.5,7.5v49c0,4.12,3.38,7.5,7.5,7.5h49c4.12,0,7.5-3.38,7.5-7.5     v-49C960,3.38,956.62,0,952.5,0L952.5,0z"
   class="st1" />
		</g>
		<g
   id="g99">
			<path
   id="path95"
   d="M967.5,63c-3.58,0-6.5-2.92-6.5-6.5v-49c0-3.58,2.92-6.5,6.5-6.5h49c3.58,0,6.5,2.92,6.5,6.5v49     c0,3.58-2.92,6.5-6.5,6.5H967.5z"
   class="st16" />
			<path
   id="path97"
   d="M1016.5,2c3.03,0,5.5,2.47,5.5,5.5v49c0,3.03-2.47,5.5-5.5,5.5h-49c-3.03,0-5.5-2.47-5.5-5.5v-49     c0-3.03,2.47-5.5,5.5-5.5H1016.5 M1016.5,0h-49c-4.12,0-7.5,3.38-7.5,7.5v49c0,4.12,3.38,7.5,7.5,7.5h49c4.12,0,7.5-3.38,7.5-7.5     v-49C1024,3.38,1020.62,0,1016.5,0L1016.5,0z"
   class="st1" />
		</g>
		<g
   id="g105">
			<path
   id="path101"
   d="M1031.5,63c-3.58,0-6.5-2.92-6.5-6.5v-49c0-3.58,2.92-6.5,6.5-6.5h49c3.58,0,6.5,2.92,6.5,6.5v49     c0,3.58-2.92,6.5-6.5,6.5H1031.5z"
   class="st17" />
			<path
   id="path103"
   d="M1080.5,2c3.03,0,5.5,2.47,5.5,5.5v49c0,3.03-2.47,5.5-5.5,5.5h-49c-3.03,0-5.5-2.47-5.5-5.5v-49     c0-3.03,2.47-5.5,5.5-5.5H1080.5 M1080.5,0h-49c-4.12,0-7.5,3.38-7.5,7.5v49c0,4.12,3.38,7.5,7.5,7.5h49c4.12,0,7.5-3.38,7.5-7.5     v-49C1088,3.38,1084.62,0,1080.5,0L1080.5,0z"
   class="st1" />
		</g>
		<g
   id="g111">
			<path
   id="path107"
   d="M1095.5,63c-3.58,0-6.5-2.92-6.5-6.5v-49c0-3.58,2.92-6.5,6.5-6.5h49c3.58,0,6.5,2.92,6.5,6.5v49     c0,3.58-2.92,6.5-6.5,6.5H1095.5z"
   class="st18" />
			<path
   id="path109"
   d="M1144.5,2c3.03,0,5.5,2.47,5.5,5.5v49c0,3.03-2.47,5.5-5.5,5.5h-49c-3.03,0-5.5-2.47-5.5-5.5v-49     c0-3.03,2.47-5.5,5.5-5.5H1144.5 M1144.5,0h-49c-4.12,0-7.5,3.38-7.5,7.5v49c0,4.12,3.38,7.5,7.5,7.5h49c4.12,0,7.5-3.38,7.5-7.5     v-49C1152,3.38,1148.62,0,1144.5,0L1144.5,0z"
   class="st1" />
		</g>
		<g
   id="g117">
			<path
   id="path113"
   d="M1159.5,63c-3.58,0-6.5-2.92-6.5-6.5v-49c0-3.58,2.92-6.5,6.5-6.5h49c3.58,0,6.5,2.92,6.5,6.5v49     c0,3.58-2.92,6.5-6.5,6.5H1159.5z"
   class="st19" />
			<path
   id="path115"
   d="M1208.5,2c3.03,0,5.5,2.47,5.5,5.5v49c0,3.03-2.47,5.5-5.5,5.5h-49c-3.03,0-5.5-2.47-5.5-5.5v-49     c0-3.03,2.47-5.5,5.5-5.5H1208.5 M1208.5,0h-49c-4.12,0-7.5,3.38-7.5,7.5v49c0,4.12,3.38,7.5,7.5,7.5h49c4.12,0,7.5-3.38,7.5-7.5     v-49C1216,3.38,1212.62,0,1208.5,0L1208.5,0z"
   class="st1" />
		</g>
		<g
   id="g123">
			<path
   id="path119"
   d="M1223.5,63c-3.58,0-6.5-2.92-6.5-6.5v-49c0-3.58,2.92-6.5,6.5-6.5h49c3.58,0,6.5,2.92,6.5,6.5v49     c0,3.58-2.92,6.5-6.5,6.5H1223.5z"
   class="st20" />
			<path
   id="path121"
   d="M1272.5,2c3.03,0,5.5,2.47,5.5,5.5v49c0,3.03-2.47,5.5-5.5,5.5h-49c-3.03,0-5.5-2.47-5.5-5.5v-49     c0-3.03,2.47-5.5,5.5-5.5H1272.5 M1272.5,0h-49c-4.12,0-7.5,3.38-7.5,7.5v49c0,4.12,3.38,7.5,7.5,7.5h49c4.12,0,7.5-3.38,7.5-7.5     v-49C1280,3.38,1276.62,0,1272.5,0L1272.5,0z"
   class="st1" />
		</g>
		<g
   id="g129">
			<path
   id="path125"
   d="M1287.5,63c-3.58,0-6.5-2.92-6.5-6.5v-49c0-3.58,2.92-6.5,6.5-6.5h49c3.58,0,6.5,2.92,6.5,6.5v49     c0,3.58-2.92,6.5-6.5,6.5H1287.5z"
   class="st21" />
			<path
   id="path127"
   d="M1336.5,2c3.03,0,5.5,2.47,5.5,5.5v49c0,3.03-2.47,5.5-5.5,5.5h-49c-3.03,0-5.5-2.47-5.5-5.5v-49     c0-3.03,2.47-5.5,5.5-5.5H1336.5 M1336.5,0h-49c-4.12,0-7.5,3.38-7.5,7.5v49c0,4.12,3.38,7.5,7.5,7.5h49c4.12,0,7.5-3.38,7.5-7.5     v-49C1344,3.38,1340.62,0,1336.5,0L1336.5,0z"
   class="st1" />
		</g>
		<g
   id="g135">
			<path
   id="path131"
   d="M1351.5,63c-3.58,0-6.5-2.92-6.5-6.5v-49c0-3.58,2.92-6.5,6.5-6.5h49c3.58,0,6.5,2.92,6.5,6.5v49     c0,3.58-2.92,6.5-6.5,6.5H1351.5z"
   class="st22" />
			<path
   id="path133"
   d="M1400.5,2c3.03,0,5.5,2.47,5.5,5.5v49c0,3.03-2.47,5.5-5.5,5.5h-49c-3.03,0-5.5-2.47-5.5-5.5v-49     c0-3.03,2.47-5.5,5.5-5.5H1400.5 M1400.5,0h-49c-4.12,0-7.5,3.38-7.5,7.5v49c0,4.12,3.38,7.5,7.5,7.5h49c4.12,0,7.5-3.38,7.5-7.5     v-49C1408,3.38,1404.62,0,1400.5,0L1400.5,0z"
   class="st1" />
		</g>
		<g
   id="g141">
			<path
   id="path137"
   d="M1415.5,63c-3.58,0-6.5-2.92-6.5-6.5v-49c0-3.58,2.92-6.5,6.5-6.5h49c3.58,0,6.5,2.92,6.5,6.5v49     c0,3.58-2.92,6.5-6.5,6.5H1415.5z"
   class="st23" />
			<path
   id="path139"
   d="M1464.5,2c3.03,0,5.5,2.47,5.5,5.5v49c0,3.03-2.47,5.5-5.5,5.5h-49c-3.03,0-5.5-2.47-5.5-5.5v-49     c0-3.03,2.47-5.5,5.5-5.5H1464.5 M1464.5,0h-49c-4.12,0-7.5,3.38-7.5,7.5v49c0,4.12,3.38,7.5,7.5,7.5h49c4.12,0,7.5-3.38,7.5-7.5     v-49C1472,3.38,1468.62,0,1464.5,0L1464.5,0z"
   class="st1" />
		</g>
		<g
   id="g147">
			<path
   id="path143"
   d="M1479.5,63c-3.58,0-6.5-2.92-6.5-6.5v-49c0-3.58,2.92-6.5,6.5-6.5h49c3.58,0,6.5,2.92,6.5,6.5v49     c0,3.58-2.92,6.5-6.5,6.5H1479.5z"
   class="st24" />
			<path
   id="path145"
   d="M1528.5,2c3.03,0,5.5,2.47,5.5,5.5v49c0,3.03-2.47,5.5-5.5,5.5h-49c-3.03,0-5.5-2.47-5.5-5.5v-49     c0-3.03,2.47-5.5,5.5-5.5H1528.5 M1528.5,0h-49c-4.12,0-7.5,3.38-7.5,7.5v49c0,4.12,3.38,7.5,7.5,7.5h49c4.12,0,7.5-3.38,7.5-7.5     v-49C1536,3.38,1532.62,0,1528.5,0L1528.5,0z"
   class="st1" />
		</g>
		<g
   id="g153">
			<path
   id="path149"
   d="M1543.5,63c-3.58,0-6.5-2.92-6.5-6.5v-49c0-3.58,2.92-6.5,6.5-6.5h49c3.58,0,6.5,2.92,6.5,6.5v49     c0,3.58-2.92,6.5-6.5,6.5H1543.5z"
   class="st25" />
			<path
   id="path151"
   d="M1592.5,2c3.03,0,5.5,2.47,5.5,5.5v49c0,3.03-2.47,5.5-5.5,5.5h-49c-3.03,0-5.5-2.47-5.5-5.5v-49     c0-3.03,2.47-5.5,5.5-5.5H1592.5 M1592.5,0h-49c-4.12,0-7.5,3.38-7.5,7.5v49c0,4.12,3.38,7.5,7.5,7.5h49c4.12,0,7.5-3.38,7.5-7.5     v-49C1600,3.38,1596.62,0,1592.5,0L1592.5,0z"
   class="st1" />
		</g>
		<g
   id="g159">
			<path
   id="path155"
   d="M1607.5,63c-3.58,0-6.5-2.92-6.5-6.5v-49c0-3.58,2.92-6.5,6.5-6.5h49c3.58,0,6.5,2.92,6.5,6.5v49     c0,3.58-2.92,6.5-6.5,6.5H1607.5z"
   class="st26" />
			<path
   id="path157"
   d="M1656.5,2c3.03,0,5.5,2.47,5.5,5.5v49c0,3.03-2.47,5.5-5.5,5.5h-49c-3.03,0-5.5-2.47-5.5-5.5v-49     c0-3.03,2.47-5.5,5.5-5.5H1656.5 M1656.5,0h-49c-4.12,0-7.5,3.38-7.5,7.5v49c0,4.12,3.38,7.5,7.5,7.5h49c4.12,0,7.5-3.38,7.5-7.5     v-49C1664,3.38,1660.62,0,1656.5,0L1656.5,0z"
   class="st1" />
		</g>
		<circle
   id="circle161"
   r="4"
   cy="32"
   cx="32" />
		<circle
   id="circle163"
   r="4"
   cy="32"
   cx="160" />
		<circle
   id="circle165"
   r="4"
   cy="22"
   cx="86" />
		<circle
   id="circle167"
   r="4"
   cy="42"
   cx="106" />
		<circle
   id="circle169"
   r="4"
   cy="22"
   cx="150" />
		<circle
   id="circle171"
   r="4"
   cy="22"
   cx="234" />
		<circle
   id="circle173"
   r="4"
   cy="42"
   cx="170" />
		<circle
   id="circle175"
   r="4"
   cy="42"
   cx="214" />
		<circle
   id="circle177"
   r="4"
   cy="22"
   cx="214" />
		<circle
   id="circle179"
   r="4"
   cy="42"
   cx="234" />
		<circle
   id="circle181"
   r="4"
   cy="22"
   cx="298" />
		<circle
   id="circle183"
   r="4"
   cy="32"
   cx="288" />
		<circle
   id="circle185"
   r="4"
   cy="42"
   cx="278" />
		<circle
   id="circle187"
   r="4"
   cy="22"
   cx="278" />
		<circle
   id="circle189"
   r="4"
   cy="32"
   cx="362" />
		<circle
   id="circle191"
   r="4"
   cy="32"
   cx="342" />
		<circle
   id="circle193"
   r="4"
   cy="42"
   cx="298" />
		<circle
   id="circle195"
   r="4"
   cy="22"
   cx="362" />
		<circle
   id="circle197"
   r="4"
   cy="42"
   cx="342" />
		<circle
   id="circle199"
   r="4"
   cy="22"
   cx="342" />
		<circle
   id="circle201"
   r="4"
   cy="42"
   cx="362" />
		<circle
   id="circle203"
   r="4"
   cy="32"
   cx="426" />
		<circle
   id="circle205"
   r="4"
   cy="32"
   cx="406" />
		<circle
   id="circle207"
   r="4"
   cy="22"
   cx="426" />
		<circle
   id="circle209"
   r="4"
   cy="32"
   cx="416" />
		<circle
   id="circle211"
   r="4"
   cy="22"
   cx="480" />
		<circle
   id="circle213"
   r="4"
   cy="42"
   cx="480" />
		<circle
   id="circle215"
   r="4"
   cy="42"
   cx="406" />
		<circle
   id="circle217"
   r="4"
   cy="22"
   cx="406" />
		<circle
   id="circle219"
   r="4"
   cy="42"
   cx="426" />
		<circle
   id="circle221"
   r="4"
   cy="32"
   cx="490" />
		<circle
   id="circle223"
   r="4"
   cy="32"
   cx="470" />
		<circle
   id="circle225"
   r="4"
   cy="22"
   cx="490" />
		<circle
   id="circle227"
   r="4"
   cy="42"
   cx="470" />
		<circle
   id="circle229"
   r="4"
   cy="22"
   cx="470" />
		<circle
   id="circle231"
   r="4"
   cy="42"
   cx="490" />
		<circle
   id="circle233"
   r="4"
   cy="22"
   cx="608" />
		<circle
   id="circle235"
   r="4"
   cy="12"
   cx="608" />
		<circle
   id="circle237"
   r="4"
   cy="42"
   cx="608" />
		<circle
   id="circle239"
   r="4"
   cy="52"
   cx="608" />
		<circle
   id="circle241"
   r="4"
   cy="32"
   cx="618" />
		<circle
   id="circle243"
   r="4"
   cy="32"
   cx="598" />
		<circle
   id="circle245"
   r="4"
   cy="22"
   cx="618" />
		<circle
   id="circle247"
   r="4"
   cy="42"
   cx="598" />
		<circle
   id="circle249"
   r="4"
   cy="22"
   cx="598" />
		<circle
   id="circle251"
   r="4"
   cy="42"
   cx="618" />
		<circle
   id="circle253"
   r="4"
   cy="22"
   cx="736" />
		<circle
   id="circle255"
   r="4"
   cy="12"
   cx="736" />
		<circle
   id="circle257"
   r="4"
   cy="42"
   cx="736" />
		<circle
   id="circle259"
   r="4"
   cy="52"
   cx="736" />
		<circle
   id="circle261"
   r="4"
   cy="32"
   cx="746" />
		<circle
   id="circle263"
   r="4"
   cy="32"
   cx="726" />
		<circle
   id="circle265"
   r="4"
   cy="32"
   cx="756" />
		<circle
   id="circle267"
   r="4"
   cy="32"
   cx="716" />
		<circle
   id="circle269"
   r="4"
   cy="22"
   cx="746" />
		<circle
   id="circle271"
   r="4"
   cy="42"
   cx="726" />
		<circle
   id="circle273"
   r="4"
   cy="22"
   cx="726" />
		<circle
   id="circle275"
   r="4"
   cy="42"
   cx="746" />
		<circle
   id="circle277"
   r="4"
   cy="22"
   cx="864" />
		<circle
   id="circle279"
   r="4"
   cy="12"
   cx="864" />
		<circle
   id="circle281"
   r="4"
   cy="42"
   cx="864" />
		<circle
   id="circle283"
   r="4"
   cy="52"
   cx="864" />
		<circle
   id="circle285"
   r="4"
   cy="32"
   cx="874" />
		<circle
   id="circle287"
   r="4"
   cy="32"
   cx="854" />
		<circle
   id="circle289"
   r="4"
   cy="32"
   cx="884" />
		<circle
   id="circle291"
   r="4"
   cy="42"
   cx="884" />
		<circle
   id="circle293"
   r="4"
   cy="32"
   cx="844" />
		<circle
   id="circle295"
   r="4"
   cy="22"
   cx="874" />
		<circle
   id="circle297"
   r="4"
   cy="42"
   cx="854" />
		<circle
   id="circle299"
   r="4"
   cy="22"
   cx="854" />
		<circle
   id="circle301"
   r="4"
   cy="22"
   cx="844" />
		<circle
   id="circle303"
   r="4"
   cy="42"
   cx="874" />
		<circle
   id="circle305"
   r="4"
   cy="22"
   cx="992" />
		<circle
   id="circle307"
   r="4"
   cy="12"
   cx="992" />
		<circle
   id="circle309"
   r="4"
   cy="12"
   cx="982" />
		<circle
   id="circle311"
   r="4"
   cy="42"
   cx="992" />
		<circle
   id="circle313"
   r="4"
   cy="52"
   cx="992" />
		<circle
   id="circle315"
   r="4"
   cy="32"
   cx="1002" />
		<circle
   id="circle317"
   r="4"
   cy="32"
   cx="982" />
		<circle
   id="circle319"
   r="4"
   cy="32"
   cx="1012" />
		<circle
   id="circle321"
   r="4"
   cy="42"
   cx="1012" />
		<circle
   id="circle323"
   r="4"
   cy="32"
   cx="972" />
		<circle
   id="circle325"
   r="4"
   cy="22"
   cx="1002" />
		<circle
   id="circle327"
   r="4"
   cy="42"
   cx="982" />
		<circle
   id="circle329"
   r="4"
   cy="22"
   cx="982" />
		<circle
   id="circle331"
   r="4"
   cy="22"
   cx="972" />
		<circle
   id="circle333"
   r="4"
   cy="42"
   cx="1002" />
		<circle
   id="circle335"
   r="4"
   cy="52"
   cx="1002" />
		<circle
   id="circle337"
   r="4"
   cy="22"
   cx="1120" />
		<circle
   id="circle339"
   r="4"
   cy="12"
   cx="1120" />
		<circle
   id="circle341"
   r="4"
   cy="12"
   cx="1110" />
		<circle
   id="circle343"
   r="4"
   cy="42"
   cx="1120" />
		<circle
   id="circle345"
   r="4"
   cy="52"
   cx="1120" />
		<circle
   id="circle347"
   r="4"
   cy="32"
   cx="1130" />
		<circle
   id="circle349"
   r="4"
   cy="32"
   cx="1110" />
		<circle
   id="circle351"
   r="4"
   cy="32"
   cx="1140" />
		<circle
   id="circle353"
   r="4"
   cy="42"
   cx="1140" />
		<circle
   id="circle355"
   r="4"
   cy="32"
   cx="1100" />
		<circle
   id="circle357"
   r="4"
   cy="22"
   cx="1130" />
		<circle
   id="circle359"
   r="4"
   cy="12"
   cx="1130" />
		<circle
   id="circle361"
   r="4"
   cy="42"
   cx="1110" />
		<circle
   id="circle363"
   r="4"
   cy="52"
   cx="1110" />
		<circle
   id="circle365"
   r="4"
   cy="22"
   cx="1110" />
		<circle
   id="circle367"
   r="4"
   cy="22"
   cx="1100" />
		<circle
   id="circle369"
   r="4"
   cy="42"
   cx="1130" />
		<circle
   id="circle371"
   r="4"
   cy="52"
   cx="1130" />
		<circle
   id="circle373"
   r="4"
   cy="22"
   cx="1248" />
		<circle
   id="circle375"
   r="4"
   cy="12"
   cx="1248" />
		<circle
   id="circle377"
   r="4"
   cy="12"
   cx="1238" />
		<circle
   id="circle379"
   r="4"
   cy="42"
   cx="1248" />
		<circle
   id="circle381"
   r="4"
   cy="52"
   cx="1248" />
		<circle
   id="circle383"
   r="4"
   cy="32"
   cx="1258" />
		<circle
   id="circle385"
   r="4"
   cy="32"
   cx="1238" />
		<circle
   id="circle387"
   r="4"
   cy="32"
   cx="1268" />
		<circle
   id="circle389"
   r="4"
   cy="22"
   cx="1268" />
		<circle
   id="circle391"
   r="4"
   cy="42"
   cx="1268" />
		<circle
   id="circle393"
   r="4"
   cy="32"
   cx="1228" />
		<circle
   id="circle395"
   r="4"
   cy="42"
   cx="1228" />
		<circle
   id="circle397"
   r="4"
   cy="22"
   cx="1258" />
		<circle
   id="circle399"
   r="4"
   cy="12"
   cx="1258" />
		<circle
   id="circle401"
   r="4"
   cy="42"
   cx="1238" />
		<circle
   id="circle403"
   r="4"
   cy="52"
   cx="1238" />
		<circle
   id="circle405"
   r="4"
   cy="22"
   cx="1238" />
		<circle
   id="circle407"
   r="4"
   cy="22"
   cx="1228" />
		<circle
   id="circle409"
   r="4"
   cy="42"
   cx="1258" />
		<circle
   id="circle411"
   r="4"
   cy="52"
   cx="1258" />
		<circle
   id="circle413"
   r="4"
   cy="22"
   cx="1376" />
		<circle
   id="circle415"
   r="4"
   cy="12"
   cx="1376" />
		<circle
   id="circle417"
   r="4"
   cy="12"
   cx="1366" />
		<circle
   id="circle419"
   r="4"
   cy="42"
   cx="1376" />
		<circle
   id="circle421"
   r="4"
   cy="52"
   cx="1376" />
		<circle
   id="circle423"
   r="4"
   cy="32"
   cx="1386" />
		<circle
   id="circle425"
   r="4"
   cy="32"
   cx="1366" />
		<circle
   id="circle427"
   r="4"
   cy="32"
   cx="1396" />
		<circle
   id="circle429"
   r="4"
   cy="22"
   cx="1396" />
		<circle
   id="circle431"
   r="4"
   cy="42"
   cx="1396" />
		<circle
   id="circle433"
   r="4"
   cy="52"
   cx="1396" />
		<circle
   id="circle435"
   r="4"
   cy="32"
   cx="1356" />
		<circle
   id="circle437"
   r="4"
   cy="42"
   cx="1356" />
		<circle
   id="circle439"
   r="4"
   cy="22"
   cx="1386" />
		<circle
   id="circle441"
   r="4"
   cy="12"
   cx="1386" />
		<circle
   id="circle443"
   r="4"
   cy="42"
   cx="1366" />
		<circle
   id="circle445"
   r="4"
   cy="52"
   cx="1366" />
		<circle
   id="circle447"
   r="4"
   cy="22"
   cx="1366" />
		<circle
   id="circle449"
   r="4"
   cy="22"
   cx="1356" />
		<circle
   id="circle451"
   r="4"
   cy="12"
   cx="1356" />
		<circle
   id="circle453"
   r="4"
   cy="42"
   cx="1386" />
		<circle
   id="circle455"
   r="4"
   cy="52"
   cx="1386" />
		<circle
   id="circle457"
   r="4"
   cy="22"
   cx="1440" />
		<circle
   id="circle459"
   r="4"
   cy="32"
   cx="1440" />
		<circle
   id="circle461"
   r="4"
   cy="12"
   cx="1440" />
		<circle
   id="circle463"
   r="4"
   cy="12"
   cx="1430" />
		<circle
   id="circle465"
   r="4"
   cy="42"
   cx="1440" />
		<circle
   id="circle467"
   r="4"
   cy="52"
   cx="1440" />
		<circle
   id="circle469"
   r="4"
   cy="32"
   cx="1450" />
		<circle
   id="circle471"
   r="4"
   cy="32"
   cx="1430" />
		<circle
   id="circle473"
   r="4"
   cy="32"
   cx="1460" />
		<circle
   id="circle475"
   r="4"
   cy="22"
   cx="1460" />
		<circle
   id="circle477"
   r="4"
   cy="42"
   cx="1460" />
		<circle
   id="circle479"
   r="4"
   cy="52"
   cx="1460" />
		<circle
   id="circle481"
   r="4"
   cy="32"
   cx="1420" />
		<circle
   id="circle483"
   r="4"
   cy="42"
   cx="1420" />
		<circle
   id="circle485"
   r="4"
   cy="22"
   cx="1450" />
		<circle
   id="circle487"
   r="4"
   cy="12"
   cx="1450" />
		<circle
   id="circle489"
   r="4"
   cy="42"
   cx="1430" />
		<circle
   id="circle491"
   r="4"
   cy="52"
   cx="1430" />
		<circle
   id="circle493"
   r="4"
   cy="22"
   cx="1430" />
		<circle
   id="circle495"
   r="4"
   cy="22"
   cx="1420" />
		<circle
   id="circle497"
   r="4"
   cy="12"
   cx="1420" />
		<circle
   id="circle499"
   r="4"
   cy="42"
   cx="1450" />
		<circle
   id="circle501"
   r="4"
   cy="52"
   cx="1450" />
		<circle
   id="circle503"
   r="4"
   cy="22"
   cx="1504" />
		<circle
   id="circle505"
   r="4"
   cy="12"
   cx="1524" />
		<circle
   id="circle507"
   r="4"
   cy="12"
   cx="1504" />
		<circle
   id="circle509"
   r="4"
   cy="12"
   cx="1494" />
		<circle
   id="circle511"
   r="4"
   cy="42"
   cx="1504" />
		<circle
   id="circle513"
   r="4"
   cy="52"
   cx="1504" />
		<circle
   id="circle515"
   r="4"
   cy="32"
   cx="1514" />
		<circle
   id="circle517"
   r="4"
   cy="32"
   cx="1494" />
		<circle
   id="circle519"
   r="4"
   cy="52"
   cx="1484" />
		<circle
   id="circle521"
   r="4"
   cy="32"
   cx="1524" />
		<circle
   id="circle523"
   r="4"
   cy="22"
   cx="1524" />
		<circle
   id="circle525"
   r="4"
   cy="42"
   cx="1524" />
		<circle
   id="circle527"
   r="4"
   cy="52"
   cx="1524" />
		<circle
   id="circle529"
   r="4"
   cy="32"
   cx="1484" />
		<circle
   id="circle531"
   r="4"
   cy="42"
   cx="1484" />
		<circle
   id="circle533"
   r="4"
   cy="22"
   cx="1514" />
		<circle
   id="circle535"
   r="4"
   cy="12"
   cx="1514" />
		<circle
   id="circle537"
   r="4"
   cy="42"
   cx="1494" />
		<circle
   id="circle539"
   r="4"
   cy="52"
   cx="1494" />
		<circle
   id="circle541"
   r="4"
   cy="22"
   cx="1494" />
		<circle
   id="circle543"
   r="4"
   cy="22"
   cx="1484" />
		<circle
   id="circle545"
   r="4"
   cy="12"
   cx="1484" />
		<circle
   id="circle547"
   r="4"
   cy="42"
   cx="1514" />
		<circle
   id="circle549"
   r="4"
   cy="52"
   cx="1514" />
		<circle
   id="circle551"
   r="4"
   cy="22"
   cx="1568" />
		<circle
   id="circle553"
   r="4"
   cy="32"
   cx="1568" />
		<circle
   id="circle555"
   r="4"
   cy="12"
   cx="1588" />
		<circle
   id="circle557"
   r="4"
   cy="12"
   cx="1568" />
		<circle
   id="circle559"
   r="4"
   cy="12"
   cx="1558" />
		<circle
   id="circle561"
   r="4"
   cy="42"
   cx="1568" />
		<circle
   id="circle563"
   r="4"
   cy="52"
   cx="1568" />
		<circle
   id="circle565"
   r="4"
   cy="32"
   cx="1578" />
		<circle
   id="circle567"
   r="4"
   cy="32"
   cx="1558" />
		<circle
   id="circle569"
   r="4"
   cy="52"
   cx="1548" />
		<circle
   id="circle571"
   r="4"
   cy="32"
   cx="1588" />
		<circle
   id="circle573"
   r="4"
   cy="22"
   cx="1588" />
		<circle
   id="circle575"
   r="4"
   cy="42"
   cx="1588" />
		<circle
   id="circle577"
   r="4"
   cy="52"
   cx="1588" />
		<circle
   id="circle579"
   r="4"
   cy="32"
   cx="1548" />
		<circle
   id="circle581"
   r="4"
   cy="42"
   cx="1548" />
		<circle
   id="circle583"
   r="4"
   cy="22"
   cx="1578" />
		<circle
   id="circle585"
   r="4"
   cy="12"
   cx="1578" />
		<circle
   id="circle587"
   r="4"
   cy="42"
   cx="1558" />
		<circle
   id="circle589"
   r="4"
   cy="52"
   cx="1558" />
		<circle
   id="circle591"
   r="4"
   cy="22"
   cx="1558" />
		<circle
   id="circle593"
   r="4"
   cy="22"
   cx="1548" />
		<circle
   id="circle595"
   r="4"
   cy="12"
   cx="1548" />
		<circle
   id="circle597"
   r="4"
   cy="42"
   cx="1578" />
		<circle
   id="circle599"
   r="4"
   cy="52"
   cx="1578" />
		<circle
   id="circle601"
   r="4"
   cy="22"
   cx="1312" />
		<circle
   id="circle603"
   r="4"
   cy="32"
   cx="1312" />
		<circle
   id="circle605"
   r="4"
   cy="12"
   cx="1312" />
		<circle
   id="circle607"
   r="4"
   cy="12"
   cx="1302" />
		<circle
   id="circle609"
   r="4"
   cy="42"
   cx="1312" />
		<circle
   id="circle611"
   r="4"
   cy="52"
   cx="1312" />
		<circle
   id="circle613"
   r="4"
   cy="32"
   cx="1322" />
		<circle
   id="circle615"
   r="4"
   cy="32"
   cx="1302" />
		<circle
   id="circle617"
   r="4"
   cy="32"
   cx="1332" />
		<circle
   id="circle619"
   r="4"
   cy="22"
   cx="1332" />
		<circle
   id="circle621"
   r="4"
   cy="42"
   cx="1332" />
		<circle
   id="circle623"
   r="4"
   cy="32"
   cx="1292" />
		<circle
   id="circle625"
   r="4"
   cy="42"
   cx="1292" />
		<circle
   id="circle627"
   r="4"
   cy="22"
   cx="1322" />
		<circle
   id="circle629"
   r="4"
   cy="12"
   cx="1322" />
		<circle
   id="circle631"
   r="4"
   cy="42"
   cx="1302" />
		<circle
   id="circle633"
   r="4"
   cy="52"
   cx="1302" />
		<circle
   id="circle635"
   r="4"
   cy="22"
   cx="1302" />
		<circle
   id="circle637"
   r="4"
   cy="22"
   cx="1292" />
		<circle
   id="circle639"
   r="4"
   cy="42"
   cx="1322" />
		<circle
   id="circle641"
   r="4"
   cy="52"
   cx="1322" />
		<circle
   id="circle643"
   r="4"
   cy="22"
   cx="1184" />
		<circle
   id="circle645"
   r="4"
   cy="32"
   cx="1184" />
		<circle
   id="circle647"
   r="4"
   cy="12"
   cx="1184" />
		<circle
   id="circle649"
   r="4"
   cy="12"
   cx="1174" />
		<circle
   id="circle651"
   r="4"
   cy="42"
   cx="1184" />
		<circle
   id="circle653"
   r="4"
   cy="52"
   cx="1184" />
		<circle
   id="circle655"
   r="4"
   cy="32"
   cx="1194" />
		<circle
   id="circle657"
   r="4"
   cy="32"
   cx="1174" />
		<circle
   id="circle659"
   r="4"
   cy="32"
   cx="1204" />
		<circle
   id="circle661"
   r="4"
   cy="42"
   cx="1204" />
		<circle
   id="circle663"
   r="4"
   cy="32"
   cx="1164" />
		<circle
   id="circle665"
   r="4"
   cy="22"
   cx="1194" />
		<circle
   id="circle667"
   r="4"
   cy="12"
   cx="1194" />
		<circle
   id="circle669"
   r="4"
   cy="42"
   cx="1174" />
		<circle
   id="circle671"
   r="4"
   cy="52"
   cx="1174" />
		<circle
   id="circle673"
   r="4"
   cy="22"
   cx="1174" />
		<circle
   id="circle675"
   r="4"
   cy="22"
   cx="1164" />
		<circle
   id="circle677"
   r="4"
   cy="42"
   cx="1194" />
		<circle
   id="circle679"
   r="4"
   cy="52"
   cx="1194" />
		<circle
   id="circle681"
   r="4"
   cy="22"
   cx="1056" />
		<circle
   id="circle683"
   r="4"
   cy="32"
   cx="1056" />
		<circle
   id="circle685"
   r="4"
   cy="12"
   cx="1056" />
		<circle
   id="circle687"
   r="4"
   cy="12"
   cx="1046" />
		<circle
   id="circle689"
   r="4"
   cy="42"
   cx="1056" />
		<circle
   id="circle691"
   r="4"
   cy="52"
   cx="1056" />
		<circle
   id="circle693"
   r="4"
   cy="32"
   cx="1066" />
		<circle
   id="circle695"
   r="4"
   cy="32"
   cx="1046" />
		<circle
   id="circle697"
   r="4"
   cy="32"
   cx="1076" />
		<circle
   id="circle699"
   r="4"
   cy="42"
   cx="1076" />
		<circle
   id="circle701"
   r="4"
   cy="32"
   cx="1036" />
		<circle
   id="circle703"
   r="4"
   cy="22"
   cx="1066" />
		<circle
   id="circle705"
   r="4"
   cy="42"
   cx="1046" />
		<circle
   id="circle707"
   r="4"
   cy="22"
   cx="1046" />
		<circle
   id="circle709"
   r="4"
   cy="22"
   cx="1036" />
		<circle
   id="circle711"
   r="4"
   cy="42"
   cx="1066" />
		<circle
   id="circle713"
   r="4"
   cy="52"
   cx="1066" />
		<circle
   id="circle715"
   r="4"
   cy="22"
   cx="928" />
		<circle
   id="circle717"
   r="4"
   cy="32"
   cx="928" />
		<circle
   id="circle719"
   r="4"
   cy="12"
   cx="928" />
		<circle
   id="circle721"
   r="4"
   cy="42"
   cx="928" />
		<circle
   id="circle723"
   r="4"
   cy="52"
   cx="928" />
		<circle
   id="circle725"
   r="4"
   cy="32"
   cx="938" />
		<circle
   id="circle727"
   r="4"
   cy="32"
   cx="918" />
		<circle
   id="circle729"
   r="4"
   cy="32"
   cx="948" />
		<circle
   id="circle731"
   r="4"
   cy="42"
   cx="948" />
		<circle
   id="circle733"
   r="4"
   cy="32"
   cx="908" />
		<circle
   id="circle735"
   r="4"
   cy="22"
   cx="938" />
		<circle
   id="circle737"
   r="4"
   cy="42"
   cx="918" />
		<circle
   id="circle739"
   r="4"
   cy="22"
   cx="918" />
		<circle
   id="circle741"
   r="4"
   cy="22"
   cx="908" />
		<circle
   id="circle743"
   r="4"
   cy="42"
   cx="938" />
		<circle
   id="circle745"
   r="4"
   cy="22"
   cx="800" />
		<circle
   id="circle747"
   r="4"
   cy="32"
   cx="800" />
		<circle
   id="circle749"
   r="4"
   cy="12"
   cx="800" />
		<circle
   id="circle751"
   r="4"
   cy="42"
   cx="800" />
		<circle
   id="circle753"
   r="4"
   cy="52"
   cx="800" />
		<circle
   id="circle755"
   r="4"
   cy="32"
   cx="810" />
		<circle
   id="circle757"
   r="4"
   cy="32"
   cx="790" />
		<circle
   id="circle759"
   r="4"
   cy="32"
   cx="820" />
		<circle
   id="circle761"
   r="4"
   cy="32"
   cx="780" />
		<circle
   id="circle763"
   r="4"
   cy="22"
   cx="810" />
		<circle
   id="circle765"
   r="4"
   cy="42"
   cx="790" />
		<circle
   id="circle767"
   r="4"
   cy="22"
   cx="790" />
		<circle
   id="circle769"
   r="4"
   cy="42"
   cx="810" />
		<circle
   id="circle771"
   r="4"
   cy="22"
   cx="672" />
		<circle
   id="circle773"
   r="4"
   cy="32"
   cx="672" />
		<circle
   id="circle775"
   r="4"
   cy="12"
   cx="672" />
		<circle
   id="circle777"
   r="4"
   cy="42"
   cx="672" />
		<circle
   id="circle779"
   r="4"
   cy="52"
   cx="672" />
		<circle
   id="circle781"
   r="4"
   cy="32"
   cx="682" />
		<circle
   id="circle783"
   r="4"
   cy="32"
   cx="662" />
		<circle
   id="circle785"
   r="4"
   cy="22"
   cx="682" />
		<circle
   id="circle787"
   r="4"
   cy="42"
   cx="662" />
		<circle
   id="circle789"
   r="4"
   cy="22"
   cx="662" />
		<circle
   id="circle791"
   r="4"
   cy="42"
   cx="682" />
		<circle
   id="circle793"
   r="4"
   cy="22"
   cx="544" />
		<circle
   id="circle795"
   r="4"
   cy="32"
   cx="544" />
		<circle
   id="circle797"
   r="4"
   cy="42"
   cx="544" />
		<circle
   id="circle799"
   r="4"
   cy="32"
   cx="554" />
		<circle
   id="circle801"
   r="4"
   cy="32"
   cx="534" />
		<circle
   id="circle803"
   r="4"
   cy="22"
   cx="554" />
		<circle
   id="circle805"
   r="4"
   cy="42"
   cx="534" />
		<circle
   id="circle807"
   r="4"
   cy="22"
   cx="534" />
		<circle
   id="circle809"
   r="4"
   cy="42"
   cx="554" />
		<circle
   id="circle811"
   r="24"
   cy="32"
   cx="1632" />
	</g>
</g>
</svg>
